<svg width="768" height="386" viewBox="0 0 768 386" fill="none" xmlns="http://www.w3.org/2000/svg">
<g opacity="0.3">
<path d="M179.213 385.665C173.909 385.665 168.747 385.351 163.785 384.723C153.38 383.404 143.767 380.698 135.213 376.679C126.019 372.36 117.955 366.475 111.244 359.188C97.7548 344.541 91.0063 327 84.4794 310.036C83.197 306.705 81.8715 303.261 80.5255 299.919C71.3414 277.141 59.6992 257.189 44.9362 238.922C15.4861 202.484 -25.9304 171.386 -74.8382 148.992C-131.399 123.094 -192.212 110.193 -246.075 112.667C-277.733 114.121 -319.562 127.952 -338.256 151.574C-349.35 165.593 -350.245 181.15 -340.841 196.562L-341.028 196.627C-345.959 188.544 -348.107 180.441 -347.411 172.543C-346.773 165.298 -343.753 158.216 -338.432 151.493C-329.971 140.801 -316.016 131.324 -298.077 124.086C-281.5 117.399 -263.037 113.288 -246.087 112.51C-217.899 111.217 -187.919 114.087 -156.982 121.044C-128.937 127.351 -101.264 136.708 -74.7315 148.857C-25.795 171.264 15.6461 202.379 45.1127 238.839C59.8839 257.118 71.5322 277.081 80.7224 299.871C82.0705 303.213 83.396 306.658 84.6763 309.989C91.1971 326.941 97.9415 344.469 111.412 359.095C124.439 373.241 142.073 381.81 163.82 384.564C193.937 388.379 230.509 380.401 261.648 363.22C306.522 338.462 337.665 302.425 367.784 267.576C373.063 261.467 378.521 255.151 383.926 249.052C397.956 233.214 416.958 212.691 439.541 194.408C462.624 175.719 486.081 161.989 511.253 152.43C526.66 146.579 542.989 142.637 559.785 140.714C575.299 138.937 591.72 138.826 608.592 140.383C637.534 143.055 668.713 150.603 703.915 163.456C773.226 188.766 842.464 219.487 909.703 254.767C973.611 288.299 1036.29 326.243 1096 367.542L1095.86 367.656C972.089 282.046 840.19 213.391 703.824 163.595C626.782 135.463 565.621 131.958 511.345 152.568C456.128 173.534 417.555 211.371 384.096 249.137C378.693 255.235 373.235 261.551 367.956 267.66C337.829 302.521 306.676 338.569 261.771 363.344C247.26 371.35 230.936 377.595 214.564 381.402C205.916 383.414 197.318 384.729 189.009 385.312C185.697 385.549 182.428 385.665 179.213 385.665Z" fill="#FFE492"/>
<path d="M184.399 376.98C170.873 376.98 158.344 375.034 147.148 371.193C134.662 366.909 123.888 360.272 115.122 351.467C114.347 350.687 113.577 349.88 112.835 349.068C99.4893 334.484 92.4413 317.172 85.6271 300.428C84.2483 297.044 82.8243 293.544 81.3798 290.148C72.7764 269.926 62.4167 252.103 49.7055 235.663C48.1399 233.639 46.519 231.611 44.8836 229.635C15.0006 193.51 -26.7524 162.807 -75.8612 140.843C-132.831 115.387 -193.816 103.02 -247.582 106.02C-279.01 107.793 -320.646 121.851 -339.421 145.291C-350.663 159.327 -351.935 174.915 -343.104 190.371L-343.292 190.433C-347.921 182.332 -349.824 174.214 -348.943 166.307C-348.135 159.044 -344.991 151.946 -339.597 145.21C-331.049 134.536 -317.136 125.048 -299.365 117.774C-282.94 111.05 -264.557 106.821 -247.601 105.865C-219.447 104.294 -189.435 106.89 -158.399 113.58C-130.286 119.641 -102.482 128.769 -75.7586 140.71C-26.6211 162.686 15.1545 193.408 45.056 229.553C46.6913 231.53 48.3144 233.56 49.8799 235.586C62.5993 252.036 72.9652 269.868 81.5727 290.101C83.0192 293.498 84.4432 296.998 85.8221 300.383C92.6342 317.116 99.6761 334.416 113.003 348.979C113.744 349.789 114.513 350.595 115.287 351.374C133.4 369.575 158.289 376.98 184.462 376.98C184.606 376.98 184.748 376.98 184.891 376.98C184.727 376.979 184.563 376.98 184.399 376.98ZM189.982 376.872C214.315 375.927 239.423 368.86 260.963 358.348C307.427 335.578 340.821 300.409 373.117 266.399C374.447 264.998 375.776 263.599 377.106 262.2C380.026 259.129 383.487 255.494 387.021 251.83C402.871 235.396 422.054 216.275 444.146 199.065C467.652 180.752 491.135 167.163 515.936 157.518C531.175 151.599 547.28 147.429 563.803 145.125C579.112 142.989 595.291 142.386 611.884 143.33C640.551 144.963 671.373 151.154 706.115 162.258C739.987 173.066 767.83 183.241 793.739 194.278C830.443 209.928 865.404 227.961 894.764 243.535C963.02 279.848 1029.99 321.081 1093.82 366.091L1093.68 366.204C1029.86 321.201 962.895 279.97 894.647 243.662C865.291 228.089 830.336 210.06 793.641 194.414C767.738 183.381 739.903 173.209 706.037 162.403C630.355 138.214 569.977 136.706 516.03 157.658C460.039 179.428 420.166 217.73 387.187 251.923C383.651 255.587 380.192 259.221 377.272 262.293C375.943 263.69 374.613 265.091 373.283 266.492C340.977 300.513 307.571 335.694 261.074 358.481C249.545 364.107 237.277 368.577 224.609 371.763C212.817 374.727 201.193 376.44 189.982 376.872Z" fill="#FFE492"/>
<path d="M190.12 368.492C188.493 368.492 186.876 368.466 185.272 368.411C171.758 367.96 159.252 365.617 148.103 361.444C135.909 356.88 125.344 350.12 116.703 341.351C115.936 340.569 115.171 339.761 114.432 338.948C101.237 324.436 93.895 307.355 86.7977 290.837C85.3183 287.395 83.7877 283.834 82.2365 280.379C73.2083 260.225 62.5757 242.545 49.7271 226.327C48.1369 224.322 46.4913 222.31 44.8313 220.35C14.5153 184.54 -27.5742 154.23 -76.8841 132.698C-134.26 107.684 -195.417 95.8484 -249.089 99.3764C-279.309 101.394 -320.824 114.65 -340.563 138.985C-351.967 153.044 -353.627 168.674 -345.364 184.185L-345.555 184.242C-349.884 176.116 -351.536 167.979 -350.469 160.058C-349.488 152.772 -346.213 145.656 -340.737 138.904C-332.099 128.255 -318.23 118.764 -300.63 111.455C-284.358 104.699 -266.06 100.355 -249.108 99.2228C-220.987 97.3759 -190.942 99.6958 -159.809 106.119C-131.627 111.934 -103.693 120.831 -76.7815 132.564C-27.4428 154.111 14.6692 184.438 45.0037 220.268C46.6636 222.23 48.3113 224.241 49.9015 226.249C62.7563 242.477 73.3951 260.168 82.4273 280.332C83.9785 283.789 85.5091 287.35 86.9885 290.792C94.0838 307.3 101.419 324.37 114.598 338.865C115.337 339.677 116.098 340.484 116.865 341.262C151.975 376.896 214.195 373.07 260.281 353.473C308.684 332.71 344.655 298.2 379.442 264.828L379.799 264.485C383.168 261.25 386.652 257.907 390.12 254.605C426.71 219.775 466.929 183.98 520.625 162.603C535.7 156.614 551.584 152.216 567.83 149.531C582.942 147.035 598.875 145.938 615.185 146.273C643.621 146.856 674.087 151.692 708.324 161.055C744.305 170.861 771.381 179.874 796.118 190.281C831.363 205.139 865.504 223.914 895.625 240.479C962.689 277.56 1028.64 319.331 1091.65 364.631L1091.51 364.742C1028.51 319.448 962.56 277.681 895.504 240.603C865.386 224.041 831.252 205.269 796.018 190.416C771.291 180.012 744.223 171.002 708.254 161.199C634.041 140.903 574.451 141.391 520.72 162.738C467.058 184.101 426.856 219.88 390.28 254.698C386.812 258 383.328 261.345 379.959 264.578L379.602 264.921C362.266 281.551 344.341 298.748 324.984 314.108C303.23 331.37 282.098 344.289 260.38 353.605C237.658 363.266 212.906 368.492 190.12 368.492Z" fill="#FFE492"/>
<path d="M1089.33 363.28C1027.15 317.694 962.221 275.39 896.359 237.545C893.568 235.954 890.773 234.355 887.969 232.752C859.44 216.435 829.94 199.562 798.395 186.418C767.792 173.702 736.776 165.926 710.472 159.998C637.863 143.532 579.059 146.017 525.41 167.818C470.336 190.264 427.662 227.531 393.374 257.476C391.316 259.273 389.262 261.074 387.204 262.876C385.685 264.206 384.165 265.537 382.644 266.866C363.121 283.934 345.362 299.193 325.741 313.118C303.324 329.024 281.718 340.673 259.684 348.732C239.034 356.286 216.974 360.283 196.456 360.284C192.717 360.284 189.034 360.152 185.415 359.884C172.201 358.905 159.968 356.156 149.056 351.711C137.149 346.862 126.794 339.974 118.272 331.237C117.511 330.454 116.752 329.644 116.017 328.83C102.978 314.394 95.3513 297.552 87.9769 281.266C86.3888 277.758 84.7453 274.13 83.0833 270.608C73.6243 250.518 62.7166 232.978 49.7408 216.987C48.126 214.997 46.4537 213.004 44.7712 211.061C14.0202 175.566 -28.4037 145.65 -77.9127 124.547C-135.695 99.9751 -197.022 88.6747 -250.6 92.7253C-287.228 95.5492 -324.682 111.966 -341.683 132.645C-353.266 146.734 -355.32 162.414 -347.628 177.99L-347.821 178.044C-351.848 169.888 -353.252 161.727 -351.992 153.785C-350.833 146.473 -347.423 139.334 -341.858 132.563C-333.129 121.945 -319.306 112.454 -301.882 105.119C-285.767 98.3344 -267.563 93.8775 -250.621 92.5718C-222.533 90.4472 -192.457 92.4927 -161.228 98.6492C-132.978 104.22 -104.911 112.887 -77.8101 124.411C-28.2703 145.526 14.1761 175.459 44.9456 210.976C46.6302 212.921 48.3025 214.915 49.9173 216.905C62.9013 232.906 73.813 250.454 83.2782 270.554C84.9402 274.077 86.5837 277.704 88.1718 281.214C95.5421 297.49 103.165 314.321 116.188 328.74C116.922 329.553 117.679 330.361 118.439 331.142C155.091 368.723 217.387 364.029 259.595 348.591C309.954 330.171 348.489 296.485 382.491 266.763C384.011 265.433 385.529 264.102 387.05 262.773C389.106 260.971 391.162 259.171 393.22 257.374C412.792 240.281 432.121 223.671 453.37 208.365C477.805 190.762 501.34 177.455 525.315 167.682C540.232 161.62 555.89 156.994 571.855 153.934C586.776 151.073 602.465 149.485 618.486 149.212C646.739 148.731 676.85 152.211 710.533 159.849C736.846 165.78 767.876 173.559 798.496 186.283C830.055 199.432 859.561 216.309 888.096 232.629C890.899 234.233 893.695 235.832 896.486 237.423C962.354 275.271 1027.29 317.579 1089.48 363.17L1089.33 363.28Z" fill="#FFE492"/>
<path d="M1087.16 361.82C1024.62 315.07 960.718 272.229 897.217 234.488C893.417 232.23 889.531 229.902 885.772 227.652C858.85 211.536 831.012 194.872 800.776 182.421C770.583 170.032 739.307 163.525 712.693 158.795C641.851 146.083 583.831 150.565 530.103 172.899C478.856 194.279 438.708 226.43 399.881 257.521L395.617 260.935C392.25 263.631 388.768 266.418 385.335 269.152C346.469 300.065 307.562 329.038 258.993 343.857C247.207 347.454 235.105 349.946 223.02 351.268C210.042 352.687 197.435 352.708 185.549 351.327C172.639 349.828 160.683 346.678 150.013 341.965C138.402 336.837 128.253 329.823 119.853 321.12C119.096 320.332 118.343 319.521 117.615 318.708C104.735 304.358 96.8334 287.764 89.1923 271.717C87.4872 268.136 85.7227 264.433 83.9417 260.837C74.0436 240.809 62.8651 223.411 49.7661 207.649C48.1288 205.679 46.4319 203.702 44.7227 201.774C13.5388 166.593 -29.2196 137.071 -78.9317 116.398C-137.122 92.2713 -198.622 81.5028 -252.107 86.0791C-288.4 89.2504 -325.685 105.782 -342.772 126.281C-354.548 140.406 -357.008 156.146 -349.888 171.801L-350.083 171.852C-353.809 163.661 -354.96 155.468 -353.505 147.504C-352.164 140.161 -348.612 132.993 -342.949 126.201C-334.126 115.618 -320.352 106.137 -303.112 98.7799C-287.157 91.9705 -269.052 87.4066 -252.132 85.9271C-224.077 83.5265 -193.97 85.296 -162.643 91.1858C-134.323 96.5111 -106.127 104.947 -78.8353 116.263C-29.0945 136.947 13.6886 166.488 44.891 201.689C46.6002 203.618 48.2991 205.597 49.9365 207.566C63.0436 223.336 74.2282 240.744 84.1305 260.783C85.9114 264.379 87.6761 268.084 89.3811 271.664C97.0181 287.702 104.916 304.288 117.781 318.622C118.507 319.431 119.26 320.241 120.015 321.028C155.785 358.087 215.219 357.047 258.913 343.715C307.443 328.908 346.334 299.946 385.183 269.047C388.616 266.313 392.098 263.526 395.465 260.829L399.729 257.416C418.788 242.155 438.494 226.373 459.897 211.691C484.138 195.064 507.069 182.331 530 172.762C544.766 166.625 560.201 161.771 575.878 158.337C590.616 155.109 606.06 153.027 621.781 152.151C649.912 150.583 679.662 152.708 712.738 158.643C739.365 163.376 770.657 169.884 800.871 182.284C831.123 194.74 858.969 211.409 885.897 227.529C889.656 229.78 893.542 232.106 897.342 234.365C960.849 272.109 1024.76 314.954 1087.3 361.708L1087.16 361.82Z" fill="#FFE492"/>
<path d="M1084.98 360.359C1022.98 313.09 960.095 269.712 898.07 231.431C893.408 228.554 888.63 225.563 884.009 222.671C858.539 206.729 832.202 190.244 803.15 178.426C773.099 166.249 741.681 161.062 714.908 157.594C646.03 148.536 588.796 155.015 534.789 177.982C487.658 198.109 448.962 226.634 411.539 254.219C407.601 257.122 403.528 260.123 399.56 263.031C394.9 266.446 391.34 269.04 388.018 271.441C370.227 284.29 349.044 299.086 326.814 311.393C303.257 324.434 280.844 333.459 258.295 338.986C246.437 341.892 234.387 343.725 222.476 344.432C209.686 345.192 197.304 344.634 185.674 342.771C173.073 340.754 161.396 337.204 150.963 332.222C139.649 326.819 129.712 319.679 121.426 311.004C120.68 310.218 119.931 309.405 119.204 308.589C106.495 294.335 98.3288 277.997 90.4291 262.198C88.5969 258.534 86.703 254.745 84.7927 251.065C74.4494 231.093 62.998 213.837 49.7821 198.31C48.1201 196.357 46.3986 194.398 44.6648 192.486C13.0479 157.62 -30.047 128.492 -79.9602 108.249C-138.555 84.5652 -200.227 74.3317 -253.618 79.4307C-283.998 82.3957 -323.676 96.0549 -343.838 119.884C-355.825 134.052 -358.701 149.863 -352.154 165.608L-352.349 165.655C-355.773 157.422 -356.668 149.194 -355.01 141.198C-353.479 133.818 -349.78 126.619 -344.01 119.8C-335.093 109.261 -321.37 99.7954 -304.321 92.423C-288.526 85.5934 -270.529 80.9256 -253.643 79.2771C-225.621 76.6005 -195.481 78.0939 -164.059 83.717C-135.672 88.7973 -107.344 97.004 -79.8637 108.112C-29.9218 128.367 13.1977 157.512 44.8331 192.398C46.5669 194.31 48.2904 196.272 49.9524 198.226C63.1745 213.761 74.632 231.026 84.9815 251.008C86.8938 254.689 88.7877 258.478 90.62 262.142C98.5134 277.934 106.678 294.262 119.372 308.501C120.099 309.315 120.846 310.126 121.593 310.911C151.35 342.072 202.431 352.512 258.231 338.836C308.764 326.451 349.986 298.694 387.877 271.326C391.199 268.925 394.757 266.331 399.417 262.916C403.385 260.008 407.458 257.008 411.395 254.105C429.819 240.525 448.868 226.482 469.187 213.333C492.164 198.463 513.591 186.854 534.691 177.844C549.314 171.625 564.524 166.544 579.903 162.741C594.469 159.139 609.669 156.566 625.08 155.091C653.141 152.408 682.536 153.176 714.943 157.437C741.73 160.908 773.17 166.097 803.246 178.284C832.317 190.111 858.66 206.6 884.138 222.546C888.759 225.439 893.538 228.43 898.199 231.307C960.229 269.592 1023.12 312.973 1085.13 360.245L1084.98 360.359Z" fill="#FFE492"/>
<path d="M1082.8 358.898C1021.34 311.106 959.477 267.19 898.922 228.373C893.77 225.071 888.481 221.605 883.363 218.254C858.987 202.29 833.785 185.784 805.525 174.427C775.453 162.397 743.963 158.558 717.125 156.39C651.37 150.936 593.259 159.661 539.476 183.062C496.652 201.78 459.943 226.82 424.442 251.037C417.27 255.928 409.857 260.987 402.649 265.808C398.24 268.759 394.333 271.351 390.701 273.729C373.812 284.78 351.347 298.95 327.34 310.529C303.219 322.163 280.404 329.878 257.594 334.113C232.715 338.733 207.886 338.767 185.792 334.214C173.507 331.682 162.107 327.733 151.907 322.478C140.895 316.804 131.169 309.54 122.997 300.891C122.256 300.103 121.513 299.289 120.791 298.473C108.263 284.327 99.8419 268.258 91.7001 252.72C89.7304 248.961 87.695 245.074 85.6411 241.298C74.8443 221.379 63.12 204.263 49.7974 188.975C48.1108 187.04 46.3647 185.098 44.6062 183.203C12.5564 148.652 -30.8729 119.916 -80.9872 100.105C-139.986 76.867 -201.831 67.167 -255.129 72.7885C-291.25 76.6809 -327.315 93.026 -344.871 113.459C-357.087 127.678 -360.389 143.572 -354.418 159.422L-354.615 159.464C-357.736 151.181 -358.372 142.91 -356.507 134.88C-354.783 127.458 -350.926 120.222 -345.043 113.374C-336.031 102.884 -322.362 93.4401 -305.512 86.0615C-289.883 79.218 -272 74.4478 -255.158 72.6334C-227.169 69.6807 -196.996 70.8997 -165.478 76.2545C-137.021 81.0898 -108.562 89.0669 -80.8928 99.9657C-30.7498 119.789 12.7042 148.54 44.7745 183.113C46.5329 185.008 48.279 186.951 49.9677 188.888C63.2965 204.185 75.0269 221.309 85.8298 241.238C87.8837 245.014 89.9192 248.902 91.8889 252.661C100.027 268.192 108.443 284.253 120.959 298.385C121.682 299.201 122.422 300.012 123.163 300.8C152.41 331.759 202.645 344.156 257.545 333.963C307.593 324.669 351.055 299.464 390.566 273.613C394.195 271.234 398.104 268.644 402.512 265.693C409.718 260.872 417.133 255.815 424.302 250.924C459.811 226.702 496.527 201.656 539.372 182.93C553.866 176.623 568.855 171.315 583.921 167.15C598.331 163.167 613.287 160.101 628.372 158.037C656.427 154.199 685.465 153.611 717.143 156.238C744 158.408 775.516 162.248 805.619 174.293C833.9 185.657 859.113 202.169 883.497 218.139C888.614 221.49 893.904 224.955 899.056 228.256C959.614 267.077 1021.49 310.996 1082.95 358.791L1082.8 358.898Z" fill="#FFE492"/>
<path d="M1080.63 357.437C1019.71 309.119 958.865 264.667 899.776 225.317C894.347 221.7 888.76 217.871 883.359 214.168C859.874 198.07 835.59 181.422 807.899 170.432C777.7 158.503 746.185 156.033 719.339 155.189C656.068 153.055 598.766 163.835 544.163 188.145C505.869 205.274 471.733 226.954 438.719 247.919C427.368 255.128 416.645 261.938 405.739 268.586C401.303 271.292 397.263 273.724 393.385 276.017C368.363 290.804 347.545 301.495 327.868 309.661C303.182 319.907 279.967 326.312 256.896 329.24C247.946 330.375 239.029 330.941 230.274 330.941C214.753 330.941 199.736 329.167 185.911 325.653C160.891 319.293 140.253 307.558 124.571 290.774C123.832 289.979 123.095 289.165 122.381 288.352C110.044 274.329 101.387 258.545 93.0155 243.279C90.8939 239.411 88.7025 235.414 86.4926 231.526C75.2342 211.653 63.235 194.68 49.8159 179.636C48.1046 177.717 46.3339 175.793 44.5509 173.915C12.0681 139.678 -31.6977 111.337 -82.0131 91.955C-141.416 69.1634 -203.431 59.9952 -256.637 66.1394C-292.908 70.4148 -327.933 86.4498 -345.864 106.991C-358.329 121.269 -362.067 137.258 -356.679 153.229L-356.878 153.268C-359.691 144.928 -360.065 136.606 -357.986 128.535C-356.062 121.063 -352.042 113.787 -346.034 106.906C-336.928 96.474 -323.318 87.0608 -306.674 79.6822C-291.213 72.8278 -273.454 67.9646 -256.668 65.9858C-228.712 62.7571 -198.507 63.7 -166.894 68.7881C-138.367 73.3799 -109.779 81.1276 -81.9187 91.8155C-31.5746 111.209 12.2159 139.567 44.7191 173.823C46.5022 175.703 48.2729 177.627 49.9862 179.547C63.4135 194.599 75.4188 211.581 86.6814 231.462C88.8912 235.35 91.0847 239.349 93.2042 243.217C101.572 258.475 110.224 274.253 122.552 288.264C123.266 289.075 124 289.889 124.739 290.683C154.023 322.027 202.18 336.024 256.861 329.085C308.915 322.478 355.02 298.49 393.258 275.893C397.134 273.6 401.174 271.17 405.61 268.464C416.513 261.815 427.236 255.008 438.587 247.798C471.605 226.829 505.75 205.146 544.058 188.01C558.444 181.605 573.209 176.069 587.945 171.553C602.218 167.18 616.929 163.621 631.67 160.977C659.782 155.935 688.463 153.99 719.347 155.033C746.216 155.876 777.759 158.35 807.993 170.292C835.707 181.29 860.001 197.945 883.495 214.05C888.897 217.753 894.482 221.582 899.91 225.197C959.003 264.551 1019.85 309.007 1080.77 357.329L1080.63 357.437Z" fill="#FFE492"/>
<path d="M1078.46 355.977C1017.24 306.439 959.077 262.699 900.638 222.258C895.061 218.4 889.573 214.46 883.76 210.288C861.04 193.98 837.546 177.119 810.281 166.435C779.704 154.512 746.807 153.519 721.563 153.987C661.173 154.961 604.68 167.797 548.858 193.228C515.365 208.561 484.442 226.973 454.536 244.78C438.819 254.139 423.974 262.977 408.836 271.365C404.342 273.857 400.167 276.127 396.075 278.306C370.712 291.792 349.209 301.478 328.399 308.791C303.141 317.668 279.526 322.762 256.205 324.366C244.222 325.189 232.321 325.034 220.833 323.905C208.67 322.709 196.962 320.416 186.036 317.089C161.818 309.716 141.671 297.46 126.153 280.66C125.42 279.863 124.69 279.048 123.98 278.235C111.849 264.356 102.975 248.873 94.3924 233.9C92.1025 229.905 89.7347 225.774 87.3525 221.758C75.6221 201.928 63.3521 185.096 49.8407 170.3C48.1028 168.399 46.3074 166.491 44.5038 164.63C11.5881 130.709 -32.5122 102.761 -83.0286 83.8089C-129.655 66.3891 -177.738 57.3 -221.83 57.3C-234.295 57.3 -246.431 58.0258 -258.137 59.4944C-293.971 64.0785 -328.776 80.1708 -346.812 100.492C-359.541 114.837 -363.733 130.934 -358.934 147.041L-359.135 147.076C-361.64 138.67 -361.745 130.292 -359.447 122.173C-357.317 114.647 -353.123 107.323 -346.984 100.405C-337.784 90.0383 -324.237 80.6639 -307.806 73.2931C-292.296 66.3348 -275.133 61.5104 -258.174 59.3424C-230.251 55.8377 -200.012 56.5061 -168.303 61.3258C-139.709 65.6711 -110.987 73.1877 -82.9383 83.6678C-32.3932 102.631 11.7338 130.594 44.67 164.536C46.4756 166.397 48.2731 168.306 50.011 170.208C63.5285 185.012 75.8047 201.852 87.5413 221.691C89.9235 225.707 92.2933 229.839 94.5832 233.835C103.162 248.801 112.032 264.278 124.152 278.147C124.862 278.958 125.593 279.773 126.323 280.569C155.342 311.983 202.674 327.887 256.189 324.209C310.339 320.486 359.329 297.652 395.96 278.176C400.052 275.997 404.225 273.727 408.719 271.236C423.855 262.851 438.698 254.012 454.413 244.655C484.323 226.846 515.25 208.429 548.755 193.092C577.495 179.998 605.698 170.457 634.978 163.919C663.215 157.613 691.539 154.313 721.563 153.829C738.692 153.511 752.667 154.063 765.545 155.565C782.171 157.503 796.835 161.012 810.38 166.294C837.669 176.987 861.173 193.858 883.905 210.173C889.716 214.345 895.207 218.284 900.78 222.142C959.22 262.585 1017.39 306.327 1078.61 355.868L1078.46 355.977Z" fill="#FFE492"/>
<path d="M1076.28 354.515C1015.62 304.435 958.446 260.174 901.487 219.2C895.852 215.146 890.296 210.97 884.413 206.549C862.373 189.983 839.583 172.852 812.652 162.437C781.823 150.569 748.961 151.044 723.777 152.782C666.787 156.58 611.102 171.472 553.541 198.306C525.181 211.592 498.178 226.796 472.064 241.5C451.421 253.123 431.924 264.102 411.923 274.137C407.403 276.408 402.971 278.579 398.754 280.589C373.342 292.691 350.499 301.628 328.92 307.912C303.081 315.436 279.066 319.223 255.503 319.487C243.514 319.62 231.66 318.801 220.279 317.05C208.347 315.214 196.865 312.344 186.15 308.516C162.763 300.162 143.105 287.386 127.722 270.54C127 269.744 126.273 268.927 125.565 268.11C113.663 254.399 104.595 239.244 95.8259 224.587C93.3452 220.441 90.7784 216.151 88.1992 211.981C75.9887 192.189 63.4457 175.499 49.8543 160.956C48.0918 159.072 46.2718 157.182 44.4436 155.338C11.095 121.731 -33.3418 94.1769 -84.0593 75.6545C-144.269 53.7576 -206.63 45.6564 -259.652 52.8427C-295.022 57.7198 -329.595 73.854 -347.732 93.9443C-360.749 108.365 -365.406 124.583 -361.204 140.847L-361.405 140.877C-363.596 132.399 -363.428 123.955 -360.902 115.781C-358.557 108.193 -354.185 100.816 -347.902 93.8559C-338.611 83.5634 -325.133 74.2355 -308.923 66.8802C-293.592 59.9235 -276.567 55.0168 -259.689 52.6891C-231.796 48.9099 -201.527 49.3007 -169.724 53.8538C-141.06 57.9571 -112.209 65.2442 -83.9711 75.5134C-33.2228 94.0451 11.2386 121.616 44.6057 155.243C46.436 157.087 48.258 158.979 50.0205 160.865C63.6201 175.415 76.1672 192.113 88.3839 211.913C90.9651 216.083 93.5299 220.372 96.0126 224.521C104.778 239.171 113.841 254.32 125.736 268.021C126.444 268.837 127.17 269.654 127.89 270.448C157.215 302.562 202.534 319.924 255.498 319.328C298.474 318.848 343.96 306.494 398.643 280.454C402.858 278.444 407.288 276.274 411.808 274.004C431.803 263.971 451.3 252.994 471.939 241.371C498.057 226.665 525.064 211.458 553.432 198.17C582.454 184.639 610.203 174.398 638.266 166.857C666.696 159.218 694.661 154.561 723.758 152.622C748.969 150.881 781.87 150.408 812.747 162.294C839.706 172.722 862.508 189.861 884.559 206.434C890.44 210.855 895.996 215.03 901.628 219.082C958.592 260.058 1015.77 304.322 1076.43 354.405L1076.28 354.515Z" fill="#FFE492"/>
<path d="M1074.1 353.055C1014.01 302.43 957.83 257.645 902.344 216.144C896.711 211.93 891.149 207.552 885.262 202.917C863.845 186.056 841.697 168.62 815.032 158.441C783.911 146.616 751.102 148.563 725.996 151.579C672.375 157.898 619.068 174.361 558.231 203.389C535.414 214.325 513.117 226.321 491.554 237.923C465.365 252.013 440.627 265.323 415.014 276.915C410.4 279.006 405.832 281.012 401.439 282.876C375.572 293.846 352.023 301.749 329.446 307.034C316.801 309.995 304.317 312.139 292.343 313.409C279.57 314.763 266.941 315.168 254.806 314.613C230.186 313.485 207.127 308.551 186.273 299.947C163.749 290.655 144.581 277.359 129.301 260.424C128.583 259.623 127.863 258.804 127.159 257.991C115.511 244.482 106.281 229.687 97.3578 215.379C94.6556 211.048 91.863 206.569 89.054 202.212C76.3511 182.452 63.5352 165.903 49.8741 151.619C48.0869 149.751 46.2403 147.877 44.3895 146.052C10.6079 112.759 -34.1633 85.5984 -85.0819 67.5087C-145.693 46.06 -208.225 38.4922 -261.159 46.198C-317.837 54.5768 -373.067 90.7795 -363.464 134.659L-363.667 134.683C-366.07 123.707 -364.662 112.893 -359.485 102.541C-354.758 93.0855 -347 84.1872 -336.427 76.0953C-326.596 68.5709 -314.802 62.0748 -301.375 56.7866C-288.604 51.7575 -274.711 48.0419 -261.2 46.0445C-233.34 41.9892 -203.038 42.1055 -171.138 46.3918C-142.404 50.2517 -113.422 57.3093 -84.9958 67.3691C-34.0485 85.4712 10.7495 112.647 44.5516 145.959C46.4044 147.786 48.251 149.659 50.0403 151.529C63.7076 165.82 76.5295 182.377 89.2387 202.145C92.0477 206.503 94.8403 210.981 97.5425 215.314C106.464 229.617 115.689 244.406 127.331 257.907C128.033 258.72 128.751 259.539 129.469 260.339C158.837 292.883 203.354 312.102 254.818 314.459C298.387 316.452 346.314 306.079 401.339 282.743C405.73 280.879 410.295 278.874 414.91 276.783C440.517 265.194 465.25 251.886 491.435 237.797C513 226.194 535.3 214.196 558.12 203.258C618.982 174.219 672.313 157.749 725.963 151.425C742.833 149.399 756.8 148.75 769.922 149.388C786.696 150.202 801.479 153.117 815.122 158.302C841.818 168.492 863.978 185.938 885.408 202.809C891.295 207.442 896.855 211.82 902.485 216.032C957.975 257.537 1014.16 302.323 1074.25 352.951L1074.1 353.055Z" fill="#FFE492"/>
<path d="M1071.93 351.594C1012.41 300.417 957.219 255.111 903.204 213.086C897.615 208.737 892.091 204.183 886.244 199.358C865.407 182.174 843.861 164.404 817.412 154.443C785.615 142.519 751.279 146.41 728.219 150.374C665.629 161 609.538 185.704 562.926 208.471C546.173 216.686 529.463 225.389 513.3 233.805C480.879 250.689 450.257 266.635 418.113 279.693C413.386 281.614 408.683 283.455 404.132 285.165C377.759 295.058 353.505 301.924 329.982 306.155C303.316 310.952 277.794 312.158 254.117 309.739C229.795 307.253 207.011 301.075 186.402 291.375C164.786 281.202 146.108 267.386 130.884 250.31C130.174 249.508 129.457 248.688 128.758 247.872C117.399 234.612 108.055 220.222 99.0164 206.306C96.0555 201.745 92.9922 197.03 89.9144 192.442C76.5261 172.434 63.8108 156.496 49.9013 142.282C48.0896 140.431 46.2203 138.576 44.3429 136.766C10.1243 103.789 -34.9835 77.0227 -86.1031 59.361C-147.117 38.362 -209.821 31.3261 -262.664 39.5514C-319.546 48.5226 -373.647 84.2337 -365.722 128.469L-365.926 128.49C-367.891 117.515 -366.19 106.712 -360.872 96.3825C-355.997 86.9181 -348.193 78.0105 -337.676 69.9093C-327.868 62.3539 -316.135 55.8097 -302.803 50.4549C-290.108 45.356 -276.241 41.5333 -262.705 39.3979C-234.876 35.0666 -204.544 34.9084 -172.549 38.9265C-143.746 42.5429 -114.632 49.3709 -86.0169 59.2198C-34.8665 76.8908 10.2659 103.673 44.5009 136.67C46.3783 138.481 48.2496 140.337 50.0634 142.189C63.9811 156.41 76.7005 172.356 90.0949 192.372C93.1727 196.961 96.2361 201.677 99.1969 206.237C108.233 220.149 117.575 234.534 128.926 247.789C129.626 248.604 130.34 249.423 131.05 250.225C160.646 283.418 204.36 304.499 254.142 309.585C298.79 314.148 347.821 306.113 404.039 285.026C408.588 283.317 413.291 281.478 418.015 279.556C450.151 266.502 480.768 250.558 513.183 233.677C529.346 225.261 546.058 216.556 562.813 208.339C594.157 193.031 620.232 181.721 644.867 172.747C673.867 162.183 701.116 154.815 728.172 150.222C744.664 147.387 759.039 146.103 772.12 146.299C788.962 146.55 803.807 149.168 817.503 154.304C843.986 164.277 865.544 182.058 886.393 199.253C892.241 204.076 897.763 208.63 903.35 212.975C957.369 255.003 1012.56 300.312 1072.09 351.49L1071.93 351.594Z" fill="#FFE492"/>
<path d="M1069.75 350.132C1010.81 298.401 956.607 252.573 904.055 210.026C898.544 205.565 893.09 200.852 887.316 195.861C867.03 178.331 846.054 160.205 819.786 150.446C787.64 138.55 753.396 144.019 730.434 149.169C673.725 161.779 623.143 185.788 567.612 213.551C557.597 218.577 547.467 223.764 537.67 228.783C499.99 248.08 461.029 268.034 421.201 282.469C416.362 284.224 411.52 285.901 406.811 287.451C380.26 296.185 354.588 302.181 330.505 305.271C303.224 308.773 277.288 308.635 253.413 304.863C229.431 301.075 206.924 293.651 186.517 282.799C165.865 271.817 147.673 257.483 132.449 240.196C131.745 239.393 131.035 238.571 130.339 237.755C119.323 224.805 109.919 210.884 100.826 197.421C97.5489 192.571 94.1613 187.555 90.7572 182.675C76.8457 162.687 63.8658 146.887 49.9091 132.948C48.0768 131.118 46.1809 129.279 44.2768 127.483C9.63138 94.8164 -35.8087 68.444 -87.1336 51.2134C-148.547 30.6642 -211.422 24.1618 -264.179 32.905C-319.255 42.1321 -374.355 76.5902 -367.992 122.279L-368.195 122.294C-369.724 111.32 -367.73 100.529 -362.27 90.223C-357.249 80.7478 -349.398 71.8324 -338.938 63.7219C-319.638 48.7601 -292.406 37.4721 -264.224 32.7515C-236.428 28.1457 -206.063 27.7115 -173.972 31.4613C-145.098 34.8357 -115.855 41.4327 -87.0515 51.0707C-35.6979 68.3106 9.76886 94.7001 44.4368 127.383C46.343 129.18 48.2389 131.019 50.0732 132.851C64.0361 146.797 77.0222 162.604 90.9378 182.599C94.3418 187.481 97.7314 192.496 101.008 197.347C110.1 210.806 119.502 224.724 130.512 237.669C131.205 238.484 131.915 239.305 132.619 240.108C163.079 274.693 204.862 297.032 253.452 304.71C298.445 311.819 350.012 305.964 406.725 287.309C411.432 285.758 416.27 284.083 421.106 282.329C460.92 267.899 499.877 247.949 537.549 228.654C547.346 223.636 557.476 218.448 567.493 213.422C591.801 201.269 620.086 187.329 648.157 175.691C677.521 163.517 704.413 154.794 730.371 149.022C746.712 145.357 761.085 143.456 774.307 143.211C790.982 142.901 806.309 145.289 819.87 150.308C831.637 154.679 843.481 161.203 856.077 170.254C867.2 178.245 877.502 187.149 887.466 195.759C893.238 200.748 898.692 205.461 904.201 209.921C956.755 252.469 1010.96 298.299 1069.9 350.031L1069.75 350.132Z" fill="#FFE492"/>
<path d="M1067.58 348.671C1009.21 296.382 956.003 250.031 904.912 206.969C899.502 202.41 894.142 197.554 888.469 192.415C868.712 174.521 848.284 156.017 822.166 146.45C797.759 137.538 768.479 138.034 732.654 147.967C682.564 161.777 637.789 184.875 590.383 209.332C584.48 212.378 578.378 215.526 572.304 218.636C569.926 219.856 567.546 221.08 565.168 222.302C519.999 245.515 473.293 269.519 424.297 285.247C419.343 286.838 414.366 288.35 409.501 289.74C382.367 297.483 355.97 302.411 331.044 304.387C303.133 306.598 276.781 305.119 252.725 299.989C229.117 294.954 206.887 286.285 186.654 274.223C167.042 262.532 149.339 247.681 134.034 230.082C133.337 229.277 132.633 228.453 131.941 227.636C121.344 215.092 111.971 201.732 102.904 188.813C99.233 183.58 95.4351 178.17 91.6207 172.903C77.1716 152.929 63.929 137.265 49.9395 123.609C48.0805 121.795 46.1621 119.974 44.2333 118.195C9.14883 85.8447 -36.6278 59.8647 -88.1537 43.0652C-149.966 22.9673 -213.015 16.9968 -265.683 26.258C-319.747 35.8433 -374.77 70.5836 -370.25 116.089L-370.455 116.102C-371.544 105.125 -369.259 94.3476 -363.657 84.0676C-358.488 74.5815 -350.593 65.6553 -340.188 57.5385C-320.97 42.5457 -293.833 31.0902 -265.731 26.1076C-237.965 21.2257 -207.569 20.5155 -175.384 23.9985C-146.44 27.128 -117.064 33.4954 -88.0717 42.9225C-36.517 59.7329 9.28836 85.7269 44.3872 118.095C46.3159 119.873 48.2385 121.697 50.0975 123.511C64.0931 137.175 77.3439 152.844 91.7971 172.826C95.6136 178.092 99.4095 183.504 103.082 188.737C112.145 201.653 121.518 215.01 132.112 227.549C132.803 228.367 133.505 229.189 134.203 229.993C165.323 265.779 206.325 289.929 252.779 299.835C298.635 309.615 351.339 306.167 409.427 289.591C414.288 288.202 419.263 286.691 424.214 285.102C473.194 269.38 519.892 245.38 565.051 222.17C567.431 220.946 569.809 219.724 572.187 218.504C578.261 215.394 584.363 212.246 590.266 209.202C637.682 184.74 682.47 161.635 732.582 147.82C748.767 143.332 763.136 140.815 776.508 140.122C793.245 139.255 808.636 141.337 822.254 146.309C833.951 150.594 845.647 157.148 858.009 166.345C868.915 174.46 878.936 183.537 888.627 192.314C894.3 197.452 899.658 202.306 905.066 206.864C956.159 249.927 1009.37 296.279 1067.74 348.57L1067.58 348.671Z" fill="#FFE492"/>
<path d="M1065.4 347.21C1012.13 298.485 958.419 250.271 905.764 203.911C900.403 199.218 895.09 194.177 889.466 188.841C871.174 171.481 850.44 151.807 824.538 142.454C799.846 133.557 770.515 134.967 734.866 146.762C692.479 160.741 654.969 181.295 615.256 203.055C602.819 209.869 589.959 216.917 576.987 223.716C554.345 235.609 529.852 248.193 504.177 259.655C476.68 271.931 451.56 281.209 427.379 288.023C422.298 289.455 417.185 290.802 412.176 292.026C384.468 298.792 357.353 302.642 331.584 303.47C303.057 304.385 276.289 301.575 252.02 295.112C207.203 283.028 168.034 257.746 135.6 219.966C134.909 219.16 134.211 218.335 133.523 217.517C123.463 205.527 114.255 192.877 105.35 180.643C101.158 174.885 96.8242 168.93 92.4641 163.135C77.4651 143.166 63.9557 127.64 49.9498 114.273C48.0642 112.475 46.1211 110.671 44.1698 108.911C8.65851 76.872 -37.4547 51.2874 -89.1817 34.9175C-151.394 15.2692 -214.613 9.83379 -267.196 19.6114C-321.588 29.7829 -375.231 64.0626 -372.517 109.9L-372.722 109.906C-373.372 98.927 -370.791 88.1616 -365.052 77.9079C-359.734 68.4094 -351.793 59.4739 -341.448 51.351C-331.702 43.6979 -320.15 37.0064 -307.114 31.4608C-294.459 26.0781 -281.046 22.0399 -267.247 19.4594C-239.512 14.3031 -209.083 13.3168 -176.804 16.5316C-147.791 19.4206 -118.285 25.557 -89.1037 34.7733C-37.3459 51.1525 8.79388 76.7526 44.3257 108.807C46.277 110.569 48.2242 112.374 50.1098 114.173C64.1219 127.546 77.6374 143.079 92.6425 163.054C97.0027 168.851 101.336 174.806 105.528 180.566C114.433 192.798 123.64 205.446 133.696 217.432C134.381 218.251 135.081 219.074 135.77 219.881C168.179 257.631 207.314 282.893 252.087 294.964C298.207 307.246 353.543 306.18 412.113 291.877C417.117 290.653 422.23 289.307 427.307 287.877C481.371 272.644 530.837 247.765 576.868 223.587C589.84 216.789 602.698 209.742 615.135 202.928C654.856 181.163 692.374 160.604 734.782 146.619C770.486 134.806 799.875 133.396 824.624 142.313C836.225 146.502 847.744 153.067 859.84 162.383C870.505 170.597 880.225 179.823 889.626 188.743C895.251 194.079 900.561 199.119 905.92 203.809C958.577 250.17 1012.29 298.384 1065.56 347.111L1065.4 347.21Z" fill="#FFE492"/>
<path d="M1063.23 345.749C1010.77 296.754 958.079 248.004 906.621 200.853C901.428 196.109 896.276 190.979 890.82 185.548C872.977 167.784 852.752 147.649 826.915 138.455C801.928 129.573 772.543 131.897 737.083 145.554C699.931 159.843 665.796 180.018 632.786 199.532C616.234 209.316 599.117 219.433 581.677 228.795C554.149 243.586 530.988 254.869 508.785 264.306C481.407 275.941 455.79 284.607 430.472 290.798C425.275 292.069 420.022 293.251 414.862 294.31C387.974 299.826 361.571 302.618 336.313 302.619C334.91 302.619 333.514 302.61 332.119 302.593C302.917 302.233 275.734 298.074 251.326 290.233C239.544 286.428 228.006 281.597 217.035 275.875C206.723 270.497 196.589 264.162 186.914 257.047C169.508 244.247 153.237 228.807 137.175 209.849C136.486 209.033 135.799 208.216 135.115 207.396C125.796 196.21 116.979 184.517 108.454 173.209C103.531 166.682 98.4427 159.931 93.3172 153.361C77.5364 133.117 64.1687 118.18 49.9679 104.932C48.0576 103.15 46.0899 101.363 44.114 99.6204C8.17178 67.8994 -38.2758 42.7087 -90.2039 26.7684C-152.814 7.57139 -216.206 2.66942 -268.702 12.9634C-322.075 23.459 -375.648 57.9993 -374.776 103.708L-374.981 103.71C-375.388 82.4193 -364.224 62.174 -342.698 45.1636C-332.968 37.4749 -321.478 30.7352 -308.543 25.1277C-295.957 19.672 -282.571 15.5284 -268.753 12.8114C-241.051 7.3791 -210.59 6.11832 -178.216 9.06478C-149.133 11.7119 -119.496 17.6188 -90.128 26.6226C-38.1671 42.5738 8.30722 67.78 44.2719 99.5196C46.2479 101.264 48.2197 103.052 50.1299 104.834C64.3369 118.09 77.7109 133.032 93.4957 153.283C98.6212 159.855 103.712 166.606 108.632 173.133C117.158 184.44 125.972 196.131 135.29 207.314C135.973 208.134 136.658 208.951 137.348 209.765C171.478 250.051 208.787 276.326 251.406 290.09C310.435 309.053 372.846 302.771 414.808 294.161C419.965 293.102 425.213 291.922 430.409 290.65C488.638 276.411 541.773 250.047 581.558 228.669C598.996 219.31 616.111 209.193 632.661 199.411C665.679 179.894 699.82 159.713 736.991 145.418C752.858 139.306 767.219 135.553 780.892 133.947C797.755 131.965 813.269 133.435 827.001 138.317C838.572 142.434 849.98 149.053 861.879 158.55C872.362 166.918 881.829 176.342 890.984 185.457C896.438 190.886 901.588 196.015 906.779 200.755C958.238 247.906 1010.93 296.656 1063.39 345.651L1063.23 345.749Z" fill="#FFE492"/>
<path d="M1061.05 344.288L907.479 197.796C902.464 193.012 897.483 187.806 892.209 182.296C874.808 164.112 855.083 143.502 829.296 134.46C804.358 125.717 774.081 129.044 739.304 144.352C705.871 159.067 675.379 178.637 645.89 197.562C626.668 209.898 606.792 222.654 586.37 233.88C524.989 267.621 471.345 287.55 417.552 296.599C395.236 300.352 373.222 302.241 351.873 302.241C345.401 302.241 338.995 302.067 332.657 301.72C302.766 300.082 275.169 294.577 250.635 285.359C227.896 276.814 207.094 264.752 187.048 248.482C171.039 235.489 155.694 220 138.756 199.736C129.816 189.042 121.159 177.931 112.788 167.186C93.8408 142.87 74.2498 117.725 49.9949 95.5959C12.7909 61.6543 -36.043 35.0368 -91.2274 18.6204C-154.233 -0.123739 -217.797 -4.4938 -270.208 6.31661C-320.95 16.7827 -376.023 49.7862 -377.037 97.5189L-377.242 97.5158C-376.789 76.1803 -365.276 55.9381 -343.949 38.9773C-324.666 23.6418 -298.496 11.9893 -270.261 6.16618C-242.59 0.459351 -212.095 -1.07746 -179.629 1.60072C-150.476 4.00441 -120.708 9.68332 -91.1514 18.4762C-63.8455 26.5991 -37.9122 37.2917 -14.0698 50.2576C9.97165 63.3322 31.5796 78.5514 50.1509 95.4936C74.416 117.631 94.0132 142.781 112.964 167.103C121.336 177.847 129.992 188.957 138.93 199.649C163.643 229.216 198.684 265.661 250.727 285.216C310.411 307.642 374.365 303.7 417.507 296.444C471.273 287.401 524.892 267.48 586.249 233.751C606.662 222.529 626.537 209.774 645.756 197.441C675.251 178.512 705.752 158.939 739.201 144.216C774.038 128.882 804.38 125.551 829.382 134.317C840.928 138.366 852.231 145.042 863.939 154.73C874.244 163.258 883.462 172.889 892.376 182.203C897.649 187.713 902.629 192.916 907.641 197.699L1061.22 344.19L1061.05 344.288Z" fill="#FFE492"/>
<path d="M1059.82 333.027C1020.71 292.238 987.156 259.14 954.223 228.868C938.237 214.162 921.911 199.687 905.697 185.845C900.793 181.658 895.934 177.204 890.791 172.488C877.864 160.635 864.496 148.38 849.114 139.284C840.855 134.392 832.904 130.888 824.807 128.575C799.953 121.402 770.792 126.145 738.137 142.671C721.236 151.211 705.848 160.93 693.024 169.31C679.447 178.182 666.054 187.966 653.101 197.427C634.484 211.028 615.234 225.09 594.539 237.167C581.947 244.538 569.182 251.124 556.598 256.744C531.422 267.987 504.4 277.252 476.281 284.28C458.908 288.574 441.451 291.82 424.398 293.925C409.701 295.734 394.977 296.777 380.632 297.027C359.164 297.402 338.247 295.971 318.463 292.769C297.428 289.363 277.521 283.928 259.296 276.611C243.046 270.087 227.696 261.873 212.371 251.496C183.813 232.177 161.036 209.838 144.383 192.535C136.202 183.995 128.214 175.285 120.489 166.863C98.2451 142.608 77.2342 119.698 50.9419 99.2916C29.498 82.7573 5.03189 68.4886 -21.7837 56.8796C-42.3904 47.958 -64.8026 40.6617 -88.3968 35.1921C-94.0168 33.891 -99.7435 32.6783 -105.413 31.5912C-129.821 26.9187 -157.3 23.8761 -187.082 22.5471C-217.109 21.1762 -243.087 22.3626 -266.497 26.1775C-279.731 28.3175 -292.553 31.675 -304.612 36.1551C-347.184 51.973 -374.52 78.5268 -377.738 107.188L-377.994 107.171C-377.136 99.5304 -374.619 92.0045 -370.513 84.7996C-366.613 77.9561 -361.255 71.356 -354.591 65.1824C-341.999 53.5206 -324.755 43.422 -304.725 35.9799C-292.648 31.492 -279.805 28.1299 -266.55 25.9867C-243.116 22.1687 -217.117 20.9808 -187.066 22.3533C-157.267 23.6823 -129.774 26.728 -105.349 31.4036C-99.6737 32.4922 -93.945 33.7049 -88.3209 35.0076C-64.7083 40.4802 -42.2775 47.7828 -21.6544 56.7121C5.17963 68.3289 29.6664 82.61 51.1204 99.1551C77.4292 119.574 98.4442 142.49 120.696 166.752C128.42 175.174 136.407 183.881 144.586 192.42C161.231 209.716 183.998 232.044 212.539 251.351C227.848 261.716 243.181 269.923 259.413 276.439C295.081 290.757 335.861 297.619 380.624 296.833C394.956 296.583 409.67 295.54 424.355 293.733C441.396 291.627 458.84 288.385 476.199 284.094C504.301 277.07 531.307 267.812 556.467 256.575C569.043 250.96 581.799 244.377 594.381 237.012C615.064 224.941 634.31 210.882 652.92 197.286C665.876 187.823 679.27 178.036 692.853 169.161C705.683 160.776 721.08 151.055 737.994 142.508C752.533 135.15 766.611 130.067 779.839 127.398C796.088 124.119 811.249 124.454 824.898 128.393C833.019 130.715 840.992 134.227 849.271 139.131C864.677 148.24 878.053 160.504 890.99 172.364C896.131 177.078 900.99 181.532 905.89 185.716C922.108 199.56 938.437 214.036 954.424 228.745C987.359 259.021 1020.91 292.122 1060.02 332.913L1059.82 333.027Z" fill="#FFE492"/>
<path d="M1058.58 321.762C1022.32 280.283 988.287 245.574 954.541 215.652C938.083 201.036 921.05 186.986 903.916 173.893C899.369 170.419 894.881 166.809 890.129 162.988C875.898 151.545 861.182 139.712 844.699 131.526C836.377 127.374 828.404 124.484 820.317 122.688C789.355 115.809 757.904 128.841 736.969 140.985C722.136 149.564 708.59 159.264 694.87 169.278C682.86 178.042 671.561 187.471 659.598 197.452C641.844 212.268 623.484 227.588 602.707 240.452C590.377 248.126 577.51 254.762 564.462 260.174C540.158 270.257 513.544 278.087 483.099 284.114C466.06 287.485 448.611 289.887 431.236 291.25C416.576 292.387 401.942 292.793 387.739 292.454C366.609 291.954 345.955 289.709 326.348 285.781C305.756 281.654 286.107 275.625 267.95 267.86C252.042 261.058 236.682 252.619 220.992 242.061C192.496 222.914 168.085 201.687 150.004 185.333C143.311 179.278 136.725 173.187 130.354 167.294C104.983 143.828 81.0191 121.661 51.887 102.987C30.1149 89.0299 5.67123 77.2285 -20.7606 67.9115C-40.7599 60.8617 -61.9576 55.5798 -85.562 51.7634C-91.0096 50.8841 -96.5517 50.0916 -102.032 49.4077C-126.104 46.4194 -151.796 45.2889 -182.879 44.1196C-205.285 43.2341 -234.616 42.651 -262.794 46.0348C-276.139 47.6073 -289.039 50.3382 -301.139 54.1484C-343.739 67.5673 -372.638 91.0087 -378.444 116.857L-378.748 116.818C-377.209 109.964 -374.09 103.241 -369.484 96.8349C-365.093 90.7311 -359.323 84.8785 -352.337 79.4353C-339.059 69.0948 -321.397 60.2755 -301.258 53.9329C-289.136 50.1149 -276.211 47.3793 -262.843 45.8038C-234.639 42.4153 -205.285 43 -182.865 43.8855C-151.771 45.0547 -126.072 46.1852 -101.983 49.1751C-96.4983 49.8606 -90.9522 50.653 -85.4984 51.5323C-61.8714 55.3534 -40.6533 60.64 -20.6313 67.6975C5.82718 77.0238 30.2913 88.8345 52.086 102.805C81.2386 121.494 105.212 143.667 130.592 167.142C136.961 173.034 143.547 179.125 150.24 185.178C168.317 201.526 192.717 222.745 221.197 241.883C236.869 252.43 252.213 260.86 268.102 267.654C303.804 282.921 344.061 291.185 387.749 292.218C401.94 292.556 416.559 292.151 431.205 291.014C448.564 289.653 465.998 287.254 483.021 283.884C513.441 277.864 540.033 270.04 564.317 259.967C577.348 254.561 590.199 247.934 602.514 240.267C623.272 227.414 641.624 212.1 659.373 197.292C671.339 187.307 682.641 177.877 694.658 169.107C708.385 159.087 721.937 149.384 736.785 140.796C750.355 132.923 763.742 127.259 776.572 123.959C792.129 119.958 806.878 119.454 820.408 122.46C828.523 124.263 836.525 127.163 844.872 131.327C861.383 139.529 876.111 151.372 890.355 162.825C895.105 166.644 899.594 170.253 904.137 173.725C921.278 186.823 938.315 200.878 954.779 215.498C988.532 245.428 1022.57 280.144 1058.83 321.631L1058.58 321.762Z" fill="#FFE492"/>
<path d="M1057.34 310.497C1023.41 267.766 989.888 232.419 954.865 202.438C937.932 187.912 920.193 174.289 902.141 161.943C898.284 159.303 894.312 156.503 890.47 153.795C874.608 142.608 858.205 131.041 840.297 123.769C831.89 120.333 823.89 118.053 815.841 116.802C784.944 111.996 755.266 126.384 735.811 139.299C722.623 148.017 710.569 157.898 698.91 167.456L696.727 169.245C686.142 177.916 676.213 187.425 665.699 197.494C648.958 213.528 631.649 230.105 610.882 243.737C598.799 251.726 585.829 258.412 572.332 263.607C548.799 272.665 522.61 279.128 489.918 283.948C473.012 286.44 455.572 287.997 438.078 288.574C423.454 289.038 408.911 288.805 394.847 287.879C352.272 285.089 312.49 275.41 276.608 259.109C261.096 252.063 245.726 243.402 229.621 232.627C202.366 214.432 178.125 195.729 155.635 178.133C152.619 175.774 149.636 173.431 146.675 171.106C115.957 146.993 86.9435 124.217 52.8459 106.687C30.5855 95.2427 6.16647 85.9102 -19.7299 78.9473C-38.7422 73.8359 -59.3469 70.3653 -82.7174 68.3369C-87.9845 67.8825 -93.3418 67.5088 -98.6418 67.2265C-111.975 66.5287 -126.116 66.4155 -141.088 66.2961C-153.114 66.1999 -165.548 66.1007 -178.67 65.6959C-204.012 64.8477 -232.734 63.8877 -259.088 65.8975C-272.685 66.935 -285.663 69.0378 -297.662 72.1487C-340.246 83.1902 -370.708 103.522 -379.147 126.537L-379.494 126.464C-377.27 120.396 -373.552 114.477 -368.445 108.871C-363.562 103.51 -357.381 98.4017 -350.077 93.6889C-336.106 84.6758 -318.021 77.1391 -297.781 71.8913C-285.756 68.7727 -272.751 66.6652 -259.127 65.6261C-232.746 63.6148 -204.01 64.5763 -178.658 65.4245C-165.544 65.8277 -153.11 65.9285 -141.088 66.0247C-126.11 66.1441 -111.964 66.2573 -98.6192 66.9567C-93.3152 67.2405 -87.9517 67.6142 -82.6805 68.0686C-59.2812 70.0986 -38.652 73.5738 -19.6129 78.6929C6.31418 85.6636 30.7599 95.007 53.045 106.464C87.1733 124.01 116.201 146.797 146.931 170.92C149.892 173.245 152.877 175.587 155.892 177.947C178.378 195.54 202.61 214.238 229.857 232.427C245.945 243.189 261.299 251.843 276.792 258.88C312.628 275.16 352.358 284.826 394.878 287.613C408.925 288.537 423.454 288.769 438.061 288.306C455.537 287.729 472.961 286.173 489.848 283.684C522.507 278.869 548.666 272.413 572.168 263.368C585.636 258.184 598.581 251.511 610.644 243.535C631.384 229.921 648.683 213.352 665.414 197.328C675.932 187.255 685.867 177.741 696.46 169.064L698.644 167.274C710.308 157.712 722.369 147.825 735.57 139.097C755.088 126.14 784.87 111.71 815.911 116.538C823.997 117.796 832.028 120.083 840.465 123.533C858.412 130.82 874.833 142.4 890.713 153.6C894.552 156.307 898.524 159.108 902.379 161.746C920.44 174.098 938.188 187.729 955.13 202.263C990.167 232.256 1023.7 267.615 1057.64 310.361L1057.34 310.497Z" fill="#FFE492"/>
<path d="M1056.1 299.23C1024.94 255.854 990.989 218.841 955.183 189.225C937.775 174.79 919.331 161.592 900.364 149.995C897.624 148.32 894.819 146.582 892.105 144.901C874.178 133.796 855.639 122.311 835.895 116.014C827.418 113.284 819.396 111.616 811.363 110.916C780.552 108.23 752.639 123.95 734.646 137.61C723.474 146.05 713.389 155.435 703.637 164.512C701.95 166.083 700.264 167.65 698.575 169.212C689.298 177.791 680.625 187.375 671.443 197.52C655.833 214.767 639.691 232.601 619.049 247.023C606.927 255.492 594.218 262.04 580.192 267.042C550.854 277.505 521.536 281.378 496.727 283.788C479.947 285.416 462.514 286.129 444.909 285.903C430.331 285.693 415.876 284.82 401.948 283.31C360.65 278.842 321.39 267.757 285.259 250.362C270.226 243.126 254.847 234.24 238.241 223.197C221.468 212.069 205.837 201.361 190.719 191.005C180.445 183.966 170.74 177.318 161.262 170.94C125.437 146.828 92.6219 125.629 53.8031 110.391C31.0646 101.467 6.6702 94.5999 -18.7029 89.9833C-36.8884 86.6739 -56.3276 85.0627 -79.8766 84.9091C-84.957 84.8812 -90.1317 84.9262 -95.2552 85.0441C-103.038 85.2348 -111.089 85.6334 -119.611 86.0567C-135.964 86.8678 -154.502 87.7874 -174.471 87.2725C-182.075 87.0756 -189.833 86.798 -197.337 86.5282C-216.636 85.835 -236.592 85.1185 -255.393 85.759C-269.2 86.2304 -282.258 87.7067 -294.2 90.1477C-336.712 98.8397 -368.735 116.064 -379.865 136.223L-380.244 136.103C-377.331 130.824 -373.013 125.71 -367.414 120.901C-362.036 116.283 -355.446 111.92 -347.829 107.937C-333.152 100.26 -314.647 94.006 -294.311 89.8484C-282.34 87.4012 -269.254 85.9203 -255.416 85.4488C-236.594 84.8068 -216.63 85.5248 -197.32 86.218C-189.819 86.4878 -182.061 86.7654 -174.458 86.9624C-154.508 87.4772 -135.984 86.5592 -119.639 85.7481C-111.114 85.3248 -103.06 84.9262 -95.2696 84.7355C-90.14 84.6176 -84.9611 84.5726 -79.8746 84.6005C-56.2927 84.7525 -36.8248 86.3684 -18.6085 89.6824C6.79535 94.3053 31.2226 101.18 53.9899 110.117C71.5249 116.999 89.2939 125.719 108.312 136.773C125.339 146.669 141.901 157.496 161.533 170.709C171.011 177.088 180.716 183.737 190.992 190.776C206.107 201.13 221.738 211.838 238.508 222.965C255.097 233.997 270.459 242.874 285.475 250.102C321.557 267.473 360.761 278.543 402.001 283.004C415.913 284.513 430.349 285.385 444.911 285.594C462.496 285.821 479.91 285.109 496.669 283.481C521.447 281.075 550.727 277.208 580.013 266.763C594 261.774 606.677 255.244 618.766 246.797C639.373 232.4 655.503 214.58 671.101 197.346C680.289 187.195 688.966 177.606 698.253 169.018C699.941 167.457 701.626 165.889 703.312 164.319C713.071 155.237 723.162 145.845 734.349 137.395C746.055 128.507 758.064 121.67 770.043 117.074C784.231 111.629 798.147 109.455 811.402 110.612C819.474 111.316 827.535 112.99 836.046 115.732C855.845 122.045 874.406 133.544 892.355 144.663C895.07 146.344 897.875 148.083 900.612 149.756C919.593 161.362 938.052 174.573 955.474 189.019C974.486 204.745 993.107 222.662 1010.81 242.273C1026.47 259.606 1041.82 278.721 1056.45 299.084L1056.1 299.23Z" fill="#FFE492"/>
<path d="M1054.86 287.961C1026.02 243.341 992.598 205.676 955.506 176.011C937.623 161.668 918.475 148.896 898.594 138.047C897.649 137.53 896.703 137.014 895.755 136.496C875.082 125.2 853.706 113.52 831.505 108.261C822.904 106.223 814.855 105.167 806.9 105.031C776.212 104.507 750.043 121.54 733.495 135.921C723.757 144.333 715.112 153.554 706.753 162.471C704.687 164.676 702.549 166.956 700.44 169.177C692.402 177.635 684.932 187.251 677.024 197.433C662.639 215.954 647.765 235.105 627.23 250.308C615.35 259.104 602.538 265.701 588.062 270.478C559.544 279.886 530.586 282.357 503.543 283.625C486.867 284.407 469.441 284.273 451.748 283.23C437.217 282.346 422.854 280.834 409.055 278.737C369.163 272.689 330.424 260.199 293.92 241.613C279.301 234.171 264.351 225.322 246.875 213.766C213.662 191.863 188.999 176.436 166.909 163.746C122.973 138.507 89.4393 123.659 54.7857 114.097C31.5855 107.695 7.21573 103.295 -17.6506 101.019C-34.9025 99.4402 -53.2111 99.5814 -77.0125 101.481C-81.8897 101.875 -86.8798 102.339 -91.8453 102.861C-96.5358 103.362 -101.3 103.936 -106.346 104.542C-124.974 106.783 -146.09 109.323 -170.257 108.849C-182.994 108.599 -196.005 107.915 -208.587 107.255C-222.886 106.504 -237.672 105.727 -251.69 105.622C-265.745 105.516 -278.883 106.366 -290.729 108.149C-333.099 114.525 -366.688 128.644 -380.577 145.918L-380.971 145.737C-377.364 141.249 -372.447 136.939 -366.36 132.928C-360.483 129.054 -353.486 125.439 -345.562 122.181C-330.169 115.85 -311.239 110.879 -290.819 107.807C-278.941 106.02 -265.774 105.167 -251.686 105.273C-237.656 105.378 -222.862 106.155 -208.556 106.907C-195.978 107.568 -182.974 108.252 -170.246 108.501C-146.123 108.974 -125.03 106.437 -106.422 104.2C-101.374 103.592 -96.6056 103.019 -91.913 102.517C-86.9414 101.994 -81.9472 101.531 -77.0659 101.135C-53.2275 99.234 -34.8881 99.0913 -17.5993 100.675C7.30191 102.954 31.7065 107.36 54.9396 113.771C89.6404 123.345 123.209 138.209 167.184 163.47C189.282 176.165 213.953 191.596 247.175 213.506C264.638 225.053 279.571 233.892 294.174 241.326C330.63 259.886 369.311 272.359 409.143 278.397C422.924 280.491 437.27 282 451.781 282.884C469.453 283.926 486.857 284.059 503.512 283.279C530.514 282.012 559.423 279.548 587.875 270.161C602.298 265.404 615.064 258.828 626.904 250.063C647.393 234.892 662.253 215.762 676.622 197.261C684.536 187.073 692.011 177.449 700.06 168.978C702.169 166.759 704.307 164.48 706.374 162.274C714.739 153.35 723.39 144.123 733.144 135.696C743.943 126.31 755.265 118.887 766.794 113.63C780.299 107.472 793.798 104.465 806.908 104.687C814.908 104.823 822.998 105.885 831.641 107.932C853.916 113.21 875.323 124.905 896.024 136.218C896.971 136.736 897.919 137.254 898.863 137.769C918.766 148.631 937.937 161.418 955.841 175.777C992.963 205.468 1026.42 243.162 1055.27 287.814L1054.86 287.961Z" fill="#FFE492"/>
<path d="M513.754 283.464C512.603 283.464 511.468 283.463 510.352 283.458C493.763 283.405 476.343 282.428 458.58 280.552C444.102 278.993 429.829 276.842 416.158 274.161C396.625 270.337 377.021 264.841 357.888 257.827C339.411 251.053 320.803 242.654 302.578 232.861C284.721 223.266 268.042 212.575 255.505 204.333C226.172 185.1 198.262 169.025 172.553 156.552C130.913 136.352 93.8051 124.037 55.77 117.799C32.8242 114.035 8.20621 112.05 -15.4967 112.05C-15.864 112.05 -16.2292 112.05 -16.5965 112.051C-36.959 112.104 -56.2915 114.964 -74.1466 118.047C-78.7941 118.855 -83.6015 119.737 -88.4357 120.672C-91.0846 121.19 -93.7376 121.724 -96.5446 122.288C-116.343 126.275 -138.784 130.793 -166.047 130.422C-182.65 130.195 -199.609 128.896 -216.009 127.638C-226.599 126.826 -237.547 125.987 -247.991 125.48C-262.348 124.783 -275.56 125.007 -287.264 126.146C-329.408 130.247 -364.563 141.263 -381.304 155.617L-381.689 155.361C-373.102 148 -360.186 141.626 -343.299 136.416C-327.172 131.441 -307.817 127.756 -287.329 125.763C-275.595 124.622 -262.348 124.396 -247.958 125.095C-237.504 125.602 -226.549 126.443 -215.956 127.255C-199.566 128.513 -182.617 129.812 -166.036 130.037C-138.843 130.408 -116.441 125.897 -96.6759 121.917C-93.8669 121.351 -91.2139 120.818 -88.5629 120.3C-83.7246 119.365 -78.9131 118.481 -74.2615 117.673C-56.3756 114.585 -37.0103 111.721 -16.5985 111.667C7.4819 111.603 32.5411 113.594 55.8788 117.423C75.5088 120.644 94.5396 125.385 114.055 131.917C132.85 138.208 152.075 146.161 172.828 156.23C198.558 168.712 226.488 184.8 255.839 204.045C268.366 212.282 285.033 222.966 302.872 232.549C339.852 252.421 378.01 266.296 416.285 273.791C429.938 276.469 444.192 278.617 458.65 280.173C476.39 282.047 493.785 283.024 510.352 283.075C536.275 283.156 566.376 282.495 595.733 273.555C610.593 269.03 623.448 262.413 635.034 253.327C655.383 237.369 668.871 216.888 681.919 197.08C688.631 186.892 694.969 177.268 701.861 168.937C704.069 166.268 706.297 163.518 708.452 160.859C715.731 151.874 723.258 142.585 731.929 133.998C741.839 124.12 752.474 116.107 763.536 110.183C776.362 103.314 789.436 99.4716 802.397 98.7614C810.397 98.3225 818.517 98.7707 827.221 100.132C850.491 103.77 873.555 114.34 897.102 125.78C917.633 135.755 938.067 148.464 956.195 162.534C976.33 178.117 995.25 196.399 1012.43 216.871C1027.73 235.11 1041.75 255.186 1054.09 276.543L1053.62 276.698C1027.11 230.833 994.214 192.513 955.828 162.805C937.727 148.755 917.325 136.065 896.825 126.108C873.319 114.688 850.3 104.138 827.116 100.512C818.459 99.1584 810.385 98.7133 802.434 99.1491C778.619 100.456 753.724 112.915 732.337 134.234C723.682 142.805 716.162 152.086 708.889 161.062C706.734 163.723 704.504 166.474 702.296 169.143C695.416 177.458 689.082 187.075 682.379 197.254C675.977 206.973 669.358 217.023 661.762 226.684C653.15 237.637 644.53 246.44 635.406 253.596C623.768 262.723 610.856 269.369 595.926 273.916C582.76 277.926 568.608 280.577 552.663 282.022C539.16 283.239 525.597 283.464 513.754 283.464Z" fill="#FFE492"/>
<path d="M546.656 284.241C536.194 284.241 526.144 283.769 517.153 283.292C500.621 282.414 483.209 280.592 465.403 277.875C450.987 275.643 436.805 272.855 423.25 269.584C386.134 260.647 349.49 245.771 311.226 224.108C294.538 214.662 278.806 204.499 264.128 194.899C235.147 176.003 206.237 160.682 178.194 149.358C136.952 132.704 98.3652 123.851 56.7579 121.497C33.0509 120.155 8.05124 120.703 -15.5409 123.079C-35.2878 125.067 -53.9042 129.865 -71.2833 134.607C-75.6312 135.8 -80.256 137.102 -85.0266 138.478C-86.2187 138.824 -87.4211 139.176 -88.6399 139.531C-108.656 145.38 -131.304 151.999 -160.37 151.999C-160.861 151.999 -161.349 151.997 -161.844 151.993C-181.508 151.842 -201.586 149.721 -221.004 147.668C-228.703 146.853 -236.664 146.013 -244.303 145.332C-259.224 144.005 -272.147 143.612 -283.811 144.136C-326.237 146.044 -362.048 153.761 -382.058 165.312L-382.4 164.973C-372.508 159.263 -358.205 154.305 -341.041 150.636C-324.159 147.027 -304.381 144.633 -283.846 143.71C-272.149 143.184 -259.193 143.577 -244.239 144.907C-236.592 145.588 -228.629 146.43 -220.928 147.243C-201.528 149.293 -181.469 151.413 -161.841 151.563C-132.17 151.793 -109.152 145.064 -88.8471 139.129C-87.6303 138.774 -86.4259 138.422 -85.2338 138.075C-80.4592 136.697 -75.8322 135.395 -71.4803 134.202C-54.0724 129.451 -35.4212 124.646 -15.6209 122.652C8.00818 120.273 33.0489 119.724 56.7949 121.067C77.4138 122.233 97.0726 124.988 116.893 129.485C137.307 134.117 157.444 140.492 178.455 148.978C206.532 160.317 235.48 175.657 264.491 194.572C279.164 204.168 294.885 214.326 311.558 223.762C349.772 245.395 386.36 260.25 423.416 269.173C436.95 272.438 451.114 275.223 465.51 277.451C483.291 280.165 500.679 281.986 517.186 282.86C544.964 284.334 574.514 285.091 603.585 276.938C618.881 272.647 631.826 265.988 643.156 256.58C663.343 239.82 675.906 216.961 686.992 196.791C692.569 186.643 697.838 177.058 703.651 168.887C705.748 165.939 707.859 162.891 709.901 159.945C716.286 150.726 722.889 141.193 730.705 132.29C739.747 121.919 749.695 113.316 760.27 106.723C772.417 99.1502 785.07 94.4731 797.876 92.8246C805.88 91.7934 814.03 91.629 822.787 92.3175C847.256 94.2451 872.114 103.77 895.332 113.777C916.772 123.017 937.937 135.292 956.543 149.277C977.24 164.788 996.31 183.253 1013.22 204.156C1028.34 222.849 1041.69 243.406 1052.9 265.259L1052.37 265.413C1028.55 218.961 995.28 178.906 956.147 149.578C937.578 135.62 916.452 123.367 895.055 114.146C871.892 104.162 847.098 94.6607 822.732 92.7409C814.026 92.0554 805.927 92.2198 797.974 93.2433C774.329 96.2875 750.608 110.237 731.179 132.523C723.378 141.407 716.783 150.93 710.404 160.14C708.362 163.088 706.251 166.136 704.152 169.087C698.351 177.239 693.088 186.815 687.516 196.953C676.411 217.153 663.827 240.05 643.575 256.865C632.181 266.325 619.164 273.021 603.782 277.337C590.432 281.08 576.033 283.248 559.755 283.96C555.354 284.162 550.971 284.241 546.656 284.241Z" fill="#FFE492"/>
<path d="M567.312 285.92C567.162 285.92 567.015 285.92 566.865 285.92C552.079 285.892 537.562 284.525 523.959 283.126C507.452 281.429 490.05 278.76 472.234 275.197C457.883 272.295 443.791 268.867 430.352 265.008C394.719 254.793 359.618 239.017 319.884 215.357C305.575 206.839 291.493 197.666 277.873 188.797C276.17 187.687 274.465 186.578 272.76 185.469C243.63 166.578 213.716 152.008 183.851 142.167C142.956 128.692 101.712 123.141 57.7611 125.195C33.6622 126.323 8.68512 129.404 -14.4699 134.106C-32.7396 137.817 -49.0189 143.771 -68.4048 151.168C-72.334 152.674 -76.53 154.299 -81.6063 156.284L-81.8895 156.395C-91.683 160.251 -102.783 164.619 -115.234 167.941C-129.533 171.756 -143.406 173.592 -157.631 173.57C-179.814 173.528 -202.452 170.408 -224.343 167.389C-229.706 166.649 -235.255 165.885 -240.61 165.193C-255.968 163.213 -268.968 162.212 -280.354 162.136C-322.277 161.857 -359.625 166.553 -382.819 175.017L-383.086 174.598C-371.725 170.452 -356.4 167.086 -338.768 164.866C-321.104 162.64 -300.901 161.536 -280.348 161.673C-268.929 161.749 -255.896 162.75 -240.505 164.735C-235.146 165.427 -229.598 166.192 -224.232 166.931C-202.368 169.946 -179.758 173.063 -157.629 173.105C-157.531 173.105 -157.43 173.105 -157.332 173.105C-125.678 173.105 -101.563 163.614 -82.1726 155.983L-81.8874 155.871C-76.8091 153.885 -72.6131 152.259 -68.6817 150.754C-49.2631 143.344 -32.955 137.38 -14.6279 133.658C8.5661 128.947 33.5842 125.861 57.7242 124.732C79.2316 123.727 99.5183 124.493 119.747 127.077C141.546 129.86 162.596 134.657 184.097 141.742C214.019 151.602 243.985 166.195 273.162 185.117C274.867 186.226 276.572 187.336 278.275 188.447C291.889 197.312 305.967 206.482 320.264 214.994C359.947 238.625 394.996 254.379 430.569 264.577C443.99 268.431 458.062 271.853 472.392 274.752C490.183 278.311 507.56 280.975 524.041 282.668C553.561 285.705 582.461 287.811 611.453 280.342C627.187 276.288 640.22 269.588 651.294 259.855C671.3 242.274 682.228 217.913 691.871 196.418C696.385 186.355 700.649 176.848 705.459 168.86C707.31 165.787 709.167 162.608 710.962 159.533C716.576 149.918 722.38 139.977 729.498 130.605C737.691 119.735 746.951 110.542 757.018 103.282C768.494 95.0066 780.723 89.4983 793.366 86.9116C801.206 85.3081 809.206 84.5266 817.803 84.5266C817.99 84.5266 818.177 84.5266 818.366 84.5281C845.093 84.6336 872.598 93.811 893.576 101.794C915.923 110.3 937.822 122.142 956.906 136.04C978.167 151.479 997.387 170.126 1014.03 191.463C1028.97 210.61 1041.65 231.65 1051.72 253.999L1051.14 254.15C1036.15 220.895 1007.56 173.469 956.479 136.377C937.44 122.51 915.592 110.696 893.299 102.21C872.383 94.2483 844.962 85.0972 818.364 84.9933C809.604 84.9546 801.485 85.733 793.528 87.3614C770.102 92.1548 747.552 107.594 730.032 130.836C722.93 140.187 717.132 150.116 711.524 159.72C709.729 162.797 707.87 165.978 706.019 169.053C701.222 177.021 696.962 186.514 692.454 196.567C682.794 218.101 671.845 242.508 651.762 260.157C640.614 269.955 627.493 276.701 611.653 280.781C598.227 284.238 583.717 285.92 567.312 285.92Z" fill="#FFE492"/>
<path d="M583.73 288.104C580.546 288.104 577.292 288.026 573.959 287.871C559.375 287.193 545.201 285.16 530.756 282.958C514.011 280.406 497.099 276.991 479.055 272.518C464.779 268.948 450.779 264.882 437.444 260.43C403.615 249.153 370.027 232.552 328.536 206.604C318.232 200.161 307.932 193.403 297.97 186.866C292.547 183.309 286.941 179.629 281.387 176.036C251.91 157.017 220.997 143.203 189.505 134.974C147.896 124.102 105.131 122.111 58.7638 128.888C34.2668 132.468 9.31232 138.084 -13.3996 145.126C-31.6446 150.783 -47.5381 158.728 -64.3653 167.139L-65.5287 167.72C-68.1571 169.039 -70.8143 170.375 -73.5042 171.728C-75.0534 172.508 -76.6128 173.292 -78.1866 174.083C-87.9985 179.041 -98.5963 184.213 -110.749 188.194C-124.86 192.815 -138.817 195.088 -153.422 195.144C-177.736 195.234 -202.537 190.963 -226.518 186.829C-229.941 186.238 -233.482 185.629 -236.919 185.05C-253.032 182.336 -265.735 180.775 -276.902 180.133C-318.107 177.765 -356.993 179.433 -383.593 184.712L-383.764 184.225C-357.094 178.933 -318.127 177.258 -276.85 179.63C-265.653 180.274 -252.918 181.84 -236.774 184.559C-233.335 185.139 -229.793 185.748 -226.369 186.339C-202.68 190.422 -178.193 194.642 -154.201 194.642C-153.943 194.642 -153.684 194.642 -153.424 194.64C-122.391 194.522 -100.301 184.65 -78.5538 173.665C-76.9801 172.874 -75.4207 172.089 -73.8715 171.309C-71.1815 169.955 -68.5265 168.62 -65.896 167.3L-64.7326 166.719C-47.8767 158.293 -31.9565 150.335 -13.6519 144.659C9.10098 137.603 34.0986 131.978 58.6387 128.391C105.123 121.597 148.003 123.595 189.725 134.497C221.294 142.747 252.279 156.592 281.822 175.653C287.376 179.247 292.984 182.926 298.407 186.485C308.365 193.02 318.663 199.776 328.961 206.215C370.402 232.133 403.944 248.711 437.713 259.97C451.029 264.414 465.008 268.475 479.265 272.039C497.282 276.505 514.169 279.915 530.889 282.463C556.27 286.333 587.859 291.149 619.315 283.73C635.488 279.917 648.608 273.174 659.423 263.116C679.235 244.693 688.422 218.781 696.528 195.921C700.049 185.99 703.375 176.609 707.257 168.825C708.77 165.791 710.286 162.654 711.751 159.619C716.667 149.442 721.752 138.918 728.281 128.909C735.645 117.534 744.215 107.751 753.754 99.8293C764.564 90.8535 776.37 84.5155 788.845 80.9906C796.851 78.728 805.057 77.3339 813.931 76.7275C825.815 75.9149 838.465 76.7834 852.602 79.3762C864.564 81.5721 877.388 84.9807 891.809 89.799C915.064 97.5699 937.696 108.979 957.258 122.792C979.086 138.158 998.455 156.989 1014.83 178.759C1029.58 198.362 1041.59 219.884 1050.54 242.728L1049.9 242.871C1031.01 194.642 997.947 152.127 956.803 123.161C937.294 109.385 914.726 98.0087 891.538 90.2611C860.469 79.8802 835.83 75.7381 813.99 77.23C805.176 77.8317 797.028 79.2165 789.077 81.462C759.397 89.847 739.958 112.014 728.878 129.131C722.365 139.115 717.287 149.626 712.377 159.791C710.91 162.828 709.393 165.967 707.881 169.001C704.011 176.763 700.69 186.133 697.173 196.051C689.049 218.961 679.843 244.927 659.94 263.434C649.038 273.571 635.814 280.368 619.512 284.213C608.463 286.818 596.68 288.104 583.73 288.104Z" fill="#FFE492"/>
<path d="M597.957 290.607C576.259 290.607 555.398 286.393 537.551 282.789C520.76 279.399 503.857 275.163 485.875 269.839C471.678 265.605 457.769 260.9 444.534 255.852C404.862 240.739 369.494 219.045 337.186 197.852C330.589 193.525 323.925 189.065 317.482 184.753C308.536 178.764 299.284 172.571 290.014 166.604C260.096 147.398 228.184 134.336 195.166 127.781C152.452 119.302 108.163 120.87 59.7684 132.576C34.8508 138.602 9.9209 146.751 -12.3273 156.143C-29.4868 163.385 -44.0057 172.528 -59.376 182.208C-60.4656 182.893 -61.5572 183.582 -62.6549 184.27L-63.2499 184.646C-66.9863 187.001 -70.85 189.436 -74.7669 191.88C-84.1521 197.762 -94.4872 203.846 -106.441 208.493C-120.318 213.889 -134.307 216.579 -149.214 216.719C-175.379 216.965 -202.047 211.406 -227.835 206.029C-229.642 205.652 -231.442 205.277 -233.233 204.906C-250.239 201.38 -262.644 199.29 -273.453 198.127C-313.624 193.806 -354.054 192.448 -384.376 194.4L-384.438 193.859C-354.066 191.902 -313.577 193.262 -273.353 197.588C-262.513 198.755 -250.081 200.85 -233.044 204.382C-231.253 204.753 -229.453 205.128 -227.644 205.507C-201.905 210.872 -175.289 216.418 -149.224 216.176C-116.852 215.872 -94.0543 203.26 -75.2266 191.461C-71.3096 189.017 -67.446 186.583 -63.7096 184.229L-63.1145 183.853C-62.0168 183.163 -60.9252 182.476 -59.8357 181.791C-44.4386 172.094 -29.8951 162.935 -12.6781 155.668C9.61105 146.259 34.5881 138.096 59.5488 132.059C82.4926 126.51 104.043 123.307 125.429 122.264C149.286 121.103 172.809 122.782 195.346 127.256C228.469 133.832 260.476 146.931 290.478 166.19C299.754 172.16 309.008 178.354 317.956 184.345C324.399 188.658 331.059 193.116 337.654 197.441C369.929 218.611 405.254 240.281 444.855 255.367C458.07 260.407 471.959 265.106 486.136 269.333C504.091 274.649 520.968 278.88 537.733 282.265C563.476 287.463 595.513 293.933 627.169 287.125C643.781 283.552 656.987 276.768 667.543 266.384C687.151 247.094 694.488 219.588 700.962 195.318C703.563 185.567 706.02 176.357 709.048 168.794C710.168 165.996 711.293 163.105 712.38 160.309C716.636 149.373 721.037 138.064 727.055 127.219C733.602 115.329 741.484 104.952 750.479 96.3775C760.627 86.7022 772.011 79.5346 784.314 75.073C792.304 72.1762 800.536 70.1679 809.486 68.9319C821.542 67.268 834.92 67.3238 849.249 69.0979C861.796 70.6518 875.516 73.5812 890.029 77.807C914.191 84.8428 937.558 95.8176 957.602 109.545C979.996 124.84 999.517 143.853 1015.62 166.057C1030.18 186.116 1041.52 208.121 1049.35 231.46L1048.65 231.594C1032.07 182.14 999.569 138.938 957.122 109.948C937.141 96.2658 913.853 85.3267 889.772 78.3141C858.558 69.225 832.337 66.3298 809.615 69.467C800.731 70.6936 792.556 72.6879 784.624 75.563C755.352 86.1781 737.521 109.626 727.718 127.428C721.714 138.245 717.319 149.539 713.07 160.461C711.982 163.257 710.856 166.15 709.735 168.95C706.717 176.489 704.263 185.686 701.665 195.425C698.551 207.101 695.022 220.334 689.898 232.74C684.028 246.954 676.902 258.067 668.114 266.714C663.031 271.714 657.192 275.969 650.755 279.362C643.832 283.011 635.963 285.799 627.366 287.648C617.53 289.765 607.658 290.607 597.957 290.607Z" fill="#FFE492"/>
<path d="M610.786 293.353C603.613 293.353 596.097 292.826 588.158 291.773C572.523 289.699 557.557 285.937 544.351 282.62C527.707 278.438 510.328 273.235 492.7 267.158C478.594 262.266 464.775 256.922 451.631 251.271C413.903 235.071 381.4 213.529 345.842 189.098C342.682 186.927 339.473 184.712 336.37 182.569C324.152 174.135 311.518 165.413 298.647 157.172C268.233 137.741 235.323 125.433 200.832 120.588C157.324 114.477 110.202 119.749 60.7788 136.262C35.418 144.735 10.5107 155.417 -11.2491 167.155C-27.6331 175.992 -41.1199 186.412 -55.3987 197.444C-56.8493 198.565 -58.3062 199.69 -59.7712 200.819C-63.4173 203.632 -67.3445 206.651 -71.3395 209.674C-79.7172 216.033 -89.9271 223.28 -102.125 228.79C-115.78 234.959 -129.805 238.068 -144.997 238.293C-172.807 238.707 -201.117 231.747 -228.494 225.017L-229.537 224.761C-242.941 221.467 -257.122 218.139 -269.995 216.119C-309.234 209.961 -350.13 205.685 -385.145 204.08L-385.097 203.5C-350.046 205.107 -309.113 209.385 -269.839 215.549C-256.929 217.576 -242.724 220.909 -229.299 224.207L-228.256 224.463C-200.938 231.178 -172.686 238.121 -145.011 237.71C-113.049 237.235 -90.9756 223.756 -71.8832 209.26C-67.8883 206.239 -63.9651 203.219 -60.319 200.408C-58.854 199.28 -57.3972 198.154 -55.9465 197.035C-41.6431 185.984 -28.1317 175.546 -11.6944 166.679C10.1065 154.918 35.061 144.216 60.469 135.727C83.6569 127.981 106.475 122.643 128.287 119.864C153.208 116.689 177.664 116.739 200.975 120.013C235.598 124.876 268.629 137.228 299.146 156.726C312.027 164.974 324.667 173.699 336.891 182.138C339.994 184.28 343.203 186.494 346.363 188.665C381.886 213.073 414.355 234.591 452.014 250.764C465.14 256.406 478.939 261.742 493.025 266.627C510.627 272.695 527.978 277.89 544.598 282.067C570.65 288.614 603.073 296.76 635.045 290.518C652.098 287.189 665.39 280.364 675.682 269.651C695.074 249.468 700.686 219.046 705.196 194.602C706.952 185.08 708.61 176.087 710.859 168.767C711.567 166.46 712.283 164.083 712.974 161.783C716.565 149.836 720.281 137.481 725.852 125.534C734.455 106.941 750.798 82.0701 779.801 69.1631C787.809 65.5994 796.072 62.9755 805.059 61.1425C828.573 56.2778 856.57 57.8518 888.269 65.8181C913.339 72.1189 937.44 82.6594 957.966 96.3015C980.927 111.524 1000.6 130.719 1016.44 153.359C1023.7 163.743 1030.12 174.834 1035.52 186.324C1040.68 197.298 1044.94 208.695 1048.17 220.197L1047.42 220.318C1033.17 169.636 1001.22 125.748 957.458 96.7373C937.007 83.1464 912.998 72.6461 888.025 66.3686C856.474 58.438 828.626 56.8686 805.26 61.7023C796.339 63.5214 788.139 66.1251 780.191 69.6624C751.387 82.4795 735.138 107.224 726.578 125.724C721.019 137.64 717.312 149.978 713.723 161.91C713.032 164.21 712.318 166.589 711.608 168.898C709.367 176.193 707.709 185.173 705.957 194.681C703.688 206.981 701.116 220.923 696.721 234.081C691.672 249.201 684.993 260.948 676.304 269.992C671.346 275.152 665.548 279.503 659.072 282.924C652.096 286.61 644.075 289.355 635.236 291.08C627.478 292.596 619.375 293.353 610.786 293.353Z" fill="#FFE492"/>
<path d="M622.601 296.253C614.004 296.253 604.937 295.411 595.252 293.722C579.56 290.988 564.462 286.451 551.142 282.447C534.372 277.407 517.003 271.36 499.517 264.473C485.503 258.929 471.776 252.946 458.718 246.689C422.786 229.483 391.968 207.307 359.339 183.832C357.724 182.67 356.11 181.507 354.491 180.344C339.317 169.439 323.629 158.162 307.274 147.741C276.33 128.063 242.423 116.507 206.495 113.393C161.367 109.48 112.679 118.414 61.7807 139.943C36.3214 150.712 10.7657 164.286 -10.1796 178.164C-25.9952 188.642 -38.6797 200.433 -52.109 212.916C-53.6992 214.394 -55.2935 215.877 -56.9001 217.363C-60.1092 220.335 -63.9276 223.86 -67.9246 227.466C-75.3277 234.16 -85.4146 242.668 -97.82 249.068C-111.258 256.001 -125.313 259.536 -140.79 259.869C-153.511 260.109 -167.55 258.625 -183.71 255.33C-197.585 252.501 -211.006 248.804 -225.857 244.617C-239.414 240.748 -253.721 236.752 -266.558 234.112C-304.58 226.293 -344.743 219.447 -385.928 213.759L-385.78 213.149C-344.571 218.839 -304.385 225.692 -266.342 233.514C-253.471 236.161 -239.143 240.163 -225.57 244.036C-200.677 251.056 -169.696 259.796 -140.812 259.249C-107.79 258.535 -86.5677 243.36 -68.5545 227.066C-64.5596 223.463 -60.7432 219.94 -57.5361 216.969C-55.9295 215.483 -54.3353 214 -52.7471 212.524C-39.2953 200.02 -26.5882 188.21 -10.7213 177.697C10.2671 163.791 35.872 150.191 61.3806 139.402C112.433 117.808 161.289 108.851 206.59 112.777C223.958 114.283 241.02 117.78 257.295 123.17C274.758 128.953 291.751 137.062 307.803 147.268C324.177 157.7 339.875 168.983 355.057 179.896C356.676 181.061 358.293 182.222 359.908 183.384C392.505 206.839 423.297 228.993 459.159 246.166C472.199 252.415 485.905 258.39 499.899 263.924C517.36 270.8 534.702 276.839 551.447 281.871C577.764 289.78 610.518 299.623 642.904 293.915C660.447 290.822 673.828 283.956 683.803 272.923C703.023 251.852 706.446 219.662 709.197 193.799C710.182 184.548 711.112 175.811 712.652 168.746C712.971 167.288 713.289 165.823 713.607 164.349C716.483 151.042 719.458 137.281 724.631 123.851C732.014 104.535 746.791 78.3422 775.271 63.2564C783.215 59.0476 791.505 55.8096 800.615 53.3562C813.277 49.9151 827.388 48.2976 842.553 48.5458C856.399 48.7722 871.182 50.5509 886.491 53.8308C912.463 59.3934 937.299 69.4998 958.31 83.0566C981.838 98.2045 1001.66 117.586 1017.23 140.66C1024.38 151.247 1030.56 162.566 1035.62 174.302C1040.46 185.542 1044.29 197.195 1046.98 208.936L1046.17 209.041C1034.42 157.88 1002.2 112.132 957.778 83.528C936.856 70.0301 912.127 59.9656 886.265 54.4247C854.377 47.592 824.856 47.4246 800.888 53.9378C791.848 56.3725 783.622 59.5857 775.739 63.7619C747.456 78.7439 732.763 104.801 725.417 124.022C720.259 137.416 717.288 151.157 714.415 164.447C714.097 165.92 713.779 167.387 713.461 168.845C711.924 175.884 710.997 184.61 710.014 193.847C707.254 219.785 703.821 252.067 684.479 273.274C679.669 278.592 673.918 283.042 667.387 286.499C660.359 290.218 652.185 292.916 643.091 294.519C636.525 295.673 629.725 296.253 622.601 296.253Z" fill="#FFE492"/>
<path d="M633.706 299.273C623.911 299.273 613.533 298.076 602.348 295.672C586.524 292.271 571.332 286.96 557.932 282.275C540.996 276.354 523.635 269.461 506.332 261.791C492.418 255.603 478.784 248.98 465.804 242.108C433.842 225.193 406.526 204.47 377.605 182.529C372.878 178.942 367.988 175.235 363.138 171.589C346.087 158.779 331.527 148.217 315.898 138.309C284.402 118.371 249.5 107.567 212.159 106.196C165.237 104.473 114.977 117.065 62.7784 143.622C36.8471 156.816 11.3139 172.991 -9.11627 189.168C-24.5072 201.356 -36.5392 214.623 -49.277 228.668C-50.8549 230.408 -52.4389 232.154 -54.0332 233.902C-56.873 237.02 -60.6319 241.13 -64.512 245.25C-80.8406 262.631 -102.174 280.526 -136.585 281.441C-137.658 281.467 -138.735 281.479 -139.811 281.479C-166.682 281.479 -194.115 273.442 -222.18 264.467L-223.932 263.903C-237.833 259.418 -250.965 255.183 -263.12 252.1C-308.928 240.482 -353.229 230.675 -386.707 223.429L-386.467 222.795C-352.981 230.043 -308.667 239.852 -262.843 251.475C-250.655 254.566 -237.509 258.807 -223.589 263.297L-221.839 263.861C-192.746 273.164 -164.334 281.462 -136.616 280.783C-102.586 279.877 -81.4315 262.121 -65.224 244.87C-61.346 240.753 -57.5911 236.647 -54.7514 233.53C-53.1571 231.78 -51.5751 230.036 -49.9972 228.296C-37.2389 214.229 -25.1884 200.94 -9.74823 188.714C10.723 172.502 36.3075 156.295 62.29 143.075C86.4053 130.805 110.529 121.384 133.99 115.071C160.908 107.827 187.223 104.62 212.2 105.537C249.734 106.914 284.813 117.771 316.456 137.802C332.108 147.726 346.682 158.299 363.749 171.119C368.602 174.765 373.491 178.474 378.221 182.061C407.113 203.98 434.402 224.682 466.302 241.564C479.264 248.428 492.878 255.04 506.771 261.219C524.049 268.879 541.383 275.762 558.295 281.673C584.842 290.955 617.88 302.505 650.763 297.305C668.737 294.462 682.202 287.555 691.923 276.19C710.901 254.158 712.042 220.157 712.959 192.837C713.258 183.924 713.541 175.503 714.446 168.718L714.467 168.563C716.496 153.37 718.595 137.661 723.407 122.161C727.574 108.641 733.379 96.4865 740.656 86.0313C748.864 74.2439 758.984 64.5919 770.737 57.342C778.599 52.4912 786.917 48.6376 796.165 45.5624C821.15 37.2053 851.768 35.9151 884.708 41.8343C897.965 44.2163 911.042 47.825 923.578 52.5579C936.187 57.3188 947.989 63.1233 958.657 69.8071C982.756 84.8821 1002.73 104.447 1018.03 127.958C1031.78 149.09 1041.38 173.197 1045.79 197.67L1044.93 197.758C1035.49 145.379 1003.84 98.9274 958.101 70.3142C936.71 56.9125 911.261 47.2853 884.51 42.4795C851.756 36.5943 821.331 37.8706 796.52 46.1703C787.344 49.2222 779.094 53.0448 771.291 57.8569C749.348 71.3935 733.085 93.6828 724.258 122.315C719.459 137.774 717.364 153.462 715.337 168.633L715.316 168.788C714.413 175.548 714.13 183.956 713.831 192.858C712.909 220.261 711.765 254.364 692.654 276.551C687.967 282.031 682.257 286.578 675.687 290.064C668.602 293.823 660.278 296.477 650.942 297.955C645.381 298.832 639.65 299.273 633.706 299.273Z" fill="#FFE492"/>
<path d="M-135.945 303.07C-147.961 303.07 -161.046 301.3 -175.813 297.687C-190.485 294.097 -204.996 289.141 -218.493 284.321C-220.937 283.443 -223.362 282.567 -225.771 281.697C-237.762 277.366 -249.088 273.275 -259.674 270.088C-301.882 257.386 -342.115 245.969 -381.024 234.931L-387.471 233.101L-387.147 232.448L-380.7 234.278C-341.788 245.319 -301.55 256.736 -259.333 269.441C-248.719 272.636 -237.378 276.732 -225.373 281.069C-222.966 281.939 -220.541 282.815 -218.099 283.691C-190.393 293.585 -160.957 303.174 -132.408 302.319C-97.3132 301.215 -76.2818 280.553 -61.8819 262.677C-58.1927 258.105 -54.6389 253.549 -51.9551 250.091C-50.4737 248.185 -49.0025 246.281 -47.5354 244.381C-35.368 228.633 -23.8756 213.758 -8.76172 199.733C11.1884 181.223 36.7482 162.406 63.2129 146.751C87.7653 132.226 112.541 120.751 136.856 112.643C164.744 103.343 191.985 98.5171 217.819 98.2985C256.694 97.8611 292.8 107.969 325.121 128.338C343.037 139.644 359.101 151.873 372.455 162.345C379.72 168.044 386.986 173.886 394.013 179.536C418.888 199.536 444.61 220.215 473.457 236.965C486.342 244.449 499.868 251.701 513.654 258.516C530.716 266.932 548.041 274.658 565.154 281.478C591.901 292.138 625.189 305.405 658.632 300.697C677.039 298.106 690.587 291.158 700.052 279.458C718.777 256.427 717.513 220.564 716.496 191.748C716.196 183.226 715.911 175.176 716.253 168.696C717.023 154.086 718.182 137.106 722.198 120.476C725.581 106.384 730.69 93.6353 737.383 82.5845C744.955 70.0838 754.656 59.6037 766.216 51.4342C773.875 46.0205 782.46 41.4255 791.729 37.775C804.955 32.5489 819.796 29.2629 835.843 28.0098C850.871 26.8359 866.715 27.4531 882.935 29.8429C896.615 31.8589 910.097 35.1744 923.01 39.6995C936.002 44.2526 948.116 49.9253 959.011 56.5595C971.573 64.1986 983.123 73.2194 993.339 83.3723C1003.02 92.9917 1011.6 103.72 1018.84 115.258C1032.39 136.843 1041.3 161.447 1044.61 186.407L1043.7 186.477C1036.57 132.878 1005.5 85.7233 958.433 57.1038C936.878 43.9812 910.005 34.5432 882.759 30.5283C849.069 25.5643 817.74 28.2843 792.155 38.3938C782.961 42.0148 774.446 46.5741 766.846 51.9444C745.063 67.3373 730.346 90.4361 723.105 120.602C719.097 137.187 717.942 154.137 717.175 168.724C716.834 175.181 717.117 183.219 717.419 191.729C717.92 205.945 718.488 222.059 716.584 237.637C714.374 255.712 709.224 269.511 700.84 279.822C696.277 285.464 690.61 290.108 683.999 293.626C676.858 297.425 668.38 300.035 658.802 301.383C653.97 302.063 649.142 302.372 644.343 302.372C615.602 302.372 587.753 291.272 564.725 282.094C547.588 275.263 530.235 267.526 513.152 259.098C499.345 252.273 485.8 245.011 472.896 237.516C443.99 220.732 418.242 200.03 393.342 180.012C386.317 174.364 379.053 168.523 371.792 162.828C358.457 152.368 342.416 140.155 324.532 128.872C292.385 108.611 256.491 98.5621 217.834 98.9932C157.126 99.5081 100.552 125.544 63.7833 147.297C37.3719 162.921 11.8634 181.697 -8.04358 200.17C-23.1123 214.153 -34.5883 229.005 -46.7373 244.728C-48.2043 246.628 -49.6776 248.532 -51.159 250.44C-53.8448 253.9 -57.4007 258.459 -61.0919 263.035C-67.1367 270.539 -76.6265 281.463 -89.1961 289.651C-95.3003 293.627 -101.796 296.752 -108.504 298.94C-115.983 301.379 -124.014 302.75 -132.369 303.012C-133.553 303.051 -134.745 303.07 -135.945 303.07Z" fill="#FFE492"/>
<path d="M-132.09 324.66C-144.12 324.66 -157.178 322.754 -171.867 318.865C-187.076 314.839 -202.111 309.179 -214.812 304.171C-218.715 302.63 -222.609 301.067 -226.377 299.555C-236.907 295.329 -246.854 291.336 -256.233 288.076C-289.914 276.368 -323.375 264.937 -355.737 253.882C-366.442 250.225 -377.509 246.444 -388.236 242.772L-387.834 242.1C-377.107 245.773 -366.039 249.553 -355.335 253.21C-322.973 264.266 -289.508 275.698 -255.825 287.408C-246.421 290.677 -236.461 294.673 -225.919 298.905C-222.154 300.417 -218.259 301.979 -214.361 303.52C-188.019 313.901 -157.465 324.89 -128.208 323.855C-92.2865 322.556 -72.1107 299.994 -58.5439 280.483C-55.066 275.485 -51.703 270.467 -49.1628 266.654C-47.8579 264.697 -46.5611 262.741 -45.2664 260.79C-33.6283 243.243 -22.6366 226.67 -7.77716 210.755C11.5492 190.055 37.0885 168.631 64.1318 150.43C101.793 125.191 160.002 94.4051 223.433 91.0663C263.772 88.8859 300.9 98.2433 333.781 118.881C348.554 128.158 363.164 138.858 381.154 153.579C390.246 161.018 399.268 168.729 407.992 176.183C430.692 195.579 454.161 215.635 480.607 232.375C493.419 240.488 506.852 248.376 520.534 255.823C537.1 264.832 554.42 273.401 572.008 281.294C599.025 293.345 632.649 308.346 666.494 304.1C685.051 301.82 699.073 294.633 708.175 282.738C726.642 258.666 722.68 219.282 719.784 190.526C718.972 182.456 718.204 174.834 718.055 168.685C717.718 155.02 717.747 137.002 720.983 118.803C726.568 87.2685 740.264 62.6175 761.691 45.5388C769.201 39.5219 777.815 34.2942 787.288 30.0001C800.765 23.8839 815.971 19.7697 832.486 17.7739C848.045 15.8943 864.419 15.9238 881.156 17.8623C895.279 19.534 909.166 22.5642 922.433 26.866C935.829 31.2113 948.253 36.7475 959.362 43.3212C972.204 50.9169 983.937 59.9687 994.231 70.2271C1003.99 79.9489 1012.54 90.829 1019.64 102.568C1032.98 124.608 1041.2 149.709 1043.43 175.157L1042.46 175.205C1037.66 120.382 1007.16 72.5238 958.763 43.9028C936.82 30.9182 909.207 21.9284 881.01 18.5911C846.248 14.5669 814.015 18.7307 787.793 30.6329C778.395 34.8913 769.854 40.077 762.403 46.0459C741.117 63.0114 727.507 87.5228 721.951 118.903C718.724 137.051 718.697 155.034 719.031 168.673C719.183 174.8 719.949 182.413 720.759 190.472C722.255 205.336 723.95 222.185 722.981 238.634C721.851 257.788 717.285 272.336 709.02 283.109C704.574 288.92 698.952 293.665 692.306 297.213C685.102 301.061 676.472 303.622 666.656 304.829C651.431 306.738 635.045 305.023 616.56 299.584C600.492 294.856 585.097 287.989 571.516 281.932C553.901 274.028 536.559 265.446 519.968 256.425C506.265 248.967 492.813 241.068 479.983 232.945C453.482 216.17 429.986 196.092 407.264 176.677C398.543 169.224 389.524 161.518 380.44 154.085C362.48 139.39 347.898 128.71 333.159 119.455C300.474 98.9349 263.581 89.6334 223.499 91.7998C160.341 95.1262 102.325 125.817 64.7761 150.98C37.7861 169.144 12.3001 190.523 -6.98514 211.18C-21.8036 227.05 -32.7789 243.6 -44.3985 261.121C-45.6932 263.073 -46.99 265.028 -48.2949 266.986C-50.8372 270.802 -54.2022 275.825 -57.6842 280.828C-71.37 300.512 -91.7489 323.275 -128.165 324.592C-129.46 324.637 -130.771 324.66 -132.09 324.66Z" fill="#FFE492"/>
<path d="M-128.155 346.251C-161.026 346.251 -195.515 330.993 -226.09 317.466C-235.485 313.31 -244.359 309.383 -252.792 306.063L-389 252.442L-388.526 251.755L-252.318 305.376C-243.863 308.704 -234.978 312.635 -225.571 316.797C-193.814 330.847 -157.819 346.772 -124.006 345.392C-87.2926 343.896 -67.9519 319.434 -55.2038 298.292C-51.0345 291.377 -47.0088 284.341 -43.1143 277.537C-32.4632 258.927 -21.451 239.684 -6.79465 221.774C4.84341 207.553 19.3007 192.64 35.0137 178.647C52.2513 163.296 70.7076 149.212 89.8657 136.787C110.989 123.089 132.468 111.758 153.703 103.109C177.19 93.544 200.329 87.2991 222.481 84.5465C266.856 79.0335 307.216 87.3999 342.436 109.416C371.705 127.711 396.582 150.333 420.64 172.211C441.581 191.255 463.234 210.945 487.753 227.777C516.075 247.217 546.727 265.158 578.861 281.099C605.936 294.53 639.631 311.247 674.358 307.49C703.688 304.317 720.646 289.485 726.198 262.145C730.922 238.89 726.428 211.303 722.819 189.138C721.588 181.584 720.426 174.449 719.856 168.663C716.708 136.767 718.715 110.437 725.989 88.1691C730.528 74.2757 737.225 61.8913 745.894 51.36C755.577 39.5959 768.009 29.7888 782.844 22.2118C795.678 15.6567 810.141 10.8958 825.836 8.06099C840.775 5.36265 856.505 4.45855 872.587 5.37351C904.216 7.1724 935.156 15.9435 959.704 30.0695C972.828 37.6202 984.743 46.7046 995.117 57.0684C1004.95 66.891 1013.47 77.9247 1020.44 89.8656C1033.56 112.36 1041.1 137.958 1042.24 163.892L1041.21 163.918C1038.79 108.692 1008.09 58.8859 959.081 30.6883C907.038 0.742906 833.159 -2.55247 783.414 22.8553C734.137 48.0243 713.68 95.6996 720.876 168.606C721.444 174.373 722.605 181.499 723.834 189.043C727.452 211.257 731.956 238.902 727.21 262.263C724.625 274.987 719.429 285.213 711.77 292.658C707.461 296.844 702.268 300.265 696.332 302.823C690.014 305.547 682.67 307.375 674.502 308.259C671.164 308.62 667.768 308.802 664.315 308.802C651.731 308.802 638.326 306.396 623.639 301.524C607.093 296.034 591.125 288.113 578.295 281.748C546.118 265.785 515.422 247.821 487.06 228.352C462.485 211.485 440.809 191.771 419.845 172.708C395.818 150.857 370.973 128.263 341.777 110.015C306.793 88.1489 266.71 79.8368 222.641 85.3125C133.496 96.3881 41.6679 164.026 -5.92874 222.183C-20.5461 240.044 -31.544 259.261 -42.1808 277.845C-46.0772 284.653 -50.105 291.694 -54.2784 298.615C-62.7423 312.651 -71.1015 322.701 -80.5851 330.241C-86.5047 334.946 -92.927 338.655 -99.6734 341.265C-107.175 344.167 -115.345 345.817 -123.959 346.169C-125.35 346.223 -126.752 346.251 -128.155 346.251Z" fill="#FFE492"/>
</g>
</svg>
