<svg width="298" height="30" viewBox="0 0 298 30" fill="none" xmlns="http://www.w3.org/2000/svg">
<path d="M279.794 19.0622C279.387 19.0804 278.976 19.0929 278.578 19.1202C278.319 19.1372 278.208 19.0872 278.036 19.0611C277.978 19.052 277.916 19.0338 277.863 19.0361C277.46 19.0542 277.058 19.0747 276.655 19.0952C276.532 19.1395 276.454 19.1986 276.265 19.2202C276.08 19.2407 275.862 19.2407 275.657 19.2509C275.385 19.2634 275.114 19.2759 274.843 19.2873C274.707 19.293 274.596 19.3146 274.551 19.3555C274.543 19.3623 274.633 19.3794 274.683 19.3896C274.847 19.4237 275.007 19.4623 275.188 19.4885C275.361 19.5135 275.574 19.4726 275.759 19.5044C276.174 19.576 276.178 19.5749 276.495 19.5612C276.766 19.5487 277.037 19.5351 277.308 19.526C277.362 19.5237 277.423 19.5408 277.481 19.5499C277.653 19.5749 277.764 19.6317 278.019 19.6101C278.212 19.5931 278.426 19.5897 278.627 19.5806C278.796 19.6135 278.952 19.6511 279.133 19.6772C279.301 19.7022 279.35 19.7215 279.26 19.7545C279.178 19.7852 279.063 19.7977 278.911 19.8C278.775 19.8011 278.64 19.8113 278.504 19.817C278.434 19.8204 278.368 19.8227 278.303 19.8261C278.044 19.8386 278.044 19.8386 277.571 19.7659C277.386 19.7374 277.177 19.7772 277 19.75C276.881 19.7318 276.778 19.7045 276.663 19.6852C276.614 19.6772 276.536 19.6761 276.474 19.6783C276.269 19.6863 276.063 19.692 275.866 19.7068C275.726 19.717 275.644 19.7488 275.661 19.7806C275.665 19.7932 275.763 19.8113 275.821 19.8125C275.952 19.8148 276.092 19.7988 276.219 19.8068C276.343 19.8147 276.47 19.8375 276.56 19.8625C276.745 19.9148 276.955 19.8682 277.132 19.8818C277.316 19.8966 277.469 19.9421 277.645 19.9694C277.69 19.9762 277.777 19.9648 277.847 19.9614C278.048 19.9534 278.249 19.9466 278.451 19.9387C278.619 19.9716 278.8 20.0012 278.952 20.0387C279.227 20.1069 279.523 20.133 279.88 20.1001C280.082 20.0819 280.279 20.0887 280.439 20.133C280.604 20.1785 280.793 20.174 281.002 20.1649C281.195 20.1558 281.393 20.1308 281.59 20.1626C282.017 20.2331 282.021 20.2365 282.527 20.2092C282.679 20.2013 282.794 20.199 282.909 20.2251C283.016 20.249 283.131 20.2695 283.242 20.2922C283.443 20.2842 283.648 20.2763 283.85 20.2672C284.108 20.2547 284.252 20.2706 284.314 20.3343C284.351 20.3729 284.367 20.4081 284.458 20.4343C284.565 20.4661 284.68 20.465 284.836 20.4559C284.984 20.4479 285.09 20.4354 285.152 20.3945C285.177 20.3775 285.226 20.3615 285.271 20.3479C285.308 20.3377 285.366 20.3218 285.399 20.324C285.46 20.3286 285.542 20.3411 285.563 20.3558C285.764 20.4934 285.764 20.4945 285.97 20.5343C286.196 20.5787 286.43 20.6184 286.635 20.6685C286.82 20.7128 287.005 20.6935 287.207 20.6935C287.359 20.6935 287.457 20.723 287.445 20.7526C287.437 20.7696 287.379 20.7946 287.33 20.7969C286.927 20.8196 286.52 20.839 286.114 20.8549C286.064 20.8572 286.003 20.8367 285.945 20.8265C285.83 20.806 285.727 20.7742 285.604 20.7674C285.481 20.7605 285.337 20.7776 285.201 20.7833C285.066 20.789 284.922 20.8037 284.799 20.7947C284.676 20.7856 284.577 20.7526 284.462 20.731C284.408 20.7208 284.335 20.706 284.289 20.7094C283.989 20.7367 283.767 20.6992 283.554 20.6491C283.509 20.6389 283.431 20.6321 283.373 20.6344C282.896 20.6537 282.424 20.6764 281.947 20.698C281.754 20.7071 281.598 20.6673 281.557 20.6003C281.536 20.5627 281.495 20.5252 281.495 20.4877C281.495 20.4195 281.269 20.382 281.105 20.39C280.834 20.4013 280.558 20.4104 280.291 20.4275C280.074 20.4411 279.889 20.4275 279.741 20.3865C279.568 20.3399 279.371 20.349 279.174 20.3615C279.026 20.3706 278.985 20.4081 278.993 20.5025C279.001 20.5787 278.931 20.6025 278.664 20.615C278.327 20.6309 277.986 20.6469 277.645 20.6594C277.592 20.6616 277.53 20.6423 277.477 20.6321C277.362 20.6116 277.259 20.5787 277.136 20.5718C277.012 20.5639 276.869 20.5809 276.733 20.5878C276.597 20.5934 276.454 20.6094 276.33 20.6014C276.207 20.5934 276.104 20.5593 275.993 20.5377C275.94 20.5275 275.874 20.5127 275.821 20.515C275.55 20.5241 275.279 20.5377 275.007 20.5502C274.703 20.5639 274.703 20.5639 274.272 20.4934C274.075 20.4616 273.877 20.4866 273.684 20.4957C273.479 20.5048 273.286 20.5093 273.125 20.4638C273.019 20.4343 272.9 20.4161 272.772 20.4218C272.431 20.4354 272.094 20.4525 271.753 20.4661C271.696 20.4684 271.618 20.4627 271.572 20.4525C271.355 20.4047 271.141 20.3672 270.837 20.3911C270.574 20.4116 270.29 20.4127 270.027 20.432C269.884 20.4422 269.818 20.4786 269.847 20.507C269.863 20.5218 269.949 20.5389 270.007 20.5389C270.138 20.54 270.282 20.523 270.405 20.5298C270.66 20.5434 270.788 20.6389 271.12 20.6128C271.318 20.5968 271.523 20.5912 271.728 20.5866C271.782 20.5855 271.839 20.6071 271.897 20.6184C272.061 20.6491 272.205 20.6889 272.443 20.6685C272.641 20.6525 272.85 20.648 273.052 20.6389C273.372 20.6241 273.372 20.6253 273.787 20.6946C273.984 20.7276 274.181 20.7014 274.375 20.6935C274.518 20.6878 274.654 20.6764 274.769 20.6923C274.946 20.7162 275.073 20.7708 275.291 20.7674C275.496 20.7639 275.698 20.748 275.903 20.7424C276.03 20.7389 276.15 20.7571 276.252 20.7878C276.359 20.8185 276.474 20.8322 276.614 20.8253C276.815 20.8162 277.021 20.8049 277.226 20.7992C277.284 20.7981 277.349 20.8083 277.403 20.8174C277.518 20.8378 277.629 20.8617 277.74 20.8833C277.941 20.8765 278.147 20.8742 278.344 20.8606C278.496 20.8503 278.603 20.8549 278.726 20.8776C278.882 20.9083 279.009 20.9629 279.264 20.9367C279.392 20.9242 279.539 20.9276 279.667 20.9163C279.823 20.9015 279.93 20.9072 280.041 20.9413C280.25 21.0061 280.513 21.0072 280.784 20.9822C281.08 20.9549 281.302 20.9868 281.524 21.0368C281.758 21.0891 281.758 21.0879 281.939 21.2141C281.992 21.2505 282.144 21.2675 282.272 21.2607C282.485 21.2494 282.67 21.255 282.827 21.2982C282.991 21.3448 283.188 21.3392 283.389 21.3267C283.656 21.3096 283.924 21.2948 284.141 21.3608C284.248 21.3926 284.363 21.4005 284.507 21.3926C284.914 21.3721 285.325 21.3596 285.723 21.3346C285.966 21.3187 286.105 21.3551 286.27 21.3858C286.492 21.4278 286.734 21.4653 286.734 21.5551C286.734 21.5699 286.792 21.587 286.841 21.5983C286.948 21.6222 287.063 21.6427 287.174 21.6654C287.338 21.6995 287.498 21.7279 287.724 21.7097C287.922 21.695 288.131 21.6904 288.332 21.6802C288.534 21.67 288.719 21.6643 288.899 21.7075C289.109 21.7564 289.331 21.803 289.569 21.8393C289.738 21.8655 289.96 21.8212 290.14 21.8564C290.251 21.878 290.358 21.903 290.477 21.9212C290.527 21.9291 290.605 21.9235 290.67 21.9212C290.806 21.9166 290.946 21.9132 291.077 21.9019C291.229 21.8894 291.344 21.8916 291.459 21.9178C291.566 21.9417 291.673 21.9746 291.796 21.9814C291.981 21.9917 292.187 21.9462 292.371 21.9985C292.466 22.0246 292.585 22.0496 292.708 22.0576C292.832 22.0656 292.975 22.0485 293.107 22.0496C293.164 22.0496 293.234 22.0678 293.267 22.0826C293.288 22.0906 293.259 22.1122 293.23 22.1235C293.193 22.1372 293.14 22.1554 293.086 22.1576C292.68 22.1781 292.273 22.1952 291.866 22.2145C291.624 22.2258 291.624 22.2258 291.135 22.1542C291.02 22.1372 290.892 22.1406 290.748 22.1485C290.555 22.1588 290.358 22.1781 290.157 22.1576C289.894 22.0803 289.569 22.0735 289.224 22.1031C289.08 22.1156 288.949 22.1156 288.842 22.094C288.616 22.0508 288.378 22.011 288.176 21.9598C288.02 21.9201 287.946 21.9166 287.88 21.9712C287.86 21.9883 287.839 22.0064 287.843 22.0224C287.868 22.0792 287.913 22.1349 287.938 22.1917C287.946 22.2077 287.913 22.2258 287.893 22.2429C287.827 22.2906 287.741 22.2872 287.597 22.2474C287.453 22.2077 287.281 22.1815 287.05 22.1997C286.853 22.2156 286.64 22.2133 286.442 22.2304C286.138 22.2554 285.925 22.219 285.707 22.1701C285.662 22.1599 285.584 22.1542 285.526 22.1565C284.914 22.1826 284.306 22.2122 283.694 22.2383C283.562 22.244 283.443 22.227 283.34 22.1963C283.233 22.1656 283.114 22.1497 282.983 22.1554C282.44 22.1792 281.898 22.2008 281.356 22.2304C281.134 22.2429 280.957 22.2281 280.805 22.1883C280.69 22.1588 280.583 22.1497 280.439 22.1531C280.283 22.1565 280.172 22.1679 280.094 22.2008C280.02 22.2327 280.074 22.252 280.238 22.277C280.415 22.3043 280.579 22.3395 280.747 22.3714C280.883 22.3668 281.019 22.3577 281.15 22.3588C281.208 22.3588 281.261 22.3793 281.319 22.3907C281.483 22.4236 281.635 22.4566 281.869 22.4384C282.066 22.4225 282.276 22.4191 282.477 22.4089C282.757 22.3964 282.757 22.3964 283.209 22.468C283.324 22.4862 283.447 22.485 283.595 22.4748C283.722 22.4668 283.854 22.4827 283.944 22.5169C283.981 22.5305 283.969 22.5532 283.891 22.6283C283.891 22.684 283.977 22.659 284.006 22.6226C284.051 22.5703 283.965 22.5532 283.8 22.5817C283.685 22.6021 283.628 22.6317 283.657 22.6555C283.673 22.6681 283.751 22.684 283.891 22.6283C284.252 22.5601 284.528 22.5521 284.791 22.5339C284.947 22.5237 285.045 22.5282 285.169 22.5578C285.316 22.593 285.464 22.6305 285.707 22.6124C285.97 22.5919 286.249 22.5896 286.516 22.5726C286.763 22.5566 286.89 22.6067 287.046 22.6362C287.235 22.6715 287.445 22.6317 287.617 22.6521C287.798 22.6726 287.926 22.7226 288.135 22.7317C288.439 22.701 288.632 22.7579 288.862 22.7954C289.043 22.8238 289.257 22.7988 289.45 22.7863C289.668 22.7726 289.849 22.7851 290.001 22.8261C290.173 22.8727 290.366 22.8624 290.564 22.8522C291.024 22.8295 291.04 22.8261 291.307 22.8886C291.5 22.9341 291.685 22.9136 291.878 22.9079C292.047 22.9386 292.211 22.9716 292.388 22.9988C292.433 23.0057 292.519 22.9943 292.589 22.9909C292.791 22.9818 292.996 22.9727 293.197 22.9636C293.333 22.9579 293.477 22.9409 293.6 22.9477C293.723 22.9557 293.826 22.9886 293.937 23.0102C294.048 23.0318 294.163 23.0534 294.27 23.0761C294.434 23.1103 294.59 23.1387 294.82 23.1216C295.018 23.1068 295.223 23.1023 295.428 23.0921C295.687 23.0796 295.679 23.083 296.16 23.1512C296.419 23.1887 296.686 23.1432 296.949 23.1387C297.08 23.1364 297.208 23.1489 297.298 23.1819C297.335 23.1955 297.323 23.2183 297.335 23.2376C296.657 23.2683 295.975 23.2944 295.305 23.3319C295.046 23.3467 294.911 23.3058 294.771 23.2717C294.541 23.2171 294.237 23.2967 294.019 23.2262C293.888 23.1841 293.699 23.1603 293.473 23.1807C293.341 23.1921 293.201 23.191 293.066 23.2012C292.721 23.2262 292.404 23.2273 292.129 23.1489C292.034 23.1216 291.899 23.1068 291.8 23.0807C291.685 23.0523 291.574 23.0364 291.439 23.042C290.827 23.0693 290.218 23.0966 289.61 23.1262C289.557 23.1284 289.503 23.1455 289.458 23.158C289.343 23.1898 289.38 23.2148 289.565 23.2353C289.627 23.2421 289.676 23.2569 289.734 23.2683C289.845 23.2899 289.947 23.324 290.07 23.3319C290.194 23.3399 290.338 23.324 290.473 23.3183C290.609 23.3126 290.753 23.2955 290.876 23.3024C290.999 23.3103 291.102 23.3433 291.217 23.3638C291.27 23.374 291.336 23.391 291.389 23.3899C291.661 23.3831 291.928 23.3706 292.199 23.3603C292.367 23.391 292.511 23.4354 292.713 23.4456C292.84 23.4524 292.975 23.4399 293.107 23.4422C293.164 23.4433 293.238 23.4604 293.267 23.4752C293.284 23.4843 293.23 23.507 293.189 23.5184C293.033 23.5616 292.819 23.5536 292.626 23.5672C292.417 23.582 292.228 23.5775 292.067 23.5331C291.961 23.5036 291.841 23.4877 291.71 23.4934C291.369 23.5081 291.032 23.5252 290.691 23.5377C290.633 23.54 290.564 23.5297 290.51 23.5218C290.079 23.4524 290.079 23.4502 289.775 23.4649C289.327 23.4865 289.327 23.4865 289.027 23.4263C288.969 23.4149 288.908 23.3933 288.858 23.3945C288.382 23.4126 287.909 23.4308 287.437 23.457C287.281 23.4649 287.174 23.4649 287.059 23.4354C286.96 23.4104 286.845 23.3819 286.722 23.3751C286.594 23.3683 286.455 23.3854 286.319 23.391C286.183 23.3967 286.04 23.4115 285.921 23.4024C285.797 23.3933 285.69 23.3615 285.584 23.3388C285.473 23.3149 285.354 23.316 285.201 23.3251C284.733 23.3512 284.729 23.3478 284.265 23.2774C284.211 23.2694 284.141 23.2603 284.084 23.2626C283.743 23.2762 283.406 23.2933 283.065 23.3069C282.933 23.3126 282.806 23.2978 282.716 23.2649C282.679 23.2512 282.691 23.2285 282.666 23.1841C282.638 23.1739 282.67 23.1921 282.679 23.2092C282.74 23.2069 282.814 23.2091 282.859 23.2001C282.974 23.1785 283.032 23.15 283.003 23.1262C282.987 23.1137 282.909 23.0977 282.859 23.0977C282.769 23.0977 282.691 23.1228 282.666 23.1841C282.407 23.2217 282.132 23.2296 281.865 23.2478C281.709 23.2592 281.61 23.2535 281.487 23.2239C281.339 23.1876 281.187 23.1523 280.945 23.1705C280.682 23.191 280.402 23.1944 280.131 23.2103C279.819 23.2285 279.683 23.1262 279.42 23.1284C279.149 23.1307 278.878 23.15 278.607 23.1637C278.368 23.1751 278.368 23.175 277.875 23.1012C277.695 23.0739 277.481 23.1137 277.304 23.0852C277.185 23.067 277.082 23.0398 276.967 23.0204C276.918 23.0125 276.84 23.0125 276.778 23.0148C276.437 23.0284 276.092 23.0375 275.763 23.0625C275.389 23.0921 275.106 23.0602 274.839 22.9932C274.502 23.0057 274.161 23.0125 273.828 23.0341C273.586 23.05 273.446 23.0125 273.282 22.9818C273.224 22.9716 273.175 22.9545 273.113 22.95C273.052 22.9454 272.978 22.9545 272.912 22.9579C272.641 22.9704 272.361 22.9761 272.098 22.9966C271.774 23.0227 271.65 22.9295 271.4 22.9181C271.231 22.9738 271.141 23.05 270.808 23.0557C270.537 23.0602 270.266 23.0784 269.995 23.0909C269.859 23.0966 269.723 23.1034 269.588 23.1091C269.37 23.1194 269.267 23.1637 269.312 23.2319C269.337 23.2694 269.358 23.3069 269.378 23.3444C269.419 23.4115 269.317 23.4683 269.144 23.4763C268.667 23.4979 268.195 23.5206 267.718 23.5399C267.591 23.5456 267.467 23.5263 267.365 23.4956C267.258 23.4649 267.139 23.4513 267.007 23.457C266.531 23.4786 266.058 23.5013 265.582 23.5206C265.528 23.5229 265.458 23.5115 265.405 23.5024C265.29 23.482 265.179 23.4581 265.068 23.4365C264.797 23.4467 264.53 23.4536 264.263 23.4672C263.831 23.4877 263.831 23.4888 263.515 23.4263C263.457 23.4149 263.4 23.3933 263.346 23.3945C263.141 23.399 262.94 23.4104 262.734 23.4206C262.13 23.4502 262.13 23.4501 261.953 23.416C261.793 23.3842 261.649 23.3456 261.407 23.3638C261.144 23.3842 260.865 23.391 260.593 23.4024C260.392 23.4104 260.191 23.4195 259.989 23.4217C259.936 23.4229 259.878 23.4013 259.821 23.3899C259.657 23.3547 259.496 23.3262 259.27 23.3456C259.139 23.3569 258.999 23.3592 258.864 23.3649C258.51 23.3808 258.51 23.3808 257.931 23.3126C257.873 23.3058 257.803 23.2978 257.746 23.3012C257.269 23.3217 256.797 23.3444 256.32 23.3638C256.263 23.366 256.193 23.3592 256.135 23.3535C255.486 23.2876 255.486 23.2876 254.796 23.3194C254.533 23.3308 254.525 23.3353 254.249 23.2751C254.126 23.2489 254.023 23.2364 253.88 23.2444C253.337 23.2717 252.791 23.2899 252.252 23.3217C252.01 23.3353 251.87 23.3012 251.706 23.2705C251.648 23.2603 251.587 23.2376 251.537 23.2387C250.995 23.2603 250.453 23.2865 249.91 23.3081C249.861 23.3103 249.799 23.2876 249.742 23.2774C249.631 23.2569 249.524 23.2262 249.401 23.2194C249.273 23.2126 249.134 23.2296 248.994 23.2353C248.653 23.2501 248.653 23.2489 248.259 23.1819C248.205 23.1728 248.135 23.1603 248.082 23.1625C247.539 23.1853 246.993 23.2046 246.455 23.2376C246.147 23.2558 245.937 23.2228 245.719 23.175C245.674 23.1648 245.596 23.1603 245.538 23.1625C244.926 23.1887 244.318 23.2182 243.706 23.2444C243.579 23.2501 243.455 23.2307 243.353 23.2012C243.188 23.1546 242.995 23.1603 242.79 23.1705C242.317 23.1944 242.313 23.1932 242.034 23.1387C241.976 23.1273 241.927 23.1125 241.865 23.1068C241.808 23.1012 241.734 23.1046 241.672 23.1068C241.401 23.1182 241.13 23.1307 240.859 23.1432C240.587 23.1557 240.312 23.1625 240.045 23.1819C239.716 23.2057 239.56 23.1318 239.33 23.0977C238.993 23.1125 238.648 23.1216 238.315 23.1455C238.06 23.1637 237.941 23.1137 237.773 23.0875C237.715 23.0784 237.654 23.0591 237.6 23.0614C236.988 23.0864 236.376 23.1137 235.768 23.1444C235.62 23.1512 235.521 23.1421 235.398 23.1148C235.123 23.0534 235.11 23.0557 234.65 23.0784C234.449 23.0887 234.255 23.0978 234.083 23.0511C233.931 23.0091 233.746 22.9988 233.528 23.0125C233.261 23.0295 232.986 23.0386 232.715 23.05C232.444 23.0625 232.172 23.0796 231.901 23.0852C231.683 23.0909 231.552 23.0375 231.379 23.0102C231.326 23.0023 231.252 23.0011 231.19 23.0034C230.919 23.0136 230.64 23.0216 230.377 23.0409C230.056 23.0648 229.88 23.0023 229.654 22.9659C229.604 22.9579 229.522 22.9625 229.46 22.9659C228.984 22.9863 228.511 23.0091 228.035 23.0307C227.866 23 227.694 22.9704 227.525 22.9397C227.254 22.9511 226.983 22.9636 226.712 22.975C226.506 22.9841 226.297 22.9875 226.103 23.0045C225.853 23.0273 225.73 22.9738 225.561 22.9477C225.504 22.9386 225.442 22.9193 225.389 22.9215C225.048 22.9341 224.706 22.9477 224.37 22.967C224.049 22.9863 223.922 22.884 223.659 22.8852C223.388 22.8863 223.108 22.9011 222.845 22.9215C222.541 22.9454 222.327 22.909 222.11 22.8602C222.064 22.8499 221.986 22.8442 221.929 22.8465C221.588 22.8602 221.251 22.8772 220.91 22.8909C220.852 22.8931 220.783 22.8874 220.725 22.8806C220.076 22.8136 220.076 22.8124 219.792 22.8261C219.591 22.8352 219.386 22.8465 219.18 22.8522C219.123 22.8545 219.053 22.8442 218.999 22.8352C218.572 22.7658 218.572 22.7647 218.264 22.7783C217.993 22.7908 217.721 22.8033 217.45 22.8158C217.282 22.7851 217.109 22.7556 216.941 22.7249C216.604 22.7397 216.259 22.751 215.926 22.7715C215.77 22.7806 215.667 22.7772 215.548 22.7488C215.4 22.7147 215.252 22.6749 215.005 22.6942C214.742 22.7147 214.463 22.7169 214.196 22.734C213.875 22.7544 213.744 22.651 213.485 22.6521C213.214 22.6533 212.935 22.668 212.672 22.6885C212.368 22.7124 212.154 22.676 211.936 22.6271C211.891 22.6169 211.813 22.6112 211.755 22.6135C211.008 22.6465 210.264 22.6794 209.516 22.7146C209.056 22.7362 209.056 22.7374 208.181 22.6749C208.119 22.6703 208.053 22.6658 207.992 22.6681C207.72 22.6783 207.441 22.6862 207.178 22.7056C206.857 22.7294 206.681 22.668 206.455 22.6305C206.406 22.6226 206.327 22.6271 206.262 22.6294C206.056 22.6373 205.855 22.6476 205.649 22.6567C205.378 22.6692 205.107 22.6817 204.836 22.6942C204.667 22.6646 204.495 22.6339 204.326 22.6044C203.99 22.6192 203.644 22.6271 203.312 22.651C203.057 22.6692 202.938 22.6214 202.769 22.5942C202.712 22.5851 202.65 22.5657 202.597 22.5669C201.984 22.5919 201.372 22.618 200.764 22.6499C200.513 22.6635 200.398 22.6123 200.23 22.5862C200.172 22.5782 200.107 22.5635 200.053 22.5657C199.646 22.5817 199.24 22.601 198.833 22.6203C198.603 22.6317 198.603 22.6317 198.102 22.5612C198.044 22.5532 197.978 22.5453 197.921 22.5475C196.631 22.6044 195.344 22.6646 194.054 22.7215C193.923 22.7272 193.804 22.7101 193.701 22.6794C193.594 22.6487 193.475 22.6328 193.343 22.6385C192.801 22.6624 192.255 22.684 191.716 22.7135C191.494 22.726 191.318 22.7112 191.166 22.6715C191.051 22.6419 190.944 22.6305 190.8 22.6374C190.529 22.651 190.258 22.6624 189.986 22.6749C189.715 22.6874 189.444 22.6999 189.173 22.7124C188.902 22.7249 188.626 22.7317 188.359 22.751C188.031 22.7749 187.87 22.7044 187.644 22.6692C187.238 22.6862 186.831 22.7033 186.428 22.7215C185.886 22.7453 185.343 22.7715 184.801 22.7942C184.752 22.7965 184.69 22.776 184.633 22.7658C184.464 22.7374 184.341 22.6976 184.09 22.7101C182.874 22.7704 181.65 22.8215 180.429 22.8806C180.174 22.8931 180.064 22.8442 179.891 22.8181C179.833 22.8101 179.768 22.7942 179.714 22.7965C179.036 22.8249 178.358 22.8567 177.68 22.8874C177.405 22.8999 177.405 22.8999 176.945 22.8295C176.892 22.8215 176.822 22.8113 176.764 22.8135C175.881 22.8522 175.001 22.8931 174.118 22.9329C173.986 22.9386 173.867 22.9227 173.761 22.892C173.658 22.8613 173.535 22.8442 173.407 22.8499C172.594 22.8863 171.776 22.9215 170.966 22.9613C170.749 22.9727 170.568 22.9625 170.412 22.9215C170.301 22.892 170.19 22.8795 170.05 22.8863C168.83 22.942 167.609 22.9954 166.389 23.0546C166.155 23.0659 165.991 23.0443 165.843 23.0068C165.724 22.9773 165.621 22.9716 165.473 22.9761C165.317 22.9818 165.222 22.9943 165.136 23.0284C165.025 23.0727 164.955 23.1284 164.692 23.1319C164.421 23.1353 164.146 23.1489 163.879 23.1682C163.624 23.1876 163.505 23.1364 163.345 23.1057C163.225 23.0841 163.114 23.0807 162.962 23.0909C162.823 23.1 162.736 23.1193 162.654 23.1557C162.473 23.233 162.457 23.233 162.235 23.1841C162.116 23.158 162.009 23.1375 161.878 23.1421C161.335 23.1648 160.793 23.1898 160.251 23.216C159.938 23.2307 159.934 23.233 159.7 23.1762C159.585 23.1478 159.474 23.1341 159.338 23.1409C157.847 23.2091 156.355 23.2751 154.864 23.3467C154.634 23.3581 154.478 23.3342 154.313 23.3001C154.26 23.2887 154.206 23.2728 154.145 23.2683C154.083 23.2637 154.013 23.2683 153.948 23.2705C152.863 23.3194 151.774 23.366 150.693 23.4206C150.447 23.4331 150.315 23.3967 150.147 23.3672C150.089 23.3569 150.04 23.341 149.978 23.3365C149.917 23.3331 149.843 23.341 149.777 23.3444C148.692 23.3933 147.603 23.4399 146.523 23.4945C146.264 23.507 146.153 23.4592 145.985 23.4342C145.927 23.4251 145.865 23.4081 145.812 23.4104C145.471 23.4229 145.134 23.4399 144.793 23.4547C143.979 23.4922 143.166 23.5275 142.352 23.5661C142.04 23.5809 141.904 23.4797 141.641 23.4842C141.3 23.4899 140.963 23.5127 140.622 23.5286C140.351 23.5411 140.08 23.5525 139.809 23.5661C139.542 23.5786 139.542 23.5786 138.876 23.5127C138.819 23.507 138.749 23.499 138.691 23.5013C137.742 23.5434 136.789 23.5854 135.844 23.6309C135.626 23.6411 135.445 23.6354 135.289 23.5934C135.178 23.5638 135.063 23.549 134.928 23.5559C133.502 23.6207 132.08 23.6855 130.654 23.7491C130.601 23.7514 130.531 23.74 130.478 23.7309C130.363 23.7105 130.252 23.6866 130.141 23.665C130.058 23.6912 129.952 23.715 129.898 23.7446C129.824 23.7844 129.726 23.7957 129.57 23.8025C129.413 23.8094 129.315 23.8071 129.192 23.7775C129.044 23.7412 128.892 23.7127 128.649 23.7241C127.158 23.7957 125.666 23.8605 124.175 23.931C123.928 23.9424 123.813 23.8923 123.64 23.8662C123.583 23.8582 123.517 23.8457 123.464 23.848C122.852 23.8742 122.243 23.9026 121.631 23.9299C119.934 24.0072 118.237 24.0811 116.544 24.1629C116.236 24.1777 116.027 24.1493 115.809 24.1004C115.764 24.0902 115.686 24.0845 115.628 24.0867C113.253 24.1936 110.878 24.3016 108.507 24.4096C108.38 24.4153 108.257 24.3971 108.154 24.3675C108.047 24.3368 107.928 24.3221 107.797 24.3277C106.712 24.3766 105.627 24.4255 104.542 24.4755C104.271 24.488 104.267 24.4892 103.988 24.4346C103.93 24.4232 103.869 24.4016 103.823 24.4039C103.729 24.4096 103.638 24.438 103.573 24.4766C103.507 24.5176 103.404 24.5289 103.252 24.5369C103.096 24.5449 102.993 24.5415 102.874 24.5142C102.722 24.4801 102.582 24.4471 102.336 24.4585C99.2173 24.604 96.0986 24.7438 92.98 24.8882C92.7294 24.8995 92.6143 24.8518 92.4417 24.8256C92.3842 24.8177 92.3267 24.8063 92.2651 24.804C92.1993 24.8018 92.1295 24.8086 92.0637 24.812C86.977 25.0428 81.8902 25.2747 76.8034 25.5054C76.4994 25.5191 76.5035 25.5191 76.1706 25.6237C76.1295 25.6362 76.0761 25.6532 76.0186 25.6555C74.4613 25.7282 72.9 25.7987 71.3386 25.8692C70.6606 25.8999 69.9827 25.9317 69.3047 25.9613C69.0623 25.9715 69.0623 25.9715 68.4829 26.0943C68.4336 26.1045 68.3761 26.1182 68.3185 26.1204C65.6067 26.2443 62.8948 26.3682 60.1788 26.4899C59.9652 26.499 59.7926 26.5194 59.694 26.574C59.6242 26.6127 59.5338 26.6354 59.3982 26.6422C57.4999 26.7286 55.6016 26.8161 53.6992 26.9003C53.4732 26.9105 53.3376 26.9423 53.2266 26.9901C53.1897 27.006 53.1568 27.0242 53.1034 27.0355C53.054 27.0458 52.9801 27.0492 52.9185 27.0526C51.2914 27.1265 49.6643 27.2026 48.0331 27.2731C47.7906 27.2833 47.692 27.3254 47.5728 27.3697C47.5317 27.3845 47.5029 27.405 47.4495 27.4152C47.3961 27.4243 47.3181 27.4243 47.2523 27.4266C45.8964 27.488 44.5405 27.5505 43.1846 27.6119C42.9216 27.6062 42.864 27.6721 42.7367 27.7119C42.6915 27.7256 42.6587 27.7437 42.6053 27.7528C42.5477 27.7619 42.4737 27.7608 42.4038 27.7631C41.3191 27.8119 40.2344 27.8642 39.1455 27.9097C38.8949 27.9199 38.8455 27.9779 38.7099 28.0177C38.6647 28.0302 38.6196 28.0495 38.5662 28.0529C37.8882 28.0859 37.2103 28.1166 36.5323 28.1462C36.3063 28.1564 36.3063 28.1553 35.9078 28.2678C35.8626 28.2803 35.8091 28.2939 35.7516 28.2974C34.7367 28.3451 33.7177 28.3906 32.6987 28.4372C32.5672 28.4429 32.4768 28.4701 32.4111 28.5088C32.3454 28.5474 32.2509 28.5724 32.1194 28.5781C31.3058 28.6156 30.4922 28.6543 29.6786 28.6884C29.4527 28.6975 29.3048 28.7259 29.2062 28.7771C29.1322 28.8157 29.0418 28.835 28.898 28.8419C28.0844 28.8782 27.2709 28.918 26.4532 28.9499C26.2149 28.959 26.0916 28.9976 25.993 29.0453C25.9149 29.084 25.8245 29.0976 25.6725 29.1045C24.181 29.1704 22.6854 29.2363 21.198 29.3091C20.9473 29.3216 20.8199 29.2818 20.6556 29.2534C20.4214 29.2136 20.2037 29.1704 20.2037 29.0817C20.2037 29.0681 20.1338 29.0522 20.0845 29.0408C19.7188 28.9555 19.7188 28.9555 19.6613 28.8646C19.6284 28.8089 19.5914 28.7521 19.5626 28.6952C19.5092 28.602 19.3777 28.5781 18.9997 28.5952C18.8641 28.6009 18.7285 28.6088 18.5929 28.6134C18.3916 28.6213 18.2396 28.5838 18.2026 28.5156C18.182 28.4781 18.1574 28.4406 18.1369 28.4031C18.3423 28.394 18.3382 28.3928 18.6997 28.2553C18.8518 28.1973 18.8518 28.1973 18.5601 28.1393C18.4492 28.1177 18.3423 28.0939 18.2231 28.0734C18.1697 28.0643 18.0999 28.0586 18.0424 28.0609C17.7013 28.0745 17.3644 28.0905 17.0275 28.1064C16.4851 28.1314 16.4851 28.1314 15.9345 28.0154C15.8893 28.0063 15.8194 27.9893 15.8276 27.9802C15.8728 27.9381 15.9838 27.9199 16.1235 27.9154C16.3289 27.9086 16.5302 27.8972 16.7316 27.8881C16.8672 27.8824 17.0028 27.8756 17.1383 27.8699C17.2657 27.8267 17.3973 27.7847 17.5164 27.7403C17.7054 27.6721 17.7054 27.6698 17.4465 27.6221C17.2822 27.5903 17.1055 27.5618 16.937 27.5323C16.7357 27.5414 16.5302 27.5516 16.3289 27.5596C16.0742 27.5698 15.9714 27.5482 15.9057 27.4743C15.8482 27.4095 15.918 27.3538 16.1152 27.3402C16.3166 27.3265 16.5057 27.3175 16.6084 27.2595C16.707 27.2038 16.8795 27.1822 17.0932 27.1776C17.2288 27.1742 17.3644 27.1663 17.5 27.1594C17.6767 27.1503 17.7712 27.0924 17.7342 27.0276C17.7137 26.9855 17.6726 26.9503 17.5123 26.9412C16.8015 26.9014 16.7932 26.9025 16.4399 26.8252C16.407 26.8184 16.3824 26.7979 16.3947 26.7877C16.4153 26.7707 16.4605 26.7457 16.5098 26.7422C16.9823 26.7172 17.4548 26.6945 17.9273 26.6775C18.0835 26.6718 18.1985 26.6638 18.2519 26.6217C18.3259 26.5638 18.293 26.5103 18.1492 26.4706C18.104 26.458 18.03 26.4421 17.9807 26.4433C17.4383 26.4637 16.9001 26.4899 16.3577 26.5103C16.3084 26.5126 16.218 26.4933 16.1975 26.4785C16.1564 26.4512 16.218 26.4149 16.3618 26.4023C16.5508 26.3853 16.7439 26.3842 16.8713 26.3273C17.048 26.2466 17.2657 26.1727 17.463 26.0954C17.4958 26.0818 17.5493 26.0556 17.537 26.0534C17.4343 26.0283 17.3151 26.009 17.2083 25.9851C17.0275 25.9454 17.0274 25.8897 17.0685 25.8362C17.1014 25.793 17.2247 25.776 17.3767 25.776C17.4424 25.776 17.5246 25.776 17.578 25.7658C17.7177 25.7407 17.7629 25.7089 17.6931 25.685C17.652 25.6714 17.5781 25.6521 17.5288 25.6544C16.6495 25.6919 15.766 25.7282 14.8908 25.7748C14.6319 25.7885 14.5129 25.7453 14.3567 25.7146C14.2376 25.6907 14.1266 25.6816 13.9786 25.6987C13.8389 25.7146 13.7034 25.7055 13.6171 25.668C13.5473 25.6373 13.6705 25.6112 14.0033 25.5816C14.065 25.5759 14.1348 25.5725 14.18 25.5611C14.6566 25.4384 14.6566 25.4372 14.9853 25.4213C15.3058 25.4065 15.3059 25.4054 15.4743 25.3395C15.5524 25.3088 15.6386 25.2781 15.7126 25.2462C15.7413 25.2337 15.7907 25.211 15.7743 25.2042C15.6839 25.1689 15.5606 25.161 15.4168 25.169C15.0963 25.1883 14.7183 25.1724 14.5498 25.2804C14.4841 25.3213 14.3814 25.3326 14.2334 25.3395C12.746 25.4054 11.2586 25.4759 9.76705 25.5395C9.52462 25.5498 9.41375 25.5918 9.31924 25.6384C9.23707 25.6771 9.14665 25.6885 8.99051 25.6953C8.83438 25.7021 8.71105 25.7055 8.62065 25.668C8.56724 25.6453 8.61245 25.6134 8.73572 25.5816C8.9124 25.5361 8.87951 25.4793 8.82199 25.4259C8.7809 25.3906 8.65353 25.3656 8.51793 25.3679C8.3166 25.3724 8.12353 25.3849 7.95507 25.3395C7.85646 25.3133 7.73317 25.2951 7.62223 25.2724C7.40856 25.2258 7.19489 25.178 6.89495 25.2087C6.6895 25.1974 6.54569 25.1564 6.38134 25.1246C6.10604 25.0723 6.08139 25.0644 6.27862 25.0087C6.50049 24.9461 6.32789 24.8643 6.45116 24.8029C6.58264 24.737 6.76349 24.679 6.92374 24.6176C6.96483 24.6017 7.00182 24.5869 7.04291 24.571C6.94841 24.5483 6.86214 24.5199 6.7512 24.5039C6.60739 24.4835 6.53342 24.4585 6.54164 24.388C6.51288 24.3778 6.52512 24.4039 6.55799 24.4107C6.59497 24.4175 6.68543 24.4119 6.73063 24.4039C6.84568 24.3823 6.90314 24.3539 6.87438 24.33C6.85795 24.3175 6.77994 24.3016 6.73063 24.3016C6.64024 24.3016 6.56218 24.3266 6.53753 24.388C6.07733 24.4346 5.60063 24.4573 5.124 24.4755C5.07469 24.4778 5.01309 24.4551 4.95557 24.4437C4.76656 24.405 4.76654 24.4062 4.21184 24.3948C4.15431 24.3937 4.07629 24.3778 4.04752 24.3618C3.92837 24.2925 3.93251 24.2163 3.87498 24.1424C3.98181 24.0947 4.08856 24.0481 4.1995 24.0015C4.42138 23.9071 4.70906 23.8242 4.88164 23.7207C4.84466 23.665 4.79534 23.6093 4.97613 23.5638C5.48974 23.507 5.48567 23.507 5.62537 23.4524C6.02393 23.2978 6.41836 23.1421 6.83335 22.9898C6.94429 22.95 6.94431 22.9284 6.74708 22.9113C6.68545 22.9068 6.61962 22.9056 6.55388 22.9079C6.34843 22.9159 6.14299 22.9363 5.94166 22.9318C5.74032 22.9284 5.5924 22.8784 5.42805 22.8477C5.25959 22.8158 5.09113 22.7829 4.92267 22.7499C4.72955 22.7533 4.53647 22.7851 4.34335 22.734C4.19543 22.6942 4.01054 22.6658 3.84208 22.6328C3.96946 22.5464 4.20781 22.4805 4.39271 22.4043C4.56117 22.335 4.56519 22.3361 5.01716 22.2827C5.23082 22.2577 5.30479 22.1292 5.124 22.0917C4.90623 22.0462 4.67618 22.0042 4.4543 21.961C4.26118 21.9644 4.064 21.9951 3.8791 21.9439C3.73529 21.9053 3.5709 21.8791 3.33258 21.8939C2.92991 21.9189 2.51904 21.9314 2.11226 21.9519C1.97256 21.9587 1.82048 21.9542 1.75885 21.9155C1.71776 21.8882 1.83693 21.8507 1.97252 21.8428C2.17797 21.8314 2.36284 21.8177 2.46557 21.7609C2.56418 21.7041 2.74495 21.687 2.95861 21.6791C3.01614 21.6768 3.08193 21.6631 3.11069 21.6495C3.25861 21.5836 3.42297 21.5267 3.73936 21.529C3.87084 21.5063 3.94065 21.4778 3.89956 21.4506C3.87491 21.4358 3.78866 21.4165 3.73936 21.4187C3.39832 21.4301 3.0573 21.4415 2.72448 21.4619C2.56834 21.471 2.44912 21.4733 2.35051 21.4392C2.28066 21.4165 2.31763 21.3858 2.44911 21.3528C2.56416 21.3244 2.59707 21.2914 2.58885 21.2528C2.56831 21.163 2.44502 21.1368 2.05057 21.1425C1.76705 21.147 1.6972 21.1323 1.63557 21.055C1.61913 21.0368 1.57811 21.0118 1.60688 20.9993C1.78356 20.922 1.89861 20.8265 2.23143 20.7901C2.36292 20.7765 2.50256 20.7765 2.58474 20.7469C2.66692 20.7173 2.74091 20.6832 2.8272 20.6548C2.93403 20.6207 3.00792 20.5889 2.95861 20.5673C2.87643 20.5286 2.74499 20.5252 2.59297 20.5389C2.46148 20.5502 2.32178 20.5514 2.18619 20.5582C1.94377 20.5707 1.74659 20.5411 1.71782 20.4911C1.63975 20.3593 1.55755 20.2285 1.4877 20.0967C1.47948 20.0808 1.49997 20.0603 1.53284 20.0466C1.64789 19.9989 1.77121 19.9534 1.89036 19.9068C2.03007 19.8534 2.25198 19.8636 2.44099 19.8534C2.70807 19.8386 2.70797 19.8398 3.06545 19.7306C3.20515 19.6874 3.44758 19.7045 3.59139 19.6658C3.63659 19.6533 3.70644 19.6329 3.69412 19.6215C3.67768 19.6067 3.59555 19.5953 3.53391 19.5885C3.47639 19.5817 3.40656 19.5783 3.34492 19.5817C2.59711 19.6147 1.85342 19.6499 1.1056 19.6817C0.97823 19.6874 0.838524 19.6624 0.793326 19.6272C0.748129 19.5942 0.760415 19.5544 0.752197 19.5169C0.871355 19.4703 1.0069 19.4271 1.10962 19.3771C1.18769 19.3384 1.2781 19.3214 1.43423 19.3191C1.63968 19.3157 1.84103 19.3021 2.07113 19.2918C2.49845 19.1259 2.91753 18.9519 3.37772 18.786C3.56262 18.7189 3.5175 18.6507 3.55448 18.5791C3.59146 18.5131 3.86674 18.5234 4.05164 18.5041C4.19956 18.4881 4.2488 18.4518 4.19127 18.4267C4.1584 18.412 4.08448 18.3949 4.02696 18.3949C3.89137 18.3949 3.75578 18.4051 3.62018 18.4108C3.48459 18.4165 3.32846 18.4131 3.21752 18.4324C3.11069 18.4506 3.0408 18.4893 2.97095 18.5222C2.89288 18.5586 2.79023 18.5711 2.63409 18.5734C2.43276 18.5757 2.23144 18.5859 2.0301 18.5938C1.80822 18.5495 1.57808 18.5063 1.36442 18.4597C1.32333 18.4506 1.31507 18.4245 1.31917 18.4074C1.32739 18.3631 1.26577 18.3358 1.13018 18.3142C1.01513 18.296 0.920621 18.2699 0.81379 18.2471C0.895968 18.2164 0.986395 18.1869 1.05214 18.1539C1.19595 18.0846 1.37676 18.0346 1.68903 18.0368C1.8123 17.9925 1.91088 17.9379 2.07113 17.9072C2.22316 17.8777 2.48203 17.9072 2.59708 17.8402C2.6546 17.8072 2.74094 17.7697 2.85188 17.756C3.02856 17.7344 3.25865 17.7458 3.36137 17.6822C3.42301 17.6458 3.51337 17.6128 3.63252 17.6037C3.76812 17.5935 3.90778 17.5912 4.00639 17.5696C4.05981 17.5583 4.11734 17.5401 4.11734 17.5242C4.11734 17.5139 4.03523 17.498 3.97771 17.4912C3.92429 17.4832 3.85436 17.4775 3.79273 17.4798C3.58728 17.4866 3.38595 17.4991 3.18051 17.506C3.12298 17.5082 3.05726 17.5003 2.99563 17.4935C2.81484 17.4753 2.82714 17.4525 2.97095 17.4116C3.11476 17.3718 3.21754 17.3207 3.3367 17.2741C3.46818 17.2661 3.63251 17.2695 3.72291 17.2479C3.87493 17.2127 3.98174 17.1615 4.105 17.1172C4.2406 17.1104 4.38029 17.1081 4.50767 17.0956C4.56108 17.091 4.58575 17.066 4.63095 17.0513C4.71313 17.0228 4.78304 16.9819 4.89398 16.9683C5.07477 16.9478 5.29664 16.9558 5.40347 16.8932C5.46511 16.8569 5.55957 16.8182 5.67462 16.8159C5.99511 16.8114 6.13071 16.7489 6.29507 16.6898C6.41833 16.6454 6.68131 16.6682 6.8169 16.6238C6.9073 16.5954 6.97308 16.5602 7.06348 16.5329C7.10045 16.5215 7.1785 16.5158 7.24013 16.5124C7.57706 16.4954 7.91808 16.4829 8.25501 16.4647C8.30842 16.4613 8.35777 16.4442 8.39886 16.4306C8.48515 16.401 8.5385 16.3601 8.64533 16.3408C8.75216 16.3214 8.90417 16.3214 9.03566 16.3158C9.45887 16.2987 9.49177 16.3033 9.68489 16.2066C9.84103 16.1282 10.2232 16.1839 10.3506 16.0975C10.4245 16.0475 10.5601 16.0066 10.8025 16.0009C11.1435 15.9929 11.4804 15.9713 11.8215 15.9565C12.1255 15.9429 12.1214 15.9429 12.4502 15.8372C12.5981 15.7894 12.8159 15.7963 13.009 15.7872C13.2144 15.7781 13.4034 15.7644 13.5021 15.7076C13.6007 15.6519 13.7814 15.6337 13.991 15.6257C14.1841 15.6178 14.4019 15.6235 14.5539 15.578C14.9237 15.4689 14.9196 15.4677 15.1785 15.4564C15.5853 15.4382 15.9921 15.42 16.3988 15.4007C16.67 15.3882 16.9535 15.3859 17.2083 15.3609C17.3932 15.3427 17.4753 15.279 17.5945 15.2347C17.9314 15.2176 18.2683 15.2006 18.6052 15.1847C19.0778 15.1619 19.5544 15.1415 20.031 15.1199C20.2365 15.0767 20.2653 14.9812 20.6104 14.9766C20.8159 14.9744 21.0172 14.9596 21.2226 14.9505C21.5637 14.9346 21.9006 14.9141 22.2416 14.9062C22.5005 14.9005 22.5456 14.8391 22.6812 14.8004C22.7264 14.7868 22.7675 14.7675 22.821 14.7641C23.3551 14.7322 23.9057 14.7254 24.4275 14.6788C24.4809 14.6743 24.5302 14.6504 24.5425 14.6333C24.5508 14.6242 24.4809 14.6072 24.4357 14.5992C24.3823 14.5901 24.3125 14.5811 24.2549 14.5833C22.558 14.6595 20.8611 14.7368 19.1641 14.813C18.9258 14.8243 18.9258 14.8232 18.3464 14.9482C18.2971 14.9585 18.2395 14.9698 18.1779 14.9732C17.9067 14.9869 17.6314 14.9948 17.3644 15.0119C17.1466 15.0255 16.9659 15.0119 16.8097 14.971C16.6988 14.9414 16.5837 14.9323 16.444 14.9346C16.2878 14.938 16.1852 14.9505 16.0948 14.9812C15.9756 15.0233 15.914 15.0778 15.6633 15.0892C14.5087 15.1381 13.3541 15.1926 12.2036 15.2449C12.0433 15.229 11.9653 15.2051 12.0064 15.1767C12.031 15.1597 12.0803 15.1369 12.1297 15.1347C12.6022 15.1108 13.0788 15.0903 13.5513 15.0676C13.617 15.0642 13.7074 15.0664 13.7444 15.0551C13.9252 15.0039 13.991 14.9209 14.3321 14.9153C14.5293 14.9118 14.7306 14.8948 14.9196 14.8789C14.973 14.8743 15.0223 14.8505 15.0347 14.8334C15.0388 14.8243 14.973 14.8073 14.9237 14.7993C14.7429 14.7663 14.5334 14.8061 14.3526 14.7834C14.291 14.7754 14.2046 14.7641 14.1923 14.7504C14.1841 14.7379 14.254 14.7175 14.3033 14.705C14.3485 14.6936 14.4101 14.6834 14.4717 14.6799C15.0141 14.6538 15.5565 14.6265 16.0989 14.6061C16.3208 14.5981 16.4769 14.5697 16.5755 14.5174C16.6494 14.4787 16.7398 14.4583 16.8795 14.4526C17.8287 14.4105 18.7778 14.3639 19.7311 14.3253C19.9694 14.3162 20.0927 14.2787 20.1913 14.2298C20.2694 14.1911 20.3598 14.1775 20.5118 14.1707C21.8719 14.1116 23.2236 14.0456 24.5837 13.9888C24.8343 13.9786 24.9083 13.9297 25.0357 13.8876C25.0809 13.8728 25.1096 13.8547 25.1671 13.8456C25.2246 13.8365 25.2986 13.8376 25.3684 13.8353C26.4532 13.7864 27.538 13.7342 28.6268 13.6887C28.8816 13.6785 28.9308 13.6216 29.0623 13.5818C29.1075 13.5693 29.1486 13.5489 29.2021 13.5455C30.0156 13.5068 30.8291 13.4704 31.6427 13.4329C32.1851 13.4079 32.7274 13.3829 33.2698 13.359C33.5369 13.3477 33.5369 13.3465 33.8985 13.2385C33.9396 13.226 33.9971 13.2112 34.0505 13.2078C35.6119 13.1351 37.1691 13.0657 38.7305 12.9941C38.862 12.9884 38.9565 12.9623 39.0222 12.9236C39.088 12.885 39.1826 12.8588 39.3099 12.8531C40.5303 12.7963 41.7506 12.7406 42.975 12.6872C43.1969 12.6781 43.353 12.6508 43.4516 12.5996C43.5256 12.561 43.616 12.5405 43.7557 12.5349C44.976 12.4803 46.1964 12.4223 47.4208 12.37C47.655 12.3598 47.7701 12.3211 47.8851 12.2757C47.9262 12.2598 47.9591 12.2336 48.0084 12.2313C48.6165 12.1995 49.2205 12.1665 49.8327 12.1449C50.0875 12.1358 50.1738 12.0881 50.2765 12.0426C50.3587 12.0062 50.4532 11.9937 50.6093 11.9892C50.9504 11.979 51.2873 11.9597 51.6201 11.9403C51.6694 11.9369 51.7311 11.9119 51.7352 11.896C51.7434 11.8664 51.6488 11.846 51.4927 11.8357C49.8656 11.9096 48.2344 11.9835 46.6073 12.0574C46.3402 12.0699 46.3402 12.0699 45.9786 12.1779C45.9375 12.1904 45.88 12.2052 45.8224 12.2086C44.2611 12.2802 42.7038 12.3507 41.1425 12.4223C41.011 12.428 40.9165 12.4541 40.8508 12.4928C40.785 12.5314 40.6904 12.5576 40.5631 12.5633C39.0715 12.6315 37.58 12.7008 36.0844 12.7656C35.8625 12.7747 35.7064 12.8009 35.6078 12.8531C35.5339 12.8918 35.4435 12.9123 35.3038 12.9179C33.878 12.9816 32.4563 13.0487 31.0264 13.1101C30.8826 13.1157 30.7758 13.0828 30.784 13.0521C30.7881 13.0362 30.8497 13.01 30.899 13.0078C31.6427 12.9702 32.3823 12.9316 33.1302 12.9032C33.3808 12.8941 33.4547 12.8441 33.5821 12.802C33.6232 12.7872 33.6561 12.7679 33.7095 12.7599C33.767 12.7508 33.841 12.752 33.9108 12.7497C35.6735 12.669 37.4363 12.5872 39.2031 12.511C39.4578 12.4996 39.5071 12.4439 39.6386 12.4041C39.6838 12.3905 39.7249 12.37 39.7783 12.3678C40.3207 12.3405 40.863 12.3166 41.4054 12.2927C42.3545 12.2495 43.3037 12.2063 44.2569 12.1631C44.5322 12.1506 44.5322 12.1506 44.8856 12.0438C44.9267 12.0313 44.9843 12.0154 45.0377 12.0131C47.5482 11.8983 50.0588 11.7835 52.5693 11.6698C52.7008 11.6641 52.7952 11.6379 52.861 11.5993C52.9267 11.5618 53.0212 11.5345 53.1486 11.5277C56.5425 11.3731 59.9324 11.2185 63.3263 11.0661C63.5482 11.0559 63.7043 11.032 63.8029 10.9786C63.8727 10.94 63.9672 10.9195 64.1069 10.9127C67.8378 10.7433 71.5686 10.5739 75.3036 10.4034C77.8141 10.2897 80.3247 10.1738 82.8352 10.0624C83.0653 10.0521 83.1885 10.0169 83.3036 9.97029C83.3406 9.95438 83.3776 9.92823 83.4269 9.92596C83.9651 9.89754 84.5034 9.87139 85.0416 9.84525C85.2101 9.87594 85.3786 9.9055 85.547 9.9362C85.6744 9.893 85.7977 9.84866 85.9251 9.80546C86.7387 9.7725 87.5399 9.72134 88.3616 9.70543C88.4151 9.70429 88.4725 9.72589 88.5301 9.73726C88.9122 9.80888 89.13 9.80319 89.3724 9.7077C89.4587 9.6736 89.5326 9.64291 89.6641 9.63722C90.0709 9.61676 90.4819 9.60312 90.8845 9.57925C91.1023 9.56674 91.283 9.57811 91.4392 9.61903C91.5501 9.64859 91.6652 9.6611 91.8008 9.65428C92.5486 9.62018 93.2923 9.58721 94.0401 9.55083C94.0936 9.54856 94.1428 9.52922 94.1839 9.51558C94.2702 9.48603 94.3442 9.4542 94.4263 9.42351C94.5373 9.44284 94.6606 9.45762 94.751 9.48263C94.866 9.51218 94.9728 9.51217 95.1289 9.50422C98.112 9.36667 101.099 9.23253 104.082 9.09384C104.337 9.08248 104.448 9.13023 104.62 9.15523C104.678 9.16433 104.736 9.17569 104.797 9.17796C104.863 9.18024 104.933 9.17342 104.998 9.17001C107.238 9.0677 109.477 8.96652 111.717 8.86421C112.012 8.85057 112.012 8.85057 112.452 8.92105C112.505 8.93015 112.575 8.94038 112.633 8.93697C113.652 8.89263 114.671 8.84489 115.686 8.79942C115.817 8.79374 115.928 8.81192 116.047 8.83807C116.282 8.88922 116.298 8.88923 116.47 8.8142C116.553 8.77896 116.639 8.75735 116.774 8.74712C116.922 8.73575 117.042 8.73918 117.157 8.75964C117.321 8.78806 117.44 8.8358 117.691 8.82329C118.776 8.76986 119.864 8.72553 120.945 8.67097C121.192 8.65846 121.323 8.69711 121.487 8.72553C121.545 8.73576 121.598 8.75168 121.66 8.75509C121.722 8.7585 121.796 8.75053 121.861 8.74712C123.217 8.68574 124.577 8.6255 125.929 8.55957C126.184 8.54706 126.295 8.59593 126.467 8.62094C126.525 8.63004 126.591 8.64596 126.644 8.64369C127.458 8.60845 128.275 8.57092 129.089 8.53341C129.381 8.51977 129.381 8.5209 129.824 8.59025C129.878 8.59934 129.948 8.60844 130.005 8.60616C130.954 8.5641 131.908 8.52091 132.857 8.47771C133.148 8.46407 133.148 8.46407 133.991 8.52318C134.052 8.52773 134.118 8.53456 134.18 8.53228C135.264 8.4834 136.353 8.43565 137.438 8.38336C137.656 8.37313 137.837 8.38222 137.993 8.42315C138.104 8.4527 138.219 8.46521 138.354 8.45839C139.575 8.40269 140.799 8.34926 142.015 8.29015C142.25 8.27878 142.402 8.30378 142.566 8.33675C142.619 8.34812 142.673 8.36404 142.734 8.36858C142.796 8.37313 142.866 8.36858 142.932 8.36517C144.152 8.30947 145.376 8.25718 146.593 8.19693C146.839 8.18442 146.971 8.22307 147.135 8.25149C147.193 8.26172 147.254 8.28219 147.303 8.28105C147.78 8.26172 148.257 8.24468 148.729 8.21626C148.984 8.20034 149.095 8.25263 149.268 8.27763C149.325 8.28559 149.391 8.30265 149.444 8.30038C150.463 8.25604 151.482 8.20944 152.497 8.1617C152.641 8.15488 152.748 8.1651 152.863 8.19465C153.015 8.23444 153.192 8.25036 153.413 8.23785C153.886 8.2117 154.363 8.19352 154.839 8.17192C155.119 8.15942 155.119 8.15942 155.973 8.21853C156.035 8.22308 156.101 8.2299 156.162 8.22762C156.976 8.19125 157.793 8.15601 158.603 8.11622C158.821 8.10485 159.001 8.11508 159.158 8.15601C159.269 8.18556 159.379 8.19807 159.519 8.19125C160.267 8.15715 161.011 8.12304 161.759 8.08894C162.03 8.07644 162.301 8.05483 162.572 8.05483C162.769 8.05597 162.913 8.11053 163.09 8.13781C163.139 8.14577 163.221 8.13669 163.287 8.13441C164.236 8.09122 165.189 8.05143 166.134 8.00254C166.381 7.99004 166.512 8.02869 166.677 8.05711C166.734 8.06734 166.796 8.0878 166.845 8.08666C167.186 8.07416 167.523 8.05711 167.864 8.04233C168.271 8.02414 168.682 8.0105 169.085 7.98549C169.413 7.96503 169.537 8.06392 169.8 8.06733C170.001 8.07074 170.206 8.05142 170.408 8.04233C170.814 8.02414 171.221 8.00368 171.628 7.98777C171.772 7.98208 171.883 7.96389 171.928 7.92296C171.936 7.915 171.866 7.89796 171.821 7.88773C171.275 7.77178 171.275 7.77177 170.724 7.79678C170.383 7.8127 170.046 7.82861 169.705 7.84226C169.648 7.84453 169.582 7.83544 169.524 7.82862C169.36 7.80929 169.376 7.78656 169.516 7.74563C169.656 7.70471 169.763 7.6547 169.882 7.60809C170.05 7.63764 170.215 7.66719 170.383 7.69675C170.519 7.69106 170.654 7.68425 170.79 7.67857C171.468 7.64901 172.146 7.61832 172.824 7.59103C172.873 7.58876 172.935 7.6115 172.992 7.62287C173.156 7.65583 173.304 7.68424 173.543 7.67174C174.151 7.63877 174.763 7.6149 175.371 7.58648C175.638 7.57398 175.638 7.57398 176.107 7.64446C176.16 7.65242 176.23 7.66151 176.287 7.65924C176.9 7.63309 177.508 7.60468 178.12 7.57739C178.251 7.57171 178.379 7.58649 178.473 7.61945C178.51 7.63309 178.502 7.65583 178.658 7.84226C179.143 7.99345 179.476 7.97754 179.813 7.9639C179.957 7.95821 180.084 7.95252 180.179 7.92979C180.228 7.91729 180.29 7.89909 180.29 7.88432C180.29 7.87295 180.199 7.85476 180.142 7.85248C179.735 7.82975 179.349 7.8775 178.95 7.88773C178.765 7.89228 178.605 7.85249 178.572 7.78769C178.564 7.7695 178.551 7.75018 178.539 7.73199C178.527 7.7138 178.519 7.69448 178.506 7.67629C178.346 7.67061 178.252 7.69107 178.182 7.72972C178.124 7.76155 178.042 7.79792 177.931 7.81497C177.82 7.83316 177.668 7.82976 177.532 7.83544C177.401 7.84113 177.257 7.8559 177.134 7.84795C177.011 7.83885 176.912 7.80588 176.797 7.78542C176.744 7.77519 176.678 7.76041 176.624 7.76269C176.152 7.78201 175.684 7.80133 175.215 7.82634C174.969 7.83998 174.845 7.79224 174.689 7.76269C174.566 7.73995 174.443 7.74563 174.422 7.79792C174.369 7.92297 174.558 7.97525 174.977 7.95138C175.322 7.93092 175.634 7.92752 175.905 8.00482C175.942 8.01505 176.029 8.0196 176.082 8.01732C176.419 8.00368 176.752 7.98663 177.089 7.97299C177.15 7.97071 177.216 7.97525 177.274 7.9798C178.112 8.04119 178.112 8.04233 178.395 8.02869C178.531 8.02187 178.662 8.01618 178.65 7.84339C178.909 7.6581 179.32 7.6456 179.718 7.61831C179.977 7.60126 180.088 7.65128 180.257 7.67743C180.314 7.68652 180.376 7.70471 180.429 7.70243C181.313 7.66492 182.192 7.62513 183.071 7.58307C183.219 7.57625 183.326 7.58307 183.441 7.61263C183.589 7.65014 183.753 7.67402 183.988 7.66037C184.456 7.63309 184.933 7.61604 185.409 7.59331C185.652 7.58194 185.652 7.58193 186.141 7.65241C186.194 7.66037 186.264 7.66946 186.321 7.66719C186.798 7.64786 187.271 7.624 187.743 7.60354C187.875 7.59785 187.994 7.61377 188.096 7.64446C188.199 7.67515 188.322 7.69106 188.45 7.68538C188.926 7.66492 189.399 7.64219 189.871 7.62173C189.929 7.61945 189.999 7.62741 190.052 7.63537C190.553 7.70585 190.553 7.70584 190.784 7.69447C191.121 7.67742 191.466 7.66947 191.798 7.64673C192.123 7.624 192.292 7.68993 192.513 7.7263C193.122 7.70016 193.734 7.67856 194.338 7.64673C194.584 7.63309 194.716 7.6706 194.88 7.70016C194.938 7.71039 194.995 7.73199 195.049 7.73085C195.254 7.72631 195.455 7.7138 195.657 7.70471C195.858 7.69562 196.064 7.68652 196.265 7.67743C196.495 7.7104 196.647 7.7877 196.976 7.76155C197.173 7.74563 197.382 7.74222 197.584 7.73313C197.785 7.72404 197.991 7.71494 198.192 7.70585C198.328 7.70016 198.467 7.69675 198.599 7.68652C198.841 7.66947 198.96 7.72518 199.133 7.75018C199.19 7.75814 199.256 7.77177 199.31 7.7695C199.716 7.75359 200.127 7.73995 200.526 7.7138C200.834 7.69334 201.043 7.72745 201.261 7.77519C201.306 7.78542 201.384 7.7911 201.442 7.78883C201.919 7.76951 202.391 7.74563 202.864 7.72516C202.991 7.71948 203.114 7.73767 203.217 7.76722C203.324 7.79792 203.443 7.81271 203.574 7.80702C204.047 7.78656 204.524 7.76382 204.996 7.74336C205.054 7.74108 205.124 7.75018 205.177 7.75927C205.637 7.82975 205.637 7.83089 205.908 7.81725C205.974 7.81384 206.044 7.81156 206.11 7.80815C206.447 7.79223 206.796 7.78656 207.125 7.75927C207.503 7.72858 207.778 7.76723 208.045 7.83203C208.382 7.81839 208.727 7.81043 209.056 7.78769C209.302 7.77064 209.434 7.81384 209.598 7.84226C209.656 7.85249 209.717 7.87295 209.767 7.87068C210.243 7.85135 210.72 7.8343 211.188 7.80589C211.443 7.78997 211.554 7.84112 211.727 7.86726C211.784 7.87636 211.846 7.89228 211.899 7.89001C212.17 7.88091 212.442 7.86726 212.713 7.85476C213.029 7.83998 213.029 7.84112 213.448 7.91046C213.645 7.94343 213.843 7.91728 214.036 7.90932C214.241 7.90023 214.434 7.89341 214.599 7.94002C214.701 7.96957 214.825 7.98776 214.952 7.98321C215.223 7.97298 215.499 7.96276 215.766 7.94571C215.979 7.93206 216.164 7.94115 216.32 7.98321C216.431 8.01277 216.546 8.02756 216.682 8.02074C217.29 7.99345 217.902 7.96502 218.51 7.93888C218.564 7.93661 218.638 7.94684 218.687 7.95707C218.802 7.97753 218.913 8.00026 219.024 8.023C219.291 8.01277 219.566 8.00823 219.829 7.99232C220.109 7.9764 220.363 7.97072 220.581 8.03324C220.626 8.04688 220.692 8.0662 220.745 8.06506C220.951 8.06051 221.152 8.04915 221.354 8.04005C221.555 8.03096 221.76 8.02187 221.962 8.01277C222.196 8.04119 222.344 8.12304 222.673 8.09689C222.87 8.08098 223.079 8.07757 223.281 8.06847C223.482 8.05938 223.688 8.04915 223.889 8.04119C223.955 8.03892 224.029 8.03323 224.086 8.03778C224.148 8.04232 224.201 8.05824 224.254 8.06961C224.419 8.10258 224.571 8.13555 224.805 8.11622C225.002 8.10031 225.212 8.0969 225.413 8.08666C225.689 8.07416 225.689 8.07416 226.145 8.14578C226.33 8.17534 226.539 8.13669 226.716 8.1617C226.835 8.17875 226.938 8.20716 227.053 8.22649C227.102 8.23444 227.18 8.23785 227.238 8.23557C227.509 8.22534 227.784 8.21512 228.051 8.19807C228.269 8.18442 228.45 8.19806 228.602 8.23899C228.713 8.26854 228.824 8.28106 228.963 8.27424C229.641 8.24241 230.319 8.21511 230.993 8.17987C231.223 8.16737 231.408 8.1867 231.535 8.22762C231.753 8.2981 232.061 8.21512 232.287 8.27196C232.427 8.3072 232.567 8.34813 232.822 8.33107C233.29 8.30152 233.767 8.28559 234.239 8.26513C234.408 8.29582 234.576 8.32652 234.749 8.35722C235.02 8.34471 235.291 8.3322 235.562 8.32083C235.763 8.31174 235.969 8.30151 236.17 8.29355C236.236 8.29128 236.306 8.28673 236.367 8.29241C236.429 8.2981 236.478 8.31288 236.536 8.32425C236.819 8.37995 236.819 8.38109 237.288 8.35836C237.489 8.34812 237.682 8.3413 237.851 8.38677C238.007 8.42884 238.192 8.43679 238.405 8.42428C238.808 8.40155 239.215 8.3845 239.626 8.36858C239.753 8.3629 239.872 8.38222 239.979 8.41178C240.139 8.45839 240.337 8.45384 240.538 8.44134C240.805 8.42542 241.068 8.40951 241.294 8.47317C241.339 8.48681 241.409 8.50613 241.458 8.50499C241.795 8.4959 242.136 8.48908 242.465 8.46748C242.794 8.44588 242.954 8.51636 243.18 8.55046C243.517 8.53569 243.858 8.52091 244.195 8.50613C244.261 8.50272 244.339 8.49249 244.396 8.49818C244.639 8.52205 244.778 8.6073 245.111 8.58116C245.304 8.56638 245.514 8.56184 245.715 8.55843C245.769 8.55729 245.838 8.57661 245.875 8.59139C245.896 8.59934 245.875 8.62094 245.851 8.63231C245.777 8.66414 245.686 8.6937 245.621 8.72667C245.612 8.73122 245.691 8.75167 245.736 8.76076C245.847 8.78123 245.974 8.77782 246.122 8.76873C246.249 8.76077 246.381 8.77669 246.471 8.81079C246.508 8.82443 246.496 8.84716 246.418 8.92219C246.418 8.97789 246.504 8.95288 246.533 8.9165C246.578 8.86421 246.492 8.84716 246.327 8.87558C246.212 8.89604 246.155 8.9256 246.184 8.94947C246.2 8.96198 246.278 8.97789 246.418 8.92219C246.779 8.85398 247.051 8.84149 247.322 8.82898C247.392 8.82557 247.474 8.81419 247.523 8.82102C247.7 8.8483 247.864 8.88127 248.037 8.91196C248.234 8.90514 248.419 8.88808 248.612 8.93242C248.883 8.99494 248.895 8.98926 249.158 8.97675C249.294 8.96993 249.43 8.96426 249.565 8.95857C249.701 8.95289 249.808 8.96994 249.927 8.99608C250.169 9.04951 250.19 9.04951 250.35 8.97675C250.444 8.93242 250.51 8.91764 250.629 8.93811C251.024 9.00745 251.028 9.01199 251.365 8.99153C251.644 8.97448 251.907 8.96993 252.113 9.03473C252.252 9.0802 252.298 9.06997 252.409 9.02223C252.704 8.89604 252.84 8.89831 253.395 8.98926C253.653 9.03245 253.921 8.98585 254.184 8.98017C254.405 8.97562 254.562 9.0029 254.578 9.07451C254.59 9.11885 254.627 9.15068 254.775 9.16546C254.833 9.17114 254.903 9.1791 254.96 9.17683C255.301 9.16318 255.638 9.14727 255.979 9.13135C256.152 9.12339 256.246 9.06998 256.213 8.9995C256.176 8.92447 256.242 8.89718 256.489 8.87558C256.637 8.86307 256.756 8.86536 256.875 8.88582C257.006 8.90855 256.969 8.92902 256.854 8.96994C256.579 9.06998 256.612 9.13135 256.965 9.20069C257.089 9.22457 257.187 9.24617 257.216 9.28141C257.232 9.2996 257.216 9.32347 257.253 9.33711C257.454 9.41328 257.734 9.46216 258.046 9.49854C258.346 9.46785 258.551 9.51899 258.781 9.55992C258.962 9.59175 259.176 9.56447 259.369 9.5531C259.587 9.5406 259.768 9.54969 259.924 9.59175C260.035 9.62131 260.15 9.63494 260.285 9.62926C260.556 9.61676 260.832 9.6088 261.099 9.59061C261.329 9.5747 261.501 9.59744 261.645 9.63609C261.826 9.68497 262.027 9.652 262.216 9.65882C262.471 9.66677 262.599 9.76794 262.931 9.74066C263.129 9.72475 263.334 9.71906 263.539 9.71452C263.593 9.71338 263.659 9.73271 263.704 9.74635C263.922 9.80887 264.176 9.80546 264.456 9.78727C264.649 9.77477 264.838 9.76341 265.027 9.8066C265.339 9.87936 265.684 9.94302 266.013 10.0101C266.058 10.0624 266.025 10.1238 266.26 10.1544C266.383 10.1704 266.498 10.1942 266.592 10.2204C266.707 10.2511 266.814 10.259 266.962 10.2511C267.229 10.2352 267.509 10.2317 267.772 10.2113C268.014 10.1931 268.166 10.2306 268.314 10.2659C268.433 10.2943 268.544 10.3079 268.688 10.2875C268.836 10.2681 268.943 10.2806 269.062 10.3113C269.23 10.3534 269.243 10.3488 269.801 10.3613C269.859 10.3625 269.929 10.3795 269.962 10.3943C269.978 10.4023 269.941 10.425 269.912 10.4364C269.875 10.45 269.818 10.4659 269.764 10.4693C269.156 10.4989 268.544 10.525 267.936 10.5546C267.874 10.558 267.809 10.566 267.763 10.5773C267.714 10.5898 267.652 10.6069 267.652 10.6228C267.652 10.6342 267.735 10.6478 267.792 10.6558C267.973 10.6819 268.187 10.6421 268.363 10.6717C268.482 10.691 268.581 10.7183 268.7 10.7365C268.749 10.7444 268.828 10.7433 268.889 10.741C269.095 10.7331 269.296 10.7217 269.501 10.7149C269.559 10.7137 269.625 10.7251 269.678 10.7342C270.073 10.8024 270.073 10.8024 270.414 10.7876C270.549 10.782 270.693 10.7649 270.82 10.7717C270.944 10.7785 271.051 10.8092 271.161 10.8286C271.392 10.8695 271.609 10.9093 271.626 10.9979C271.634 11.032 271.77 11.0616 271.905 11.0639C272.037 11.0661 272.176 11.0536 272.312 11.0468C272.632 11.0332 272.632 11.0332 273.047 11.1025C273.162 11.1219 273.286 11.1241 273.434 11.1128C273.491 11.1082 273.561 11.1128 273.623 11.1184C273.824 11.1355 273.824 11.1571 273.693 11.198C273.508 11.2583 273.524 11.2639 274.042 11.3151C274.239 11.3344 274.391 11.3708 274.555 11.4026C274.822 11.4538 274.818 11.4538 274.642 11.5209C274.601 11.5356 274.564 11.5515 274.523 11.5675C274.403 11.6118 274.309 11.6595 274.062 11.6641C273.791 11.6686 273.52 11.6868 273.249 11.6993C272.986 11.7118 272.916 11.7391 272.941 11.8164C272.969 11.9096 273.023 11.9199 273.495 11.9187C273.631 11.9187 273.75 11.9278 273.853 11.9585C273.803 11.9949 273.713 12.0233 273.582 12.0301C273.245 12.0472 272.904 12.062 272.567 12.0767C272.296 12.0892 272.024 12.1017 271.753 12.1142C271.585 12.1222 271.478 12.1813 271.523 12.2473C271.548 12.2848 271.568 12.3223 271.589 12.3598C271.634 12.4348 271.72 12.4541 271.995 12.4507C272.065 12.4496 272.131 12.4405 272.197 12.4428C272.464 12.4507 272.591 12.5451 272.912 12.5258C273.179 12.5098 273.458 12.5064 273.721 12.486C273.964 12.4678 274.099 12.5087 274.268 12.5394C274.325 12.5496 274.387 12.5712 274.436 12.5701C274.777 12.5576 275.118 12.5451 275.451 12.5235C275.607 12.5144 275.702 12.5212 275.825 12.5485C276.121 12.6144 276.129 12.611 276.569 12.5906C276.889 12.5746 276.893 12.5769 277.304 12.6463C277.419 12.6656 277.543 12.6656 277.69 12.6565C277.884 12.6451 278.085 12.6269 278.286 12.644C278.348 12.6485 278.426 12.6622 278.447 12.677C278.459 12.6872 278.401 12.7122 278.352 12.7202C277.99 12.7793 277.567 12.769 277.173 12.7929C277.049 12.7997 276.926 12.7781 276.823 12.7474C276.717 12.7167 276.602 12.7042 276.462 12.7099C276.191 12.7224 275.915 12.7304 275.648 12.7486C275.418 12.7645 275.258 12.7383 275.098 12.7031C275.044 12.6917 274.983 12.6701 274.929 12.6713C274.321 12.694 273.709 12.7167 273.105 12.7486C272.863 12.7622 272.723 12.7258 272.558 12.6951C272.501 12.6849 272.443 12.6633 272.39 12.6645C272.185 12.669 271.983 12.6815 271.778 12.6906C271.03 12.7247 270.286 12.7588 269.538 12.7906C269.489 12.7929 269.427 12.769 269.37 12.7588C269.259 12.7383 269.144 12.719 269.029 12.6997C268.823 12.7088 268.622 12.7201 268.417 12.727C268.269 12.7315 268.137 12.7474 268.117 12.7906C268.104 12.8191 268.24 12.8452 268.384 12.8429C268.524 12.8406 268.663 12.827 268.778 12.8418C269.349 12.9145 269.349 12.9157 269.707 12.9009C270.019 12.8873 269.986 12.8759 270.262 12.9384C270.381 12.9657 270.488 12.9816 270.623 12.9748C270.96 12.9589 271.301 12.943 271.642 12.9293C271.696 12.927 271.765 12.9384 271.819 12.9475C272.221 13.0157 272.222 13.018 272.554 13.0009C272.99 12.9805 273.006 12.9748 273.298 13.0441C273.499 13.0919 273.684 13.0589 273.877 13.0566C274.099 13.101 274.342 13.1408 274.543 13.1908C274.781 13.2499 275.032 13.2396 275.303 13.2226C275.504 13.2101 275.702 13.2055 275.866 13.2522C276.022 13.2954 276.211 13.2999 276.425 13.2885C276.618 13.2783 276.815 13.2567 277.017 13.2817C277.07 13.2885 277.152 13.3056 277.148 13.3158C277.144 13.3317 277.091 13.3545 277.037 13.3613C276.659 13.4079 276.244 13.4068 275.846 13.4284C275.792 13.4318 275.722 13.4193 275.669 13.4102C275.554 13.3897 275.443 13.3658 275.332 13.3442C275.131 13.3511 274.925 13.3533 274.728 13.367C274.576 13.3772 274.461 13.3761 274.35 13.3488C274.247 13.3238 274.136 13.2931 274.013 13.2851C273.89 13.2772 273.746 13.2942 273.61 13.301C273.475 13.3079 273.319 13.3044 273.212 13.3226C273.105 13.3408 273.039 13.3806 272.969 13.4124C272.891 13.4477 272.784 13.4591 272.628 13.4625C272.484 13.4659 272.369 13.4613 272.263 13.4295C272.217 13.4159 272.156 13.4056 272.094 13.3965C272.037 13.3886 271.971 13.3761 271.917 13.3783C271.305 13.4045 270.697 13.4329 270.085 13.4602C269.781 13.4738 269.785 13.4738 269.152 13.4068C269.095 13.4011 269.025 13.3931 268.967 13.3954C268.626 13.409 268.289 13.4249 267.948 13.4409C267.603 13.4568 267.607 13.4545 267.02 13.3829C266.913 13.3692 266.757 13.3874 266.629 13.3852C266.362 13.3795 266.231 13.284 265.919 13.3022C265.651 13.3181 265.372 13.3215 265.105 13.342C264.862 13.3602 264.723 13.3204 264.559 13.2897C264.501 13.2794 264.439 13.2567 264.39 13.259C263.778 13.284 263.17 13.3124 262.356 13.3158C262.155 13.3158 262.245 13.3397 262.377 13.3477C262.566 13.3602 262.627 13.3363 262.525 13.2908C262.451 13.259 262.344 13.2431 262.257 13.251C262.212 13.2556 262.155 13.2772 262.356 13.3158C262.57 13.359 262.557 13.3829 262.594 13.3965C262.685 13.4295 262.812 13.4431 262.944 13.4386C263.149 13.4306 263.35 13.4193 263.556 13.4124C263.613 13.4102 263.683 13.4181 263.737 13.4272C264.189 13.4977 264.193 13.5023 264.674 13.475C264.826 13.467 264.936 13.467 265.056 13.4886C265.22 13.5182 265.339 13.5682 265.59 13.5523C265.923 13.5307 266.264 13.5182 266.605 13.5057C266.658 13.5034 266.716 13.5239 266.777 13.5329C266.946 13.5602 267.069 13.6114 267.32 13.5898C267.513 13.5727 267.722 13.5682 267.928 13.5648C267.981 13.5636 268.063 13.5818 268.088 13.5966C268.137 13.6227 268.076 13.6534 267.936 13.675C267.878 13.6841 267.8 13.6819 267.735 13.6853C267.463 13.6978 267.192 13.7114 266.921 13.7216C266.777 13.7273 266.642 13.7444 266.625 13.7864C266.613 13.8149 266.761 13.8399 266.901 13.8376C267.106 13.8342 267.311 13.8251 267.509 13.8103C267.858 13.7853 268.162 13.7921 268.445 13.8637C268.647 13.9138 268.634 13.8956 268.848 14.0434C268.902 14.0809 269.062 14.0843 269.202 14.082C269.538 14.0763 269.695 14.0934 269.666 14.1286C269.629 14.1718 269.51 14.1854 269.358 14.1911C269.086 14.2002 268.815 14.215 268.544 14.2275C268.478 14.2309 268.404 14.2377 268.343 14.2355C268.281 14.2332 268.224 14.2196 268.17 14.2093C268.055 14.1877 267.957 14.1548 267.833 14.1468C267.71 14.1388 267.566 14.1559 267.431 14.1627C267.295 14.1684 267.151 14.1854 267.028 14.1775C266.905 14.1695 266.802 14.1354 266.691 14.115C266.638 14.1047 266.572 14.0888 266.518 14.09C266.247 14.099 265.976 14.1138 265.705 14.1252C265.372 14.14 265.372 14.14 264.969 14.0695C264.854 14.049 264.735 14.0502 264.583 14.0593C264.254 14.0775 264.25 14.074 263.65 14.0081C263.593 14.0013 263.523 13.9933 263.465 13.9967C262.853 14.0229 262.245 14.0513 261.637 14.0786C261.115 14.1025 261.115 14.1025 260.828 14.2161C260.614 14.3003 260.61 14.3003 260.819 14.3389C260.988 14.3707 261.14 14.4173 261.325 14.4344C261.497 14.4503 261.711 14.3992 261.9 14.4515C261.995 14.4776 262.118 14.506 262.237 14.5106C262.426 14.5163 262.627 14.4833 262.808 14.5333C262.898 14.5583 263.034 14.5845 263.149 14.5856C263.35 14.5879 263.556 14.5697 263.757 14.5617C263.819 14.5594 263.889 14.5594 263.946 14.5651C264.008 14.572 264.061 14.5856 264.115 14.597C264.279 14.6356 264.456 14.6538 264.669 14.6345C265.019 14.6026 265.331 14.6186 265.602 14.6913C265.639 14.7015 265.73 14.7027 265.787 14.6981C265.935 14.6868 266.062 14.6856 266.173 14.7072C266.218 14.7163 266.284 14.7322 266.276 14.7425C266.264 14.7595 266.214 14.7823 266.161 14.7879C265.775 14.8266 265.36 14.8311 264.961 14.8516C264.908 14.8539 264.842 14.8391 264.789 14.8289C264.674 14.8084 264.575 14.7743 264.452 14.7663C264.328 14.7584 264.185 14.7732 264.049 14.7788C263.913 14.7845 263.77 14.8016 263.646 14.7948C263.523 14.7868 263.408 14.7584 263.309 14.7334C263.194 14.705 263.083 14.7016 262.931 14.7129C262.734 14.7277 262.529 14.73 262.327 14.7379C262.216 14.7163 262.105 14.6924 261.99 14.672C261.937 14.6618 261.871 14.6493 261.814 14.6504C261.543 14.6595 261.271 14.6731 261 14.6856C260.729 14.6981 260.729 14.6981 260.269 14.6277C260.215 14.6197 260.146 14.6106 260.088 14.6129C259.747 14.6265 259.41 14.6436 259.069 14.6572C258.938 14.6629 258.818 14.647 258.712 14.6163C258.609 14.5856 258.486 14.5685 258.358 14.5742C257.816 14.5981 257.273 14.6208 256.731 14.6493C256.513 14.6606 256.328 14.6504 256.18 14.6095C256.008 14.5629 255.815 14.5742 255.613 14.5833C255.157 14.6061 255.153 14.6049 254.861 14.5469C254.804 14.5356 254.746 14.514 254.693 14.5151C254.221 14.5322 253.744 14.5481 253.276 14.5754C253.029 14.5901 252.897 14.5504 252.733 14.5208C252.676 14.5106 252.614 14.489 252.565 14.4912C252.224 14.5037 251.883 14.5151 251.55 14.5379C251.217 14.5606 251.09 14.4549 250.839 14.456C250.498 14.4571 250.161 14.4833 249.824 14.4992C249.553 14.5117 249.282 14.5242 249.01 14.5367C248.739 14.5492 248.468 14.5594 248.197 14.5742C248.053 14.5822 247.946 14.5719 247.827 14.5435C247.675 14.506 247.494 14.4765 247.33 14.4424C247.079 14.3935 247.079 14.3935 246.775 14.4071C246.71 14.4105 246.64 14.4128 246.574 14.4162C246.077 14.4412 246.077 14.439 245.444 14.3673C245.415 14.3639 245.341 14.3764 245.312 14.3855C245.226 14.4151 245.148 14.4469 245.07 14.4776C244.959 14.4594 244.824 14.4492 244.75 14.423C244.54 14.3491 244.211 14.4503 243.998 14.3776C243.92 14.3503 243.784 14.3264 243.661 14.3196C243.533 14.3128 243.39 14.3287 243.258 14.3355C242.917 14.3526 242.917 14.3514 242.625 14.4526C242.477 14.5026 242.264 14.4935 242.071 14.5049C241.869 14.5174 241.676 14.5242 241.508 14.4776C241.356 14.4355 241.171 14.4253 240.953 14.439C240.686 14.456 240.411 14.4662 240.139 14.4765C240.082 14.4787 240.012 14.4731 239.954 14.4662C239.326 14.3992 239.326 14.398 239.022 14.4128C238.886 14.4196 238.746 14.4219 238.615 14.4321C238.393 14.4503 238.225 14.4264 238.064 14.3901C238.011 14.3787 237.949 14.3571 237.896 14.3582C237.625 14.3639 237.358 14.3742 237.091 14.3844C236.885 14.3923 236.68 14.3969 236.482 14.4128C236.154 14.439 235.994 14.3651 235.768 14.331C235.431 14.3457 235.09 14.356 234.753 14.3764C234.597 14.3855 234.494 14.3821 234.375 14.3548C234.223 14.3207 234.083 14.2821 233.836 14.2991C233.508 14.3219 233.163 14.3298 232.826 14.3435C232.6 14.3082 232.435 14.2366 232.111 14.2627C231.913 14.2787 231.704 14.2821 231.503 14.2912C231.231 14.3037 230.96 14.315 230.689 14.3287C230.397 14.3423 230.401 14.3389 229.954 14.2718C229.695 14.2321 229.428 14.2764 229.165 14.2832C228.959 14.2889 228.856 14.3412 228.906 14.4083C228.955 14.4753 228.844 14.5276 228.655 14.5367C228.183 14.5583 227.706 14.581 227.233 14.6004C227.176 14.6026 227.106 14.5947 227.053 14.5867C226.547 14.5151 226.547 14.5163 226.321 14.5265C225.984 14.5435 225.639 14.5526 225.306 14.5742C225.076 14.589 224.908 14.5651 224.76 14.5265C224.645 14.4969 224.538 14.4901 224.39 14.4969C222.763 14.5731 221.136 14.6436 219.513 14.722C219.27 14.7334 219.131 14.7004 218.966 14.6697C218.909 14.6595 218.855 14.6379 218.798 14.6379C218.662 14.6379 218.527 14.6481 218.391 14.6549C217.783 14.6822 217.175 14.7152 216.563 14.7356C216.304 14.7447 216.234 14.797 216.123 14.8402C216.037 14.8732 215.938 14.8868 215.786 14.8914C215.638 14.8959 215.531 14.8902 215.416 14.8607C215.268 14.822 215.1 14.7982 214.87 14.8141C214.603 14.8323 214.332 14.8402 214.056 14.8527C213.917 14.8584 213.81 14.8789 213.765 14.9198C213.756 14.9266 213.843 14.9437 213.892 14.9539C214.056 14.988 214.212 15.0278 214.397 15.0517C214.586 15.0755 214.792 15.0483 214.989 15.0414C215.059 15.0392 215.125 15.0323 215.19 15.0335C215.252 15.0346 215.326 15.0403 215.371 15.0505C215.585 15.1017 215.811 15.1369 216.107 15.1062C216.361 15.121 216.493 15.2154 216.817 15.1904C217.015 15.1756 217.22 15.1688 217.426 15.1631C217.479 15.1619 217.536 15.1824 217.594 15.1926C217.758 15.2211 217.89 15.2665 218.136 15.2472C218.399 15.2267 218.679 15.2233 218.946 15.2074C219.094 15.1983 219.201 15.2063 219.316 15.2358C219.464 15.2733 219.632 15.3018 219.862 15.2836C220.059 15.2677 220.269 15.2642 220.47 15.254C220.733 15.2415 220.733 15.2426 221.202 15.3131C221.255 15.3211 221.325 15.3302 221.382 15.3279C221.723 15.3143 222.06 15.2972 222.401 15.2836C222.533 15.2779 222.66 15.2927 222.751 15.3256C222.788 15.3393 222.775 15.362 222.788 15.3813C222.11 15.412 221.432 15.4382 220.758 15.4757C220.503 15.4905 220.388 15.4439 220.22 15.4177C220.162 15.4086 220.1 15.3893 220.047 15.3916C219.57 15.4109 219.098 15.4313 218.625 15.4564C218.477 15.4643 218.367 15.4598 218.256 15.4268C217.972 15.3393 217.627 15.387 217.306 15.3995C217.06 15.4086 216.982 15.4439 217.011 15.5189C217.048 15.6076 217.195 15.6348 217.573 15.6189C217.709 15.6132 217.845 15.6053 217.98 15.6007C218.112 15.5962 218.231 15.611 218.338 15.6417C218.44 15.6723 218.564 15.6883 218.691 15.6837C218.962 15.6735 219.238 15.6633 219.5 15.6462C219.718 15.6326 219.899 15.6439 220.051 15.686C220.22 15.7326 220.417 15.7224 220.614 15.7121C221.074 15.6894 221.078 15.6905 221.366 15.7474C221.423 15.7587 221.481 15.7803 221.534 15.7792C222.007 15.7622 222.484 15.7474 222.948 15.7201C223.19 15.7065 223.33 15.7428 223.49 15.7724C223.548 15.7826 223.605 15.8054 223.659 15.8031C224 15.7906 224.341 15.7781 224.674 15.7565C224.83 15.7462 224.924 15.7531 225.052 15.7803C225.356 15.8474 225.364 15.8451 225.795 15.8235C225.927 15.8167 226.071 15.8042 226.194 15.8133C226.317 15.8224 226.416 15.8554 226.531 15.8758C226.584 15.8849 226.65 15.8974 226.707 15.8952C226.979 15.8861 227.25 15.8724 227.521 15.8599C227.776 15.8474 227.776 15.8486 228.252 15.919C228.446 15.9486 228.647 15.9236 228.84 15.9145C229.05 15.9042 229.239 15.9043 229.399 15.9486C229.559 15.9929 229.752 15.9906 229.958 15.9815C230.151 15.9725 230.348 15.9475 230.545 15.9781C230.997 16.0486 230.997 16.0498 231.277 16.0361C231.683 16.0168 232.086 15.9986 232.497 15.9815C232.55 15.9793 232.62 15.9929 232.674 16.002C232.789 16.0225 232.887 16.0566 233.011 16.0645C233.134 16.0736 233.278 16.06 233.409 16.0532C233.832 16.0316 233.861 16.0236 234.145 16.0986C234.383 16.16 234.679 16.0714 234.901 16.1418C235.028 16.1816 235.201 16.2134 235.439 16.1941C235.636 16.1782 235.841 16.1737 236.047 16.1646C236.372 16.1498 236.372 16.1509 236.782 16.2191C236.836 16.2282 236.906 16.2396 236.959 16.2373C237.23 16.2282 237.506 16.2203 237.769 16.1998C238.077 16.1759 238.274 16.2191 238.504 16.2612C238.685 16.2942 238.899 16.2669 239.092 16.2555C239.301 16.2441 239.49 16.2475 239.646 16.2919C239.811 16.3374 240.004 16.3317 240.209 16.3226C240.402 16.3146 240.6 16.2885 240.797 16.3203C241.22 16.3908 241.22 16.3908 241.528 16.3771C241.799 16.3646 242.071 16.351 242.342 16.3419C242.395 16.3396 242.461 16.3544 242.514 16.3646C242.629 16.3851 242.728 16.4192 242.851 16.4272C242.975 16.4351 243.118 16.4203 243.254 16.4147C243.39 16.409 243.533 16.3919 243.657 16.3987C243.78 16.4056 243.895 16.434 243.994 16.459C244.109 16.4886 244.215 16.492 244.372 16.4806C244.569 16.4658 244.774 16.4624 244.976 16.4544C245.086 16.476 245.202 16.4976 245.308 16.5215C245.419 16.5465 245.538 16.5442 245.69 16.5363C246.196 16.509 246.2 16.5124 246.623 16.5829C246.816 16.6147 247.018 16.5886 247.211 16.5806C247.416 16.5715 247.609 16.567 247.77 16.6125C247.926 16.6557 248.119 16.6613 248.324 16.6477C248.456 16.6386 248.595 16.6329 248.731 16.6295C248.793 16.6284 248.867 16.6329 248.912 16.642C249.13 16.6898 249.343 16.733 249.643 16.7023C249.906 16.7114 250.038 16.8046 250.354 16.7864C250.621 16.7705 250.901 16.7671 251.164 16.7466C251.406 16.7284 251.579 16.7602 251.702 16.8C251.924 16.8705 252.236 16.775 252.458 16.8444C252.585 16.8842 252.75 16.916 252.996 16.8989C253.267 16.8807 253.354 16.9046 253.432 16.9762C253.477 17.0171 253.469 17.0501 253.386 17.0819C253.304 17.1149 253.214 17.1092 253.082 17.0717C252.93 17.0297 252.75 17.0217 252.532 17.0308C252.318 17.0399 252.187 16.9808 252.01 16.958C251.833 16.9342 251.624 16.974 251.439 16.9433C251.003 16.8716 251.003 16.8716 250.707 16.8853C250.506 16.8944 250.297 16.8989 250.099 16.9148C249.865 16.9342 249.713 16.8989 249.553 16.8671C249.495 16.8557 249.438 16.8341 249.388 16.8353C248.916 16.8523 248.439 16.8682 247.971 16.8967C247.724 16.9114 247.593 16.8705 247.429 16.8421C247.371 16.8319 247.309 16.8114 247.26 16.8137C246.853 16.8296 246.451 16.85 246.044 16.8694C245.966 16.9001 245.879 16.9296 245.806 16.9626C245.727 16.9967 245.621 17.0115 245.465 17.0103C245.206 17.0103 244.951 17.0581 244.692 16.9978C244.425 16.9364 244.404 16.9399 244.146 16.9546C243.817 16.974 243.468 16.9694 243.159 17.0137C243.106 17.0217 243.048 17.0433 243.048 17.0592C243.044 17.0694 243.131 17.0842 243.184 17.0933C243.365 17.1206 243.574 17.0808 243.755 17.1092C243.874 17.1274 243.973 17.1547 244.092 17.174C244.141 17.182 244.215 17.1808 244.281 17.1797C244.351 17.1786 244.417 17.1706 244.482 17.1718C244.544 17.1729 244.61 17.1797 244.659 17.1899C244.885 17.2331 245.123 17.2729 245.325 17.3241C245.522 17.3741 245.707 17.34 245.904 17.3377C246.693 17.4173 246.693 17.4184 247.223 17.3934C247.355 17.3877 247.49 17.3809 247.626 17.3821C247.683 17.3821 247.737 17.4025 247.794 17.4139C247.959 17.448 248.115 17.4787 248.345 17.4605C248.542 17.4446 248.752 17.4412 248.953 17.4309C249.224 17.4184 249.224 17.4184 249.684 17.49C249.799 17.5082 249.923 17.506 250.071 17.4969C250.198 17.4889 250.329 17.506 250.42 17.5389C250.457 17.5526 250.444 17.5753 250.457 17.5946C250.05 17.6128 249.639 17.6253 249.245 17.6526C248.99 17.6697 248.875 17.6208 248.706 17.5946C248.649 17.5855 248.587 17.5662 248.534 17.5685C248.131 17.5855 247.729 17.6049 247.326 17.6276C247.277 17.6299 247.215 17.656 247.211 17.6719C247.203 17.7015 247.305 17.7299 247.453 17.7288C247.65 17.7276 247.844 17.7083 248.02 17.7549C248.168 17.7958 248.353 17.814 248.571 17.7958C248.702 17.7856 248.842 17.7856 248.974 17.7765C249.323 17.7492 249.639 17.7549 249.902 17.8322C250.103 17.8527 250.301 17.8334 250.494 17.8231C250.638 17.8152 250.777 17.8072 250.88 17.8288C251.098 17.8743 251.311 17.9197 251.611 17.8891C251.936 17.9209 252.183 17.988 252.454 18.0425C252.581 18.0687 252.68 18.0834 252.828 18.0664C252.889 18.0596 252.963 18.0596 253.029 18.0562C253.165 18.0505 253.308 18.0334 253.432 18.0402C253.555 18.0482 253.658 18.0812 253.769 18.1016C253.822 18.1119 253.884 18.1289 253.937 18.1278C254.142 18.1221 254.344 18.1107 254.545 18.1016C254.746 18.0937 254.948 18.0857 255.149 18.0778C255.318 18.1073 255.49 18.1369 255.659 18.1664C255.93 18.1539 256.201 18.1414 256.468 18.13C256.768 18.1164 256.768 18.1175 257.199 18.188C257.393 18.2199 257.598 18.1994 257.783 18.1846C258.091 18.1607 258.297 18.2039 258.514 18.2494C258.56 18.2585 258.642 18.2642 258.695 18.2596C258.909 18.2437 259.094 18.2562 259.25 18.2983C259.361 18.3278 259.472 18.3415 259.607 18.3358C260.08 18.3142 260.552 18.2915 261.025 18.2721C261.082 18.2699 261.148 18.2801 261.201 18.2892C261.621 18.3585 261.625 18.362 261.933 18.3438C262.208 18.3278 262.463 18.321 262.681 18.3835C262.726 18.3972 262.796 18.4165 262.845 18.4154C263.182 18.404 263.523 18.3915 263.856 18.3722C264.008 18.3631 264.115 18.3665 264.234 18.3927C264.386 18.4256 264.522 18.4654 264.772 18.4506C265.467 18.4086 265.471 18.4154 266.292 18.4938C266.35 18.4995 266.428 18.4904 266.494 18.4859C266.633 18.4745 266.736 18.4904 266.859 18.5166C267.135 18.5757 267.143 18.5723 267.406 18.5598C267.607 18.5495 267.817 18.5472 268.014 18.5302C268.318 18.5052 268.519 18.5495 268.745 18.5916C268.926 18.6246 269.136 18.5973 269.329 18.587C269.538 18.5757 269.727 18.5791 269.884 18.6223C269.99 18.6518 270.105 18.6677 270.241 18.6621C270.714 18.6416 271.186 18.6189 271.659 18.5984C271.716 18.5961 271.786 18.6052 271.839 18.6132C272.308 18.6837 272.308 18.6871 272.772 18.6609C272.92 18.653 273.043 18.6507 273.154 18.6746C273.261 18.6973 273.376 18.7189 273.487 18.7405C273.688 18.7325 273.894 18.7303 274.091 18.7166C274.243 18.7064 274.35 18.7109 274.469 18.7348C274.625 18.7655 274.757 18.8189 275.003 18.7928C275.131 18.7803 275.279 18.7837 275.406 18.7723C275.558 18.7576 275.661 18.7666 275.78 18.7962C275.928 18.8314 276.08 18.8678 276.318 18.8496C276.581 18.8292 276.86 18.8258 277.127 18.8098C277.275 18.8007 277.378 18.8098 277.497 18.8394C277.645 18.8769 277.814 18.9008 278.044 18.886C278.512 18.8576 278.516 18.8633 278.972 18.9349C279.087 18.9531 279.211 18.9508 279.359 18.9417C279.486 18.9338 279.617 18.9508 279.708 18.9838C279.794 19.0201 279.786 19.0429 279.794 19.0622ZM243.18 8.80965C243.044 8.81533 242.909 8.82215 242.712 8.72325C242.699 8.7062 242.707 8.68575 242.679 8.67097C242.613 8.64027 242.51 8.61868 242.387 8.61527C242.165 8.61072 241.898 8.64936 241.902 8.67892C241.906 8.70393 241.976 8.72552 242.112 8.74598C242.169 8.75394 242.214 8.76759 242.268 8.77668C242.424 8.80283 242.547 8.85399 242.773 8.82784C242.732 8.75736 242.753 8.7926 242.773 8.82784C242.753 8.87104 242.814 8.90173 242.962 8.91424C243.003 8.91765 243.065 8.91537 243.098 8.90855C243.225 8.88354 243.246 8.84944 243.151 8.75964C243.135 8.77442 243.147 8.80055 243.184 8.80737C243.221 8.8142 243.311 8.80852 243.357 8.80056C243.472 8.77896 243.529 8.75054 243.501 8.72667C243.484 8.71416 243.406 8.69825 243.357 8.69825C243.27 8.69825 243.192 8.72326 243.18 8.80965ZM276.404 21.9928C276.104 22.0144 275.759 22.0064 275.459 22.0508C275.406 22.0587 275.353 22.0792 275.348 22.0951C275.344 22.1053 275.426 22.1201 275.476 22.1281C275.587 22.1463 275.71 22.1406 275.854 22.1349C276.072 22.1269 276.199 22.1792 276.367 22.2054C276.421 22.2133 276.491 22.219 276.548 22.2167C276.881 22.2031 277.21 22.1883 277.542 22.1724C277.6 22.169 277.662 22.161 277.711 22.1508C277.875 22.1178 277.859 22.0963 277.699 22.0712C277.522 22.044 277.382 21.9985 277.202 21.9769C276.943 21.9462 276.68 21.9871 276.404 21.9928ZM253.07 22.8227C252.869 22.8317 252.671 22.8408 252.47 22.8499C252.404 22.8533 252.335 22.8545 252.273 22.859C252.146 22.867 252.051 22.8909 251.989 22.9284C252.084 22.9579 252.199 22.975 252.326 22.9716C252.528 22.9647 252.725 22.95 252.926 22.9466C253.144 22.942 253.271 22.9932 253.44 23.0193C253.493 23.0273 253.559 23.0284 253.621 23.0295C253.925 23.0341 254.11 22.975 254.052 22.892C254.011 22.8272 253.855 22.7886 253.666 22.7965C253.469 22.8045 253.267 22.8136 253.07 22.8227ZM277.81 20.3126C277.859 20.2933 277.912 20.2797 277.937 20.2626C278.011 20.2047 277.982 20.1615 277.847 20.116C277.682 20.0603 277.481 20.0978 277.296 20.1035C277.251 20.1046 277.201 20.1285 277.177 20.1433C277.16 20.1535 277.16 20.1751 277.185 20.1808C277.386 20.2263 277.6 20.2683 277.81 20.3126ZM242.165 16.9546C241.968 16.9637 241.767 16.9705 241.569 16.983C241.52 16.9865 241.475 17.0081 241.446 17.0228C241.393 17.0501 241.45 17.0876 241.619 17.091C241.812 17.0956 242.013 17.0763 242.214 17.0672C242.469 17.0558 242.621 17.0137 242.527 16.9774C242.436 16.9421 242.313 16.9353 242.165 16.9546ZM25.8779 14.5253C26.0094 14.5197 26.145 14.5151 26.2765 14.5072C26.3997 14.4992 26.4943 14.4742 26.556 14.4367C26.4532 14.4071 26.3382 14.3912 26.2108 14.3946C26.0094 14.4014 25.8122 14.4105 25.615 14.4219C25.4917 14.4287 25.3726 14.4537 25.3439 14.4924C25.3151 14.5219 25.5903 14.539 25.8779 14.5253ZM224.789 14.3503C224.842 14.3605 224.895 14.381 224.949 14.381C225.08 14.381 225.216 14.3742 225.339 14.3628C225.393 14.3582 225.434 14.3378 225.458 14.3219C225.475 14.3116 225.471 14.2934 225.446 14.2844C225.327 14.2298 224.85 14.2491 224.772 14.3116C224.764 14.323 224.785 14.3378 224.789 14.3503ZM211.825 8.12531C211.837 8.1435 211.842 8.16169 211.858 8.17987C211.891 8.21398 211.981 8.23899 212.113 8.25604C212.215 8.22762 212.269 8.1958 212.265 8.1617C212.261 8.14351 212.248 8.12531 212.232 8.10712C212.199 8.07302 212.109 8.04802 211.977 8.03096C211.874 8.05825 211.825 8.09007 211.825 8.12531ZM287.305 23.0204C287.268 23.0352 287.231 23.05 287.19 23.0636C287.301 23.0966 287.404 23.1068 287.482 23.0887C287.531 23.0773 287.56 23.0602 287.597 23.0455C287.486 23.0125 287.387 23.0034 287.305 23.0204ZM284.749 23.175C284.803 23.1853 284.852 23.1989 284.91 23.2057C285.004 23.2171 285.09 23.1978 285.156 23.1569C285.103 23.1466 285.054 23.133 284.996 23.1262C284.902 23.1148 284.815 23.1341 284.749 23.175ZM286.368 22.967C286.34 22.9943 286.397 23.017 286.549 23.0364C286.586 23.0216 286.635 23.0079 286.66 22.992C286.701 22.9659 286.631 22.942 286.483 22.9238C286.442 22.9375 286.405 22.9522 286.368 22.967ZM277.695 21.7416C277.666 21.7689 277.723 21.7916 277.875 21.8109C277.912 21.7961 277.962 21.7825 277.986 21.7666C278.027 21.7404 277.958 21.7166 277.81 21.6984C277.769 21.712 277.732 21.7268 277.695 21.7416ZM265.877 13.6978C265.84 13.7126 265.803 13.7273 265.762 13.741C265.873 13.7739 265.976 13.7842 266.054 13.766C266.103 13.7546 266.132 13.7376 266.169 13.7228C266.058 13.6898 265.96 13.6807 265.877 13.6978ZM254.557 9.43032C254.656 9.43828 254.738 9.42237 254.808 9.38031C254.755 9.37008 254.705 9.35644 254.648 9.34962C254.553 9.33825 254.467 9.35758 254.401 9.39851C254.455 9.40987 254.508 9.42009 254.557 9.43032ZM248.546 9.16319C248.509 9.17796 248.472 9.19274 248.431 9.20638C248.542 9.23935 248.645 9.24958 248.723 9.23139C248.772 9.22002 248.801 9.20297 248.838 9.18819C248.727 9.15522 248.628 9.14727 248.546 9.16319ZM207.782 8.12417C207.745 8.13895 207.708 8.15373 207.667 8.16737C207.778 8.20034 207.881 8.21057 207.959 8.19238C208.008 8.18101 208.037 8.16396 208.074 8.14918C207.963 8.11621 207.864 8.10826 207.782 8.12417ZM4.80761 17.373C4.75419 17.3627 4.70082 17.3525 4.65152 17.3411C4.53236 17.3718 4.49539 17.4002 4.56113 17.4218C4.60222 17.4355 4.66381 17.4434 4.71722 17.4537C4.84049 17.423 4.86924 17.3957 4.80761 17.373Z" fill="#FFE492"/>
<path d="M24.2496 6.15201C23.777 6.17361 23.3086 6.20089 22.8361 6.21453C22.5855 6.22135 22.4952 6.27023 22.3924 6.3157C22.3103 6.35208 22.2157 6.36344 22.0637 6.37026C20.7817 6.42597 19.5038 6.48508 18.226 6.54306C18.0657 6.52828 17.9877 6.50441 18.0247 6.47599C18.0452 6.45894 18.0945 6.43507 18.1438 6.43279C19.019 6.39073 19.8901 6.34753 20.7694 6.31456C21.02 6.30547 21.0899 6.25545 21.2173 6.21453C21.2583 6.20089 21.2912 6.18042 21.3447 6.17247C21.3981 6.16337 21.4761 6.16451 21.546 6.16224C22.9594 6.09744 24.3729 6.03379 25.7864 5.96899C25.9466 5.98377 26.0247 6.00764 25.9877 6.03606C25.9672 6.05311 25.9178 6.07698 25.8685 6.07926C25.3262 6.10313 24.7878 6.127 24.2496 6.15201Z" fill="#FFE492"/>
<path d="M282.272 12.2054C282.058 12.219 281.787 12.2384 281.565 12.1724C281.458 12.1406 281.343 12.1304 281.204 12.1372C281.002 12.1486 280.797 12.1577 280.591 12.1645C280.538 12.1656 280.468 12.1531 280.415 12.1429C280.3 12.1224 280.201 12.0883 280.078 12.0792C279.954 12.0701 279.807 12.0951 279.679 12.0895C279.511 12.0815 279.441 12.0508 279.486 12.0224C279.511 12.0065 279.56 11.9837 279.613 11.9803C280.374 11.9383 280.378 11.9383 280.591 11.9792C280.756 12.011 280.908 12.0463 281.142 12.0269C281.339 12.011 281.549 12.0076 281.75 11.9974C282.029 11.9837 282.029 11.9849 282.481 12.0565C282.597 12.0747 282.72 12.0735 282.868 12.0633C282.995 12.0554 283.118 12.0735 283.221 12.1042C283.155 12.1429 283.061 12.1679 282.933 12.1747C282.728 12.1861 282.527 12.194 282.272 12.2054Z" fill="#FFE492"/>
<path d="M275.57 11.8551C276.088 11.8312 276.61 11.8107 277.128 11.7834C277.341 11.7721 277.51 11.7846 277.658 11.8232C277.818 11.8653 277.999 11.8619 278.196 11.8539C278.319 11.8494 278.438 11.8676 278.521 11.8994C278.553 11.9119 278.545 11.9346 278.557 11.9528C278.105 11.9733 277.649 11.9949 277.193 12.0131C277.14 12.0153 277.074 12.004 277.025 11.9949C276.914 11.9756 276.819 11.9415 276.7 11.9346C276.445 11.9187 276.191 11.9494 275.932 11.9551C275.809 11.9574 275.689 11.9403 275.607 11.9096C275.574 11.8949 275.583 11.8732 275.57 11.8551Z" fill="#FFE492"/>
<path d="M87.3937 2.08145C87.932 2.05644 88.4702 2.03258 89.0085 2.00757C89.1687 2.02348 89.2427 2.04621 89.2098 2.07463C89.1893 2.09169 89.14 2.11556 89.0907 2.11783C88.0141 2.16899 86.9377 2.21786 85.8652 2.26674C85.705 2.25083 85.631 2.2281 85.6639 2.19968C85.6845 2.18262 85.7338 2.15875 85.7831 2.15648C86.3172 2.13033 86.8555 2.10646 87.3937 2.08145Z" fill="#FFE492"/>
<path d="M4.59876 8.39822C4.35633 8.40049 4.10164 8.44255 3.83045 8.41072C3.77704 8.40504 3.70306 8.38684 3.70716 8.37661C3.71538 8.35956 3.7647 8.33796 3.81811 8.33114C4.05232 8.30272 4.34408 8.29931 4.46323 8.21974C4.52076 8.17881 4.62759 8.16518 4.7714 8.15722C4.92343 8.14813 5.03023 8.15153 5.14938 8.1754C5.30552 8.20609 5.43703 8.26293 5.68356 8.23338C5.69588 8.25157 5.72457 8.27203 5.71225 8.28908C5.69992 8.30613 5.64659 8.32205 5.59729 8.33455C5.55209 8.34592 5.4904 8.35615 5.43287 8.35956C5.16169 8.3732 4.89049 8.38458 4.59876 8.39822Z" fill="#FFE492"/>
<path d="M218.965 8.16978C219.166 8.16069 219.376 8.15614 219.573 8.14023C219.729 8.12772 219.828 8.13567 219.951 8.16296C220.16 8.2107 220.173 8.20616 220.686 8.21298C220.744 8.21412 220.814 8.23116 220.847 8.24594C220.867 8.2539 220.838 8.27551 220.814 8.28687C220.777 8.30165 220.723 8.32097 220.674 8.32097C220.35 8.32438 220.021 8.39146 219.704 8.31416C219.544 8.27551 219.367 8.25731 219.15 8.27436C219.018 8.28459 218.879 8.28914 218.743 8.29369C218.611 8.29823 218.476 8.28573 218.394 8.25163C218.275 8.20161 218.344 8.18229 218.558 8.1857C218.694 8.18797 218.829 8.17547 218.965 8.16978Z" fill="#FFE492"/>
<path d="M293.081 16.0056C293.34 15.9942 293.599 15.9806 293.862 15.9715C293.915 15.9692 293.981 15.9817 294.03 15.9897C294.228 16.0238 294.199 16.0817 294.207 16.1329C294.211 16.1863 293.755 16.2295 293.562 16.1931C293.348 16.1522 293.155 16.1056 292.859 16.1306C292.744 16.1397 292.609 16.1192 292.535 16.0863C292.424 16.0385 292.486 16.0192 292.695 16.0226C292.818 16.0249 292.95 16.0124 293.081 16.0056Z" fill="#FFE492"/>
<path d="M162.031 0.532982C162.298 0.520478 162.565 0.501162 162.832 0.500025C162.988 0.498888 163.066 0.536395 163.029 0.563677C163.009 0.580729 162.96 0.604602 162.91 0.606875C162.376 0.634158 161.842 0.656897 161.308 0.681906C161.152 0.665991 161.074 0.642123 161.111 0.61484C161.131 0.597789 161.18 0.575053 161.23 0.571642C161.497 0.555728 161.764 0.545487 162.031 0.532982Z" fill="#FFE492"/>
<path d="M287.886 12.3052C288.145 12.2938 288.408 12.2768 288.667 12.2711C288.803 12.2688 288.909 12.2949 288.926 12.3245C288.934 12.3381 288.868 12.362 288.815 12.3677C288.445 12.4063 288.047 12.4109 287.66 12.4302C287.537 12.4359 287.406 12.4177 287.332 12.3859C287.221 12.337 287.282 12.3188 287.492 12.3222C287.623 12.3234 287.755 12.3109 287.886 12.3052Z" fill="#FFE492"/>
<path d="M225.371 8.32326C225.502 8.31758 225.638 8.3028 225.765 8.30734C225.901 8.31303 225.987 8.34599 226.028 8.37896C226.073 8.41647 226.069 8.45172 226.028 8.48355C225.962 8.53811 225.897 8.53584 225.745 8.49947C225.51 8.44263 225.494 8.44944 225.03 8.45172C224.976 8.45172 224.91 8.43466 224.869 8.41988C224.808 8.39715 224.841 8.36191 224.984 8.34145C225.091 8.32667 225.239 8.32894 225.371 8.32326Z" fill="#FFE492"/>
<path d="M278.575 11.9324C278.768 11.9233 278.961 11.9085 279.154 11.9085C279.29 11.9074 279.397 11.9335 279.409 11.962C279.413 11.9756 279.351 11.9983 279.302 12.0052C279.068 12.0359 278.805 12.0381 278.55 12.0484C278.431 12.0529 278.299 12.0347 278.225 12.0029C278.114 11.9551 278.18 11.9335 278.382 11.9404C278.443 11.9426 278.509 11.9358 278.575 11.9324Z" fill="#FFE492"/>
<path d="M247.492 10.5376C247.205 10.5513 246.934 10.5342 246.954 10.5047C246.983 10.466 247.102 10.441 247.225 10.4342C247.423 10.4228 247.62 10.4137 247.821 10.4069C247.948 10.4024 248.064 10.4194 248.166 10.449C248.105 10.4854 248.01 10.5115 247.887 10.5195C247.76 10.5274 247.624 10.532 247.492 10.5376Z" fill="#FFE492"/>
<path d="M246.055 10.3924C246.248 10.3833 246.441 10.3685 246.634 10.3685C246.77 10.3674 246.877 10.3935 246.889 10.4219C246.893 10.4356 246.832 10.4583 246.782 10.4651C246.548 10.4958 246.285 10.4981 246.03 10.5083C245.911 10.5129 245.78 10.4947 245.706 10.4629C245.595 10.4151 245.661 10.3935 245.862 10.4003C245.924 10.4026 245.989 10.3958 246.055 10.3924Z" fill="#FFE492"/>
<path d="M222.641 8.31439C222.834 8.3053 223.027 8.29051 223.22 8.28937C223.356 8.28824 223.463 8.31439 223.475 8.34281C223.479 8.35645 223.418 8.37805 223.368 8.38601C223.134 8.4167 222.871 8.41898 222.616 8.42921C222.497 8.43375 222.366 8.41556 222.292 8.38373C222.181 8.33599 222.247 8.31439 222.448 8.32121C222.51 8.32348 222.575 8.31667 222.641 8.31439Z" fill="#FFE492"/>
<path d="M221.455 8.24683C221.661 8.23774 221.727 8.23206 221.792 8.23206C221.916 8.23206 222.043 8.2457 222.117 8.27867C222.228 8.32641 222.162 8.34006 221.961 8.34233C221.702 8.34461 221.447 8.36848 221.188 8.37303C221.053 8.3753 220.946 8.34801 220.938 8.31959C220.934 8.30595 220.995 8.28208 221.044 8.27753C221.217 8.26048 221.406 8.25024 221.455 8.24683Z" fill="#FFE492"/>
<path d="M244.947 1.55947C244.815 1.56516 244.676 1.58107 244.552 1.57539C244.388 1.56743 244.322 1.53674 244.363 1.50832C244.388 1.49241 244.433 1.46967 244.483 1.46626C244.746 1.45035 245.013 1.44011 245.276 1.42874C245.432 1.44579 245.502 1.46966 245.46 1.49808C245.436 1.514 245.391 1.5356 245.341 1.54014C245.214 1.55151 245.078 1.55379 244.947 1.55947Z" fill="#FFE492"/>
<path d="M84.828 2.21536C84.9554 2.21423 85.0704 2.229 85.169 2.25742C85.1074 2.2938 85.017 2.31767 84.8938 2.3279C84.8321 2.33245 84.7623 2.33585 84.6965 2.33699C84.5692 2.33926 84.4541 2.32335 84.3555 2.29493C84.4171 2.25855 84.5116 2.23468 84.6307 2.22445C84.6924 2.2199 84.7623 2.21877 84.828 2.21536Z" fill="#FFE492"/>
<path d="M285.977 12.301C285.972 12.268 286.223 12.2305 286.449 12.2316C286.568 12.2328 286.691 12.2487 286.761 12.2794C286.868 12.326 286.806 12.3442 286.605 12.3407C286.482 12.3385 286.35 12.3578 286.227 12.3544C286.087 12.3533 286.005 12.3282 285.977 12.301Z" fill="#FFE492"/>
<path d="M226.157 8.46067C226.153 8.44816 226.132 8.43339 226.144 8.42202C226.223 8.3595 226.695 8.34017 226.818 8.39474C226.839 8.40497 226.847 8.42202 226.831 8.43225C226.806 8.44816 226.761 8.46862 226.712 8.47317C226.584 8.48454 226.453 8.49023 226.321 8.49136C226.264 8.49136 226.21 8.47204 226.157 8.46067Z" fill="#FFE492"/>
<path d="M6.75725 8.21641C6.2724 8.24029 6.26419 8.23801 6.35047 8.18117C6.42854 8.13001 6.57237 8.09932 6.78192 8.09932C6.84356 8.09932 6.90927 8.09705 6.96269 8.1016C7.02021 8.10728 7.10244 8.11864 7.11477 8.13228C7.13942 8.15842 7.06951 8.18685 6.94624 8.20617C6.89282 8.21527 6.82299 8.213 6.75725 8.21641Z" fill="#FFE492"/>
<path d="M91.244 2.05488C91.1001 2.07421 90.9769 2.06739 90.8865 2.03102C90.7961 1.99464 90.94 1.95144 91.1906 1.94121C91.2563 1.93893 91.3262 1.92985 91.3878 1.93439C91.4494 1.9378 91.5111 1.95143 91.5481 1.96507C91.6139 1.98781 91.5728 2.01851 91.4413 2.04466C91.3879 2.05489 91.3097 2.05261 91.244 2.05488Z" fill="#FFE492"/>
<path d="M285.985 12.2155C286.022 12.2007 286.059 12.1859 286.1 12.1723C286.252 12.1916 286.318 12.2144 286.277 12.2405C286.252 12.2564 286.203 12.2701 286.166 12.2848C286.014 12.2655 285.952 12.2416 285.985 12.2155Z" fill="#FFE492"/>
<path d="M12.8125 21.1575C12.8125 21.1438 12.87 21.1222 12.9152 21.1177C13.0015 21.1097 13.1083 21.1256 13.1822 21.1575C13.285 21.2029 13.2234 21.2268 13.0344 21.2143C12.9029 21.2052 12.8125 21.1825 12.8125 21.1575Z" fill="#FFE492"/>
<path d="M227.692 7.40252C227.745 7.41275 227.799 7.42299 227.848 7.43436C227.778 7.47642 227.692 7.4946 227.602 7.48323C227.544 7.47641 227.495 7.46276 227.441 7.45253C227.511 7.41047 227.593 7.39457 227.692 7.40252Z" fill="#FFE492"/>
<path d="M226.252 7.35147C226.334 7.33441 226.432 7.34352 226.547 7.37649C226.51 7.39126 226.478 7.40832 226.432 7.41968C226.354 7.43787 226.252 7.42877 226.141 7.39466C226.173 7.38102 226.21 7.36624 226.252 7.35147Z" fill="#FFE492"/>
<path d="M225.09 7.40149C225.144 7.41172 225.197 7.42195 225.247 7.43332C225.177 7.47538 225.095 7.49356 225 7.48219C224.942 7.47537 224.893 7.46173 224.84 7.4515C224.91 7.40944 224.992 7.39239 225.09 7.40149Z" fill="#FFE492"/>
<path d="M225.119 7.3414C225.181 7.36414 225.148 7.39142 225.029 7.42211C224.976 7.41188 224.914 7.40393 224.873 7.39029C224.807 7.36869 224.84 7.34026 224.963 7.30957C225.013 7.32094 225.066 7.33117 225.119 7.3414Z" fill="#FFE492"/>
</svg>
